%TF.GenerationSoftware,KiCad,Pcbnew,10.0.4-10.0.4~ubuntu25.10.1*%
%TF.CreationDate,2026-09-08T23:03:02+00:00*%
%TF.ProjectId,attenuator_10db,61747465-6e75-4617-946f-725f31306462,rev?*%
%TF.SameCoordinates,Original*%
%TF.FileFunction,Legend,Top*%
%TF.FilePolarity,Positive*%
%FSLAX46Y46*%
G04 Gerber Fmt 4.6, Leading zero omitted, Abs format (unit mm)*
G04 Created by KiCad (PCBNEW 10.0.4-10.0.4~ubuntu25.10.1) date 2026-09-08 23:03:02*
%MOMM*%
%LPD*%
G01*
G04 APERTURE LIST*
%ADD10C,0.100000*%
%ADD11C,0.125000*%
%ADD12C,0.150000*%
%ADD13C,0.120000*%
G04 APERTURE END LIST*
D10*
X2557143Y-6364895D02*
X2557143Y-5564895D01*
X2938095Y-6364895D02*
X2938095Y-5564895D01*
X2938095Y-5564895D02*
X3395238Y-6364895D01*
X3395238Y-6364895D02*
X3395238Y-5564895D01*
X4766666Y-5564895D02*
X4385714Y-5564895D01*
X4385714Y-5564895D02*
X4347618Y-5945847D01*
X4347618Y-5945847D02*
X4385714Y-5907752D01*
X4385714Y-5907752D02*
X4461904Y-5869657D01*
X4461904Y-5869657D02*
X4652380Y-5869657D01*
X4652380Y-5869657D02*
X4728571Y-5907752D01*
X4728571Y-5907752D02*
X4766666Y-5945847D01*
X4766666Y-5945847D02*
X4804761Y-6022038D01*
X4804761Y-6022038D02*
X4804761Y-6212514D01*
X4804761Y-6212514D02*
X4766666Y-6288704D01*
X4766666Y-6288704D02*
X4728571Y-6326800D01*
X4728571Y-6326800D02*
X4652380Y-6364895D01*
X4652380Y-6364895D02*
X4461904Y-6364895D01*
X4461904Y-6364895D02*
X4385714Y-6326800D01*
X4385714Y-6326800D02*
X4347618Y-6288704D01*
X5300000Y-5564895D02*
X5376190Y-5564895D01*
X5376190Y-5564895D02*
X5452381Y-5602990D01*
X5452381Y-5602990D02*
X5490476Y-5641085D01*
X5490476Y-5641085D02*
X5528571Y-5717276D01*
X5528571Y-5717276D02*
X5566666Y-5869657D01*
X5566666Y-5869657D02*
X5566666Y-6060133D01*
X5566666Y-6060133D02*
X5528571Y-6212514D01*
X5528571Y-6212514D02*
X5490476Y-6288704D01*
X5490476Y-6288704D02*
X5452381Y-6326800D01*
X5452381Y-6326800D02*
X5376190Y-6364895D01*
X5376190Y-6364895D02*
X5300000Y-6364895D01*
X5300000Y-6364895D02*
X5223809Y-6326800D01*
X5223809Y-6326800D02*
X5185714Y-6288704D01*
X5185714Y-6288704D02*
X5147619Y-6212514D01*
X5147619Y-6212514D02*
X5109523Y-6060133D01*
X5109523Y-6060133D02*
X5109523Y-5869657D01*
X5109523Y-5869657D02*
X5147619Y-5717276D01*
X5147619Y-5717276D02*
X5185714Y-5641085D01*
X5185714Y-5641085D02*
X5223809Y-5602990D01*
X5223809Y-5602990D02*
X5300000Y-5564895D01*
X5871428Y-6364895D02*
X6061905Y-6364895D01*
X6061905Y-6364895D02*
X6061905Y-6212514D01*
X6061905Y-6212514D02*
X5985714Y-6174419D01*
X5985714Y-6174419D02*
X5909524Y-6098228D01*
X5909524Y-6098228D02*
X5871428Y-5983942D01*
X5871428Y-5983942D02*
X5871428Y-5793466D01*
X5871428Y-5793466D02*
X5909524Y-5679180D01*
X5909524Y-5679180D02*
X5985714Y-5602990D01*
X5985714Y-5602990D02*
X6100000Y-5564895D01*
X6100000Y-5564895D02*
X6252381Y-5564895D01*
X6252381Y-5564895D02*
X6366667Y-5602990D01*
X6366667Y-5602990D02*
X6442857Y-5679180D01*
X6442857Y-5679180D02*
X6480952Y-5793466D01*
X6480952Y-5793466D02*
X6480952Y-5983942D01*
X6480952Y-5983942D02*
X6442857Y-6098228D01*
X6442857Y-6098228D02*
X6366667Y-6174419D01*
X6366667Y-6174419D02*
X6290476Y-6212514D01*
X6290476Y-6212514D02*
X6290476Y-6364895D01*
X6290476Y-6364895D02*
X6480952Y-6364895D01*
X12066666Y-16364895D02*
X12600000Y-16364895D01*
X12600000Y-16364895D02*
X12066666Y-17164895D01*
X12066666Y-17164895D02*
X12600000Y-17164895D01*
X13057143Y-16364895D02*
X13133333Y-16364895D01*
X13133333Y-16364895D02*
X13209524Y-16402990D01*
X13209524Y-16402990D02*
X13247619Y-16441085D01*
X13247619Y-16441085D02*
X13285714Y-16517276D01*
X13285714Y-16517276D02*
X13323809Y-16669657D01*
X13323809Y-16669657D02*
X13323809Y-16860133D01*
X13323809Y-16860133D02*
X13285714Y-17012514D01*
X13285714Y-17012514D02*
X13247619Y-17088704D01*
X13247619Y-17088704D02*
X13209524Y-17126800D01*
X13209524Y-17126800D02*
X13133333Y-17164895D01*
X13133333Y-17164895D02*
X13057143Y-17164895D01*
X13057143Y-17164895D02*
X12980952Y-17126800D01*
X12980952Y-17126800D02*
X12942857Y-17088704D01*
X12942857Y-17088704D02*
X12904762Y-17012514D01*
X12904762Y-17012514D02*
X12866666Y-16860133D01*
X12866666Y-16860133D02*
X12866666Y-16669657D01*
X12866666Y-16669657D02*
X12904762Y-16517276D01*
X12904762Y-16517276D02*
X12942857Y-16441085D01*
X12942857Y-16441085D02*
X12980952Y-16402990D01*
X12980952Y-16402990D02*
X13057143Y-16364895D01*
X13666667Y-16745847D02*
X14276191Y-16745847D01*
X14276191Y-16974419D02*
X13666667Y-16974419D01*
X15038095Y-16364895D02*
X14657143Y-16364895D01*
X14657143Y-16364895D02*
X14619047Y-16745847D01*
X14619047Y-16745847D02*
X14657143Y-16707752D01*
X14657143Y-16707752D02*
X14733333Y-16669657D01*
X14733333Y-16669657D02*
X14923809Y-16669657D01*
X14923809Y-16669657D02*
X15000000Y-16707752D01*
X15000000Y-16707752D02*
X15038095Y-16745847D01*
X15038095Y-16745847D02*
X15076190Y-16822038D01*
X15076190Y-16822038D02*
X15076190Y-17012514D01*
X15076190Y-17012514D02*
X15038095Y-17088704D01*
X15038095Y-17088704D02*
X15000000Y-17126800D01*
X15000000Y-17126800D02*
X14923809Y-17164895D01*
X14923809Y-17164895D02*
X14733333Y-17164895D01*
X14733333Y-17164895D02*
X14657143Y-17126800D01*
X14657143Y-17126800D02*
X14619047Y-17088704D01*
X15571429Y-16364895D02*
X15647619Y-16364895D01*
X15647619Y-16364895D02*
X15723810Y-16402990D01*
X15723810Y-16402990D02*
X15761905Y-16441085D01*
X15761905Y-16441085D02*
X15800000Y-16517276D01*
X15800000Y-16517276D02*
X15838095Y-16669657D01*
X15838095Y-16669657D02*
X15838095Y-16860133D01*
X15838095Y-16860133D02*
X15800000Y-17012514D01*
X15800000Y-17012514D02*
X15761905Y-17088704D01*
X15761905Y-17088704D02*
X15723810Y-17126800D01*
X15723810Y-17126800D02*
X15647619Y-17164895D01*
X15647619Y-17164895D02*
X15571429Y-17164895D01*
X15571429Y-17164895D02*
X15495238Y-17126800D01*
X15495238Y-17126800D02*
X15457143Y-17088704D01*
X15457143Y-17088704D02*
X15419048Y-17012514D01*
X15419048Y-17012514D02*
X15380952Y-16860133D01*
X15380952Y-16860133D02*
X15380952Y-16669657D01*
X15380952Y-16669657D02*
X15419048Y-16517276D01*
X15419048Y-16517276D02*
X15457143Y-16441085D01*
X15457143Y-16441085D02*
X15495238Y-16402990D01*
X15495238Y-16402990D02*
X15571429Y-16364895D01*
X16180953Y-17088704D02*
X16219048Y-17126800D01*
X16219048Y-17126800D02*
X16180953Y-17164895D01*
X16180953Y-17164895D02*
X16142857Y-17126800D01*
X16142857Y-17126800D02*
X16180953Y-17088704D01*
X16180953Y-17088704D02*
X16180953Y-17164895D01*
X16714286Y-16364895D02*
X16790476Y-16364895D01*
X16790476Y-16364895D02*
X16866667Y-16402990D01*
X16866667Y-16402990D02*
X16904762Y-16441085D01*
X16904762Y-16441085D02*
X16942857Y-16517276D01*
X16942857Y-16517276D02*
X16980952Y-16669657D01*
X16980952Y-16669657D02*
X16980952Y-16860133D01*
X16980952Y-16860133D02*
X16942857Y-17012514D01*
X16942857Y-17012514D02*
X16904762Y-17088704D01*
X16904762Y-17088704D02*
X16866667Y-17126800D01*
X16866667Y-17126800D02*
X16790476Y-17164895D01*
X16790476Y-17164895D02*
X16714286Y-17164895D01*
X16714286Y-17164895D02*
X16638095Y-17126800D01*
X16638095Y-17126800D02*
X16600000Y-17088704D01*
X16600000Y-17088704D02*
X16561905Y-17012514D01*
X16561905Y-17012514D02*
X16523809Y-16860133D01*
X16523809Y-16860133D02*
X16523809Y-16669657D01*
X16523809Y-16669657D02*
X16561905Y-16517276D01*
X16561905Y-16517276D02*
X16600000Y-16441085D01*
X16600000Y-16441085D02*
X16638095Y-16402990D01*
X16638095Y-16402990D02*
X16714286Y-16364895D01*
X17285714Y-17164895D02*
X17476191Y-17164895D01*
X17476191Y-17164895D02*
X17476191Y-17012514D01*
X17476191Y-17012514D02*
X17400000Y-16974419D01*
X17400000Y-16974419D02*
X17323810Y-16898228D01*
X17323810Y-16898228D02*
X17285714Y-16783942D01*
X17285714Y-16783942D02*
X17285714Y-16593466D01*
X17285714Y-16593466D02*
X17323810Y-16479180D01*
X17323810Y-16479180D02*
X17400000Y-16402990D01*
X17400000Y-16402990D02*
X17514286Y-16364895D01*
X17514286Y-16364895D02*
X17666667Y-16364895D01*
X17666667Y-16364895D02*
X17780953Y-16402990D01*
X17780953Y-16402990D02*
X17857143Y-16479180D01*
X17857143Y-16479180D02*
X17895238Y-16593466D01*
X17895238Y-16593466D02*
X17895238Y-16783942D01*
X17895238Y-16783942D02*
X17857143Y-16898228D01*
X17857143Y-16898228D02*
X17780953Y-16974419D01*
X17780953Y-16974419D02*
X17704762Y-17012514D01*
X17704762Y-17012514D02*
X17704762Y-17164895D01*
X17704762Y-17164895D02*
X17895238Y-17164895D01*
X23176190Y-5564895D02*
X23328571Y-5564895D01*
X23328571Y-5564895D02*
X23404761Y-5602990D01*
X23404761Y-5602990D02*
X23480952Y-5679180D01*
X23480952Y-5679180D02*
X23519047Y-5831561D01*
X23519047Y-5831561D02*
X23519047Y-6098228D01*
X23519047Y-6098228D02*
X23480952Y-6250609D01*
X23480952Y-6250609D02*
X23404761Y-6326800D01*
X23404761Y-6326800D02*
X23328571Y-6364895D01*
X23328571Y-6364895D02*
X23176190Y-6364895D01*
X23176190Y-6364895D02*
X23099999Y-6326800D01*
X23099999Y-6326800D02*
X23023809Y-6250609D01*
X23023809Y-6250609D02*
X22985713Y-6098228D01*
X22985713Y-6098228D02*
X22985713Y-5831561D01*
X22985713Y-5831561D02*
X23023809Y-5679180D01*
X23023809Y-5679180D02*
X23099999Y-5602990D01*
X23099999Y-5602990D02*
X23176190Y-5564895D01*
X23861904Y-5564895D02*
X23861904Y-6212514D01*
X23861904Y-6212514D02*
X23899999Y-6288704D01*
X23899999Y-6288704D02*
X23938094Y-6326800D01*
X23938094Y-6326800D02*
X24014285Y-6364895D01*
X24014285Y-6364895D02*
X24166666Y-6364895D01*
X24166666Y-6364895D02*
X24242856Y-6326800D01*
X24242856Y-6326800D02*
X24280951Y-6288704D01*
X24280951Y-6288704D02*
X24319047Y-6212514D01*
X24319047Y-6212514D02*
X24319047Y-5564895D01*
X24585713Y-5564895D02*
X25042856Y-5564895D01*
X24814284Y-6364895D02*
X24814284Y-5564895D01*
X26299999Y-5564895D02*
X25919047Y-5564895D01*
X25919047Y-5564895D02*
X25880951Y-5945847D01*
X25880951Y-5945847D02*
X25919047Y-5907752D01*
X25919047Y-5907752D02*
X25995237Y-5869657D01*
X25995237Y-5869657D02*
X26185713Y-5869657D01*
X26185713Y-5869657D02*
X26261904Y-5907752D01*
X26261904Y-5907752D02*
X26299999Y-5945847D01*
X26299999Y-5945847D02*
X26338094Y-6022038D01*
X26338094Y-6022038D02*
X26338094Y-6212514D01*
X26338094Y-6212514D02*
X26299999Y-6288704D01*
X26299999Y-6288704D02*
X26261904Y-6326800D01*
X26261904Y-6326800D02*
X26185713Y-6364895D01*
X26185713Y-6364895D02*
X25995237Y-6364895D01*
X25995237Y-6364895D02*
X25919047Y-6326800D01*
X25919047Y-6326800D02*
X25880951Y-6288704D01*
X26833333Y-5564895D02*
X26909523Y-5564895D01*
X26909523Y-5564895D02*
X26985714Y-5602990D01*
X26985714Y-5602990D02*
X27023809Y-5641085D01*
X27023809Y-5641085D02*
X27061904Y-5717276D01*
X27061904Y-5717276D02*
X27099999Y-5869657D01*
X27099999Y-5869657D02*
X27099999Y-6060133D01*
X27099999Y-6060133D02*
X27061904Y-6212514D01*
X27061904Y-6212514D02*
X27023809Y-6288704D01*
X27023809Y-6288704D02*
X26985714Y-6326800D01*
X26985714Y-6326800D02*
X26909523Y-6364895D01*
X26909523Y-6364895D02*
X26833333Y-6364895D01*
X26833333Y-6364895D02*
X26757142Y-6326800D01*
X26757142Y-6326800D02*
X26719047Y-6288704D01*
X26719047Y-6288704D02*
X26680952Y-6212514D01*
X26680952Y-6212514D02*
X26642856Y-6060133D01*
X26642856Y-6060133D02*
X26642856Y-5869657D01*
X26642856Y-5869657D02*
X26680952Y-5717276D01*
X26680952Y-5717276D02*
X26719047Y-5641085D01*
X26719047Y-5641085D02*
X26757142Y-5602990D01*
X26757142Y-5602990D02*
X26833333Y-5564895D01*
X27404761Y-6364895D02*
X27595238Y-6364895D01*
X27595238Y-6364895D02*
X27595238Y-6212514D01*
X27595238Y-6212514D02*
X27519047Y-6174419D01*
X27519047Y-6174419D02*
X27442857Y-6098228D01*
X27442857Y-6098228D02*
X27404761Y-5983942D01*
X27404761Y-5983942D02*
X27404761Y-5793466D01*
X27404761Y-5793466D02*
X27442857Y-5679180D01*
X27442857Y-5679180D02*
X27519047Y-5602990D01*
X27519047Y-5602990D02*
X27633333Y-5564895D01*
X27633333Y-5564895D02*
X27785714Y-5564895D01*
X27785714Y-5564895D02*
X27900000Y-5602990D01*
X27900000Y-5602990D02*
X27976190Y-5679180D01*
X27976190Y-5679180D02*
X28014285Y-5793466D01*
X28014285Y-5793466D02*
X28014285Y-5983942D01*
X28014285Y-5983942D02*
X27976190Y-6098228D01*
X27976190Y-6098228D02*
X27900000Y-6174419D01*
X27900000Y-6174419D02*
X27823809Y-6212514D01*
X27823809Y-6212514D02*
X27823809Y-6364895D01*
X27823809Y-6364895D02*
X28014285Y-6364895D01*
D11*
X6595236Y-3656119D02*
X6023808Y-3656119D01*
X6309522Y-3656119D02*
X6309522Y-2656119D01*
X6309522Y-2656119D02*
X6214284Y-2798976D01*
X6214284Y-2798976D02*
X6119046Y-2894214D01*
X6119046Y-2894214D02*
X6023808Y-2941833D01*
X7214284Y-2656119D02*
X7309522Y-2656119D01*
X7309522Y-2656119D02*
X7404760Y-2703738D01*
X7404760Y-2703738D02*
X7452379Y-2751357D01*
X7452379Y-2751357D02*
X7499998Y-2846595D01*
X7499998Y-2846595D02*
X7547617Y-3037071D01*
X7547617Y-3037071D02*
X7547617Y-3275166D01*
X7547617Y-3275166D02*
X7499998Y-3465642D01*
X7499998Y-3465642D02*
X7452379Y-3560880D01*
X7452379Y-3560880D02*
X7404760Y-3608500D01*
X7404760Y-3608500D02*
X7309522Y-3656119D01*
X7309522Y-3656119D02*
X7214284Y-3656119D01*
X7214284Y-3656119D02*
X7119046Y-3608500D01*
X7119046Y-3608500D02*
X7071427Y-3560880D01*
X7071427Y-3560880D02*
X7023808Y-3465642D01*
X7023808Y-3465642D02*
X6976189Y-3275166D01*
X6976189Y-3275166D02*
X6976189Y-3037071D01*
X6976189Y-3037071D02*
X7023808Y-2846595D01*
X7023808Y-2846595D02*
X7071427Y-2751357D01*
X7071427Y-2751357D02*
X7119046Y-2703738D01*
X7119046Y-2703738D02*
X7214284Y-2656119D01*
X9166665Y-3656119D02*
X9166665Y-2656119D01*
X9166665Y-3608500D02*
X9071427Y-3656119D01*
X9071427Y-3656119D02*
X8880951Y-3656119D01*
X8880951Y-3656119D02*
X8785713Y-3608500D01*
X8785713Y-3608500D02*
X8738094Y-3560880D01*
X8738094Y-3560880D02*
X8690475Y-3465642D01*
X8690475Y-3465642D02*
X8690475Y-3179928D01*
X8690475Y-3179928D02*
X8738094Y-3084690D01*
X8738094Y-3084690D02*
X8785713Y-3037071D01*
X8785713Y-3037071D02*
X8880951Y-2989452D01*
X8880951Y-2989452D02*
X9071427Y-2989452D01*
X9071427Y-2989452D02*
X9166665Y-3037071D01*
X9976189Y-3132309D02*
X10119046Y-3179928D01*
X10119046Y-3179928D02*
X10166665Y-3227547D01*
X10166665Y-3227547D02*
X10214284Y-3322785D01*
X10214284Y-3322785D02*
X10214284Y-3465642D01*
X10214284Y-3465642D02*
X10166665Y-3560880D01*
X10166665Y-3560880D02*
X10119046Y-3608500D01*
X10119046Y-3608500D02*
X10023808Y-3656119D01*
X10023808Y-3656119D02*
X9642856Y-3656119D01*
X9642856Y-3656119D02*
X9642856Y-2656119D01*
X9642856Y-2656119D02*
X9976189Y-2656119D01*
X9976189Y-2656119D02*
X10071427Y-2703738D01*
X10071427Y-2703738D02*
X10119046Y-2751357D01*
X10119046Y-2751357D02*
X10166665Y-2846595D01*
X10166665Y-2846595D02*
X10166665Y-2941833D01*
X10166665Y-2941833D02*
X10119046Y-3037071D01*
X10119046Y-3037071D02*
X10071427Y-3084690D01*
X10071427Y-3084690D02*
X9976189Y-3132309D01*
X9976189Y-3132309D02*
X9642856Y-3132309D01*
X11976189Y-3656119D02*
X11642856Y-3179928D01*
X11404761Y-3656119D02*
X11404761Y-2656119D01*
X11404761Y-2656119D02*
X11785713Y-2656119D01*
X11785713Y-2656119D02*
X11880951Y-2703738D01*
X11880951Y-2703738D02*
X11928570Y-2751357D01*
X11928570Y-2751357D02*
X11976189Y-2846595D01*
X11976189Y-2846595D02*
X11976189Y-2989452D01*
X11976189Y-2989452D02*
X11928570Y-3084690D01*
X11928570Y-3084690D02*
X11880951Y-3132309D01*
X11880951Y-3132309D02*
X11785713Y-3179928D01*
X11785713Y-3179928D02*
X11404761Y-3179928D01*
X12738094Y-3132309D02*
X12404761Y-3132309D01*
X12404761Y-3656119D02*
X12404761Y-2656119D01*
X12404761Y-2656119D02*
X12880951Y-2656119D01*
X14023809Y-3656119D02*
X14023809Y-2656119D01*
X14023809Y-2656119D02*
X14404761Y-2656119D01*
X14404761Y-2656119D02*
X14499999Y-2703738D01*
X14499999Y-2703738D02*
X14547618Y-2751357D01*
X14547618Y-2751357D02*
X14595237Y-2846595D01*
X14595237Y-2846595D02*
X14595237Y-2989452D01*
X14595237Y-2989452D02*
X14547618Y-3084690D01*
X14547618Y-3084690D02*
X14499999Y-3132309D01*
X14499999Y-3132309D02*
X14404761Y-3179928D01*
X14404761Y-3179928D02*
X14023809Y-3179928D01*
X15023809Y-3656119D02*
X15023809Y-2989452D01*
X15023809Y-2656119D02*
X14976190Y-2703738D01*
X14976190Y-2703738D02*
X15023809Y-2751357D01*
X15023809Y-2751357D02*
X15071428Y-2703738D01*
X15071428Y-2703738D02*
X15023809Y-2656119D01*
X15023809Y-2656119D02*
X15023809Y-2751357D01*
X15499999Y-3275166D02*
X16261904Y-3275166D01*
X16690475Y-3370404D02*
X17166665Y-3370404D01*
X16595237Y-3656119D02*
X16928570Y-2656119D01*
X16928570Y-2656119D02*
X17261903Y-3656119D01*
X17452380Y-2989452D02*
X17833332Y-2989452D01*
X17595237Y-2656119D02*
X17595237Y-3513261D01*
X17595237Y-3513261D02*
X17642856Y-3608500D01*
X17642856Y-3608500D02*
X17738094Y-3656119D01*
X17738094Y-3656119D02*
X17833332Y-3656119D01*
X18023809Y-2989452D02*
X18404761Y-2989452D01*
X18166666Y-2656119D02*
X18166666Y-3513261D01*
X18166666Y-3513261D02*
X18214285Y-3608500D01*
X18214285Y-3608500D02*
X18309523Y-3656119D01*
X18309523Y-3656119D02*
X18404761Y-3656119D01*
X19119047Y-3608500D02*
X19023809Y-3656119D01*
X19023809Y-3656119D02*
X18833333Y-3656119D01*
X18833333Y-3656119D02*
X18738095Y-3608500D01*
X18738095Y-3608500D02*
X18690476Y-3513261D01*
X18690476Y-3513261D02*
X18690476Y-3132309D01*
X18690476Y-3132309D02*
X18738095Y-3037071D01*
X18738095Y-3037071D02*
X18833333Y-2989452D01*
X18833333Y-2989452D02*
X19023809Y-2989452D01*
X19023809Y-2989452D02*
X19119047Y-3037071D01*
X19119047Y-3037071D02*
X19166666Y-3132309D01*
X19166666Y-3132309D02*
X19166666Y-3227547D01*
X19166666Y-3227547D02*
X18690476Y-3322785D01*
X19595238Y-2989452D02*
X19595238Y-3656119D01*
X19595238Y-3084690D02*
X19642857Y-3037071D01*
X19642857Y-3037071D02*
X19738095Y-2989452D01*
X19738095Y-2989452D02*
X19880952Y-2989452D01*
X19880952Y-2989452D02*
X19976190Y-3037071D01*
X19976190Y-3037071D02*
X20023809Y-3132309D01*
X20023809Y-3132309D02*
X20023809Y-3656119D01*
X20928571Y-2989452D02*
X20928571Y-3656119D01*
X20500000Y-2989452D02*
X20500000Y-3513261D01*
X20500000Y-3513261D02*
X20547619Y-3608500D01*
X20547619Y-3608500D02*
X20642857Y-3656119D01*
X20642857Y-3656119D02*
X20785714Y-3656119D01*
X20785714Y-3656119D02*
X20880952Y-3608500D01*
X20880952Y-3608500D02*
X20928571Y-3560880D01*
X21833333Y-3656119D02*
X21833333Y-3132309D01*
X21833333Y-3132309D02*
X21785714Y-3037071D01*
X21785714Y-3037071D02*
X21690476Y-2989452D01*
X21690476Y-2989452D02*
X21500000Y-2989452D01*
X21500000Y-2989452D02*
X21404762Y-3037071D01*
X21833333Y-3608500D02*
X21738095Y-3656119D01*
X21738095Y-3656119D02*
X21500000Y-3656119D01*
X21500000Y-3656119D02*
X21404762Y-3608500D01*
X21404762Y-3608500D02*
X21357143Y-3513261D01*
X21357143Y-3513261D02*
X21357143Y-3418023D01*
X21357143Y-3418023D02*
X21404762Y-3322785D01*
X21404762Y-3322785D02*
X21500000Y-3275166D01*
X21500000Y-3275166D02*
X21738095Y-3275166D01*
X21738095Y-3275166D02*
X21833333Y-3227547D01*
X22166667Y-2989452D02*
X22547619Y-2989452D01*
X22309524Y-2656119D02*
X22309524Y-3513261D01*
X22309524Y-3513261D02*
X22357143Y-3608500D01*
X22357143Y-3608500D02*
X22452381Y-3656119D01*
X22452381Y-3656119D02*
X22547619Y-3656119D01*
X23023810Y-3656119D02*
X22928572Y-3608500D01*
X22928572Y-3608500D02*
X22880953Y-3560880D01*
X22880953Y-3560880D02*
X22833334Y-3465642D01*
X22833334Y-3465642D02*
X22833334Y-3179928D01*
X22833334Y-3179928D02*
X22880953Y-3084690D01*
X22880953Y-3084690D02*
X22928572Y-3037071D01*
X22928572Y-3037071D02*
X23023810Y-2989452D01*
X23023810Y-2989452D02*
X23166667Y-2989452D01*
X23166667Y-2989452D02*
X23261905Y-3037071D01*
X23261905Y-3037071D02*
X23309524Y-3084690D01*
X23309524Y-3084690D02*
X23357143Y-3179928D01*
X23357143Y-3179928D02*
X23357143Y-3465642D01*
X23357143Y-3465642D02*
X23309524Y-3560880D01*
X23309524Y-3560880D02*
X23261905Y-3608500D01*
X23261905Y-3608500D02*
X23166667Y-3656119D01*
X23166667Y-3656119D02*
X23023810Y-3656119D01*
X23785715Y-3656119D02*
X23785715Y-2989452D01*
X23785715Y-3179928D02*
X23833334Y-3084690D01*
X23833334Y-3084690D02*
X23880953Y-3037071D01*
X23880953Y-3037071D02*
X23976191Y-2989452D01*
X23976191Y-2989452D02*
X24071429Y-2989452D01*
D12*
X25166666Y-7074819D02*
X25166666Y-7789104D01*
X25166666Y-7789104D02*
X25119047Y-7931961D01*
X25119047Y-7931961D02*
X25023809Y-8027200D01*
X25023809Y-8027200D02*
X24880952Y-8074819D01*
X24880952Y-8074819D02*
X24785714Y-8074819D01*
X25595238Y-7170057D02*
X25642857Y-7122438D01*
X25642857Y-7122438D02*
X25738095Y-7074819D01*
X25738095Y-7074819D02*
X25976190Y-7074819D01*
X25976190Y-7074819D02*
X26071428Y-7122438D01*
X26071428Y-7122438D02*
X26119047Y-7170057D01*
X26119047Y-7170057D02*
X26166666Y-7265295D01*
X26166666Y-7265295D02*
X26166666Y-7360533D01*
X26166666Y-7360533D02*
X26119047Y-7503390D01*
X26119047Y-7503390D02*
X25547619Y-8074819D01*
X25547619Y-8074819D02*
X26166666Y-8074819D01*
X4166666Y-7074819D02*
X4166666Y-7789104D01*
X4166666Y-7789104D02*
X4119047Y-7931961D01*
X4119047Y-7931961D02*
X4023809Y-8027200D01*
X4023809Y-8027200D02*
X3880952Y-8074819D01*
X3880952Y-8074819D02*
X3785714Y-8074819D01*
X5166666Y-8074819D02*
X4595238Y-8074819D01*
X4880952Y-8074819D02*
X4880952Y-7074819D01*
X4880952Y-7074819D02*
X4785714Y-7217676D01*
X4785714Y-7217676D02*
X4690476Y-7312914D01*
X4690476Y-7312914D02*
X4595238Y-7360533D01*
X14833333Y-6004819D02*
X14500000Y-5528628D01*
X14261905Y-6004819D02*
X14261905Y-5004819D01*
X14261905Y-5004819D02*
X14642857Y-5004819D01*
X14642857Y-5004819D02*
X14738095Y-5052438D01*
X14738095Y-5052438D02*
X14785714Y-5100057D01*
X14785714Y-5100057D02*
X14833333Y-5195295D01*
X14833333Y-5195295D02*
X14833333Y-5338152D01*
X14833333Y-5338152D02*
X14785714Y-5433390D01*
X14785714Y-5433390D02*
X14738095Y-5481009D01*
X14738095Y-5481009D02*
X14642857Y-5528628D01*
X14642857Y-5528628D02*
X14261905Y-5528628D01*
X15214286Y-5100057D02*
X15261905Y-5052438D01*
X15261905Y-5052438D02*
X15357143Y-5004819D01*
X15357143Y-5004819D02*
X15595238Y-5004819D01*
X15595238Y-5004819D02*
X15690476Y-5052438D01*
X15690476Y-5052438D02*
X15738095Y-5100057D01*
X15738095Y-5100057D02*
X15785714Y-5195295D01*
X15785714Y-5195295D02*
X15785714Y-5290533D01*
X15785714Y-5290533D02*
X15738095Y-5433390D01*
X15738095Y-5433390D02*
X15166667Y-6004819D01*
X15166667Y-6004819D02*
X15785714Y-6004819D01*
X18304819Y-10166666D02*
X17828628Y-10499999D01*
X18304819Y-10738094D02*
X17304819Y-10738094D01*
X17304819Y-10738094D02*
X17304819Y-10357142D01*
X17304819Y-10357142D02*
X17352438Y-10261904D01*
X17352438Y-10261904D02*
X17400057Y-10214285D01*
X17400057Y-10214285D02*
X17495295Y-10166666D01*
X17495295Y-10166666D02*
X17638152Y-10166666D01*
X17638152Y-10166666D02*
X17733390Y-10214285D01*
X17733390Y-10214285D02*
X17781009Y-10261904D01*
X17781009Y-10261904D02*
X17828628Y-10357142D01*
X17828628Y-10357142D02*
X17828628Y-10738094D01*
X17304819Y-9833332D02*
X17304819Y-9214285D01*
X17304819Y-9214285D02*
X17685771Y-9547618D01*
X17685771Y-9547618D02*
X17685771Y-9404761D01*
X17685771Y-9404761D02*
X17733390Y-9309523D01*
X17733390Y-9309523D02*
X17781009Y-9261904D01*
X17781009Y-9261904D02*
X17876247Y-9214285D01*
X17876247Y-9214285D02*
X18114342Y-9214285D01*
X18114342Y-9214285D02*
X18209580Y-9261904D01*
X18209580Y-9261904D02*
X18257200Y-9309523D01*
X18257200Y-9309523D02*
X18304819Y-9404761D01*
X18304819Y-9404761D02*
X18304819Y-9690475D01*
X18304819Y-9690475D02*
X18257200Y-9785713D01*
X18257200Y-9785713D02*
X18209580Y-9833332D01*
X9304819Y-10166666D02*
X8828628Y-10499999D01*
X9304819Y-10738094D02*
X8304819Y-10738094D01*
X8304819Y-10738094D02*
X8304819Y-10357142D01*
X8304819Y-10357142D02*
X8352438Y-10261904D01*
X8352438Y-10261904D02*
X8400057Y-10214285D01*
X8400057Y-10214285D02*
X8495295Y-10166666D01*
X8495295Y-10166666D02*
X8638152Y-10166666D01*
X8638152Y-10166666D02*
X8733390Y-10214285D01*
X8733390Y-10214285D02*
X8781009Y-10261904D01*
X8781009Y-10261904D02*
X8828628Y-10357142D01*
X8828628Y-10357142D02*
X8828628Y-10738094D01*
X9304819Y-9214285D02*
X9304819Y-9785713D01*
X9304819Y-9499999D02*
X8304819Y-9499999D01*
X8304819Y-9499999D02*
X8447676Y-9595237D01*
X8447676Y-9595237D02*
X8542914Y-9690475D01*
X8542914Y-9690475D02*
X8590533Y-9785713D01*
%TO.C,J2*%
D13*
X24120000Y-8620000D02*
X25500000Y-8620000D01*
X24120000Y-10000000D02*
X24120000Y-8620000D01*
X24120000Y-11270000D02*
X24120000Y-13920000D01*
X24120000Y-11270000D02*
X26880000Y-11270000D01*
X24120000Y-13920000D02*
X26880000Y-13920000D01*
X26880000Y-11270000D02*
X26880000Y-13920000D01*
%TO.C,J1*%
X3120000Y-8620000D02*
X4500000Y-8620000D01*
X3120000Y-10000000D02*
X3120000Y-8620000D01*
X3120000Y-11270000D02*
X3120000Y-13920000D01*
X3120000Y-11270000D02*
X5880000Y-11270000D01*
X3120000Y-13920000D02*
X5880000Y-13920000D01*
X5880000Y-11270000D02*
X5880000Y-13920000D01*
%TO.C,R2*%
X14772936Y-6465000D02*
X15227064Y-6465000D01*
X14772936Y-7935000D02*
X15227064Y-7935000D01*
%TO.C,R3*%
X18765000Y-10227064D02*
X18765000Y-9772936D01*
X20235000Y-10227064D02*
X20235000Y-9772936D01*
%TO.C,R1*%
X9765000Y-10227064D02*
X9765000Y-9772936D01*
X11235000Y-10227064D02*
X11235000Y-9772936D01*
%TD*%
M02*
