%TF.GenerationSoftware,KiCad,Pcbnew,10.0.4-10.0.4~ubuntu25.10.1*%
%TF.CreationDate,2026-09-08T23:47:43+00:00*%
%TF.ProjectId,attenuator_10db,61747465-6e75-4617-946f-725f31306462,rev?*%
%TF.SameCoordinates,Original*%
%TF.FileFunction,AssemblyDrawing,Top*%
%FSLAX46Y46*%
G04 Gerber Fmt 4.6, Leading zero omitted, Abs format (unit mm)*
G04 Created by KiCad (PCBNEW 10.0.4-10.0.4~ubuntu25.10.1) date 2026-09-08 23:47:43*
%MOMM*%
%LPD*%
G01*
G04 APERTURE LIST*
%ADD10C,0.150000*%
%ADD11C,0.080000*%
%ADD12C,0.100000*%
G04 APERTURE END LIST*
D10*
X-6119047Y-6604819D02*
X-6119047Y-5604819D01*
X-6119047Y-5604819D02*
X-5785714Y-6319104D01*
X-5785714Y-6319104D02*
X-5452381Y-5604819D01*
X-5452381Y-5604819D02*
X-5452381Y-6604819D01*
X-4833333Y-6604819D02*
X-4928571Y-6557200D01*
X-4928571Y-6557200D02*
X-4976190Y-6509580D01*
X-4976190Y-6509580D02*
X-5023809Y-6414342D01*
X-5023809Y-6414342D02*
X-5023809Y-6128628D01*
X-5023809Y-6128628D02*
X-4976190Y-6033390D01*
X-4976190Y-6033390D02*
X-4928571Y-5985771D01*
X-4928571Y-5985771D02*
X-4833333Y-5938152D01*
X-4833333Y-5938152D02*
X-4690476Y-5938152D01*
X-4690476Y-5938152D02*
X-4595238Y-5985771D01*
X-4595238Y-5985771D02*
X-4547619Y-6033390D01*
X-4547619Y-6033390D02*
X-4500000Y-6128628D01*
X-4500000Y-6128628D02*
X-4500000Y-6414342D01*
X-4500000Y-6414342D02*
X-4547619Y-6509580D01*
X-4547619Y-6509580D02*
X-4595238Y-6557200D01*
X-4595238Y-6557200D02*
X-4690476Y-6604819D01*
X-4690476Y-6604819D02*
X-4833333Y-6604819D01*
X-3642857Y-5938152D02*
X-3642857Y-6604819D01*
X-4071428Y-5938152D02*
X-4071428Y-6461961D01*
X-4071428Y-6461961D02*
X-4023809Y-6557200D01*
X-4023809Y-6557200D02*
X-3928571Y-6604819D01*
X-3928571Y-6604819D02*
X-3785714Y-6604819D01*
X-3785714Y-6604819D02*
X-3690476Y-6557200D01*
X-3690476Y-6557200D02*
X-3642857Y-6509580D01*
X-3166666Y-5938152D02*
X-3166666Y-6604819D01*
X-3166666Y-6033390D02*
X-3119047Y-5985771D01*
X-3119047Y-5985771D02*
X-3023809Y-5938152D01*
X-3023809Y-5938152D02*
X-2880952Y-5938152D01*
X-2880952Y-5938152D02*
X-2785714Y-5985771D01*
X-2785714Y-5985771D02*
X-2738095Y-6081009D01*
X-2738095Y-6081009D02*
X-2738095Y-6604819D01*
X-2404761Y-5938152D02*
X-2023809Y-5938152D01*
X-2261904Y-5604819D02*
X-2261904Y-6461961D01*
X-2261904Y-6461961D02*
X-2214285Y-6557200D01*
X-2214285Y-6557200D02*
X-2119047Y-6604819D01*
X-2119047Y-6604819D02*
X-2023809Y-6604819D01*
X-1690475Y-6604819D02*
X-1690475Y-5938152D01*
X-1690475Y-5604819D02*
X-1738094Y-5652438D01*
X-1738094Y-5652438D02*
X-1690475Y-5700057D01*
X-1690475Y-5700057D02*
X-1642856Y-5652438D01*
X-1642856Y-5652438D02*
X-1690475Y-5604819D01*
X-1690475Y-5604819D02*
X-1690475Y-5700057D01*
X-1214285Y-5938152D02*
X-1214285Y-6604819D01*
X-1214285Y-6033390D02*
X-1166666Y-5985771D01*
X-1166666Y-5985771D02*
X-1071428Y-5938152D01*
X-1071428Y-5938152D02*
X-928571Y-5938152D01*
X-928571Y-5938152D02*
X-833333Y-5985771D01*
X-833333Y-5985771D02*
X-785714Y-6081009D01*
X-785714Y-6081009D02*
X-785714Y-6604819D01*
X119047Y-5938152D02*
X119047Y-6747676D01*
X119047Y-6747676D02*
X71428Y-6842914D01*
X71428Y-6842914D02*
X23809Y-6890533D01*
X23809Y-6890533D02*
X-71428Y-6938152D01*
X-71428Y-6938152D02*
X-214285Y-6938152D01*
X-214285Y-6938152D02*
X-309523Y-6890533D01*
X119047Y-6557200D02*
X23809Y-6604819D01*
X23809Y-6604819D02*
X-166666Y-6604819D01*
X-166666Y-6604819D02*
X-261904Y-6557200D01*
X-261904Y-6557200D02*
X-309523Y-6509580D01*
X-309523Y-6509580D02*
X-357142Y-6414342D01*
X-357142Y-6414342D02*
X-357142Y-6128628D01*
X-357142Y-6128628D02*
X-309523Y-6033390D01*
X-309523Y-6033390D02*
X-261904Y-5985771D01*
X-261904Y-5985771D02*
X-166666Y-5938152D01*
X-166666Y-5938152D02*
X23809Y-5938152D01*
X23809Y-5938152D02*
X119047Y-5985771D01*
X595238Y-6604819D02*
X595238Y-5604819D01*
X595238Y-6081009D02*
X1166666Y-6081009D01*
X1166666Y-6604819D02*
X1166666Y-5604819D01*
X1785714Y-6604819D02*
X1690476Y-6557200D01*
X1690476Y-6557200D02*
X1642857Y-6509580D01*
X1642857Y-6509580D02*
X1595238Y-6414342D01*
X1595238Y-6414342D02*
X1595238Y-6128628D01*
X1595238Y-6128628D02*
X1642857Y-6033390D01*
X1642857Y-6033390D02*
X1690476Y-5985771D01*
X1690476Y-5985771D02*
X1785714Y-5938152D01*
X1785714Y-5938152D02*
X1928571Y-5938152D01*
X1928571Y-5938152D02*
X2023809Y-5985771D01*
X2023809Y-5985771D02*
X2071428Y-6033390D01*
X2071428Y-6033390D02*
X2119047Y-6128628D01*
X2119047Y-6128628D02*
X2119047Y-6414342D01*
X2119047Y-6414342D02*
X2071428Y-6509580D01*
X2071428Y-6509580D02*
X2023809Y-6557200D01*
X2023809Y-6557200D02*
X1928571Y-6604819D01*
X1928571Y-6604819D02*
X1785714Y-6604819D01*
X2690476Y-6604819D02*
X2595238Y-6557200D01*
X2595238Y-6557200D02*
X2547619Y-6461961D01*
X2547619Y-6461961D02*
X2547619Y-5604819D01*
X3452381Y-6557200D02*
X3357143Y-6604819D01*
X3357143Y-6604819D02*
X3166667Y-6604819D01*
X3166667Y-6604819D02*
X3071429Y-6557200D01*
X3071429Y-6557200D02*
X3023810Y-6461961D01*
X3023810Y-6461961D02*
X3023810Y-6081009D01*
X3023810Y-6081009D02*
X3071429Y-5985771D01*
X3071429Y-5985771D02*
X3166667Y-5938152D01*
X3166667Y-5938152D02*
X3357143Y-5938152D01*
X3357143Y-5938152D02*
X3452381Y-5985771D01*
X3452381Y-5985771D02*
X3500000Y-6081009D01*
X3500000Y-6081009D02*
X3500000Y-6176247D01*
X3500000Y-6176247D02*
X3023810Y-6271485D01*
X3690477Y-6700057D02*
X4452381Y-6700057D01*
X4642858Y-5700057D02*
X4690477Y-5652438D01*
X4690477Y-5652438D02*
X4785715Y-5604819D01*
X4785715Y-5604819D02*
X5023810Y-5604819D01*
X5023810Y-5604819D02*
X5119048Y-5652438D01*
X5119048Y-5652438D02*
X5166667Y-5700057D01*
X5166667Y-5700057D02*
X5214286Y-5795295D01*
X5214286Y-5795295D02*
X5214286Y-5890533D01*
X5214286Y-5890533D02*
X5166667Y-6033390D01*
X5166667Y-6033390D02*
X4595239Y-6604819D01*
X4595239Y-6604819D02*
X5214286Y-6604819D01*
X5642858Y-6509580D02*
X5690477Y-6557200D01*
X5690477Y-6557200D02*
X5642858Y-6604819D01*
X5642858Y-6604819D02*
X5595239Y-6557200D01*
X5595239Y-6557200D02*
X5642858Y-6509580D01*
X5642858Y-6509580D02*
X5642858Y-6604819D01*
X6071429Y-5700057D02*
X6119048Y-5652438D01*
X6119048Y-5652438D02*
X6214286Y-5604819D01*
X6214286Y-5604819D02*
X6452381Y-5604819D01*
X6452381Y-5604819D02*
X6547619Y-5652438D01*
X6547619Y-5652438D02*
X6595238Y-5700057D01*
X6595238Y-5700057D02*
X6642857Y-5795295D01*
X6642857Y-5795295D02*
X6642857Y-5890533D01*
X6642857Y-5890533D02*
X6595238Y-6033390D01*
X6595238Y-6033390D02*
X6023810Y-6604819D01*
X6023810Y-6604819D02*
X6642857Y-6604819D01*
X7071429Y-6604819D02*
X7071429Y-5938152D01*
X7071429Y-6033390D02*
X7119048Y-5985771D01*
X7119048Y-5985771D02*
X7214286Y-5938152D01*
X7214286Y-5938152D02*
X7357143Y-5938152D01*
X7357143Y-5938152D02*
X7452381Y-5985771D01*
X7452381Y-5985771D02*
X7500000Y-6081009D01*
X7500000Y-6081009D02*
X7500000Y-6604819D01*
X7500000Y-6081009D02*
X7547619Y-5985771D01*
X7547619Y-5985771D02*
X7642857Y-5938152D01*
X7642857Y-5938152D02*
X7785714Y-5938152D01*
X7785714Y-5938152D02*
X7880953Y-5985771D01*
X7880953Y-5985771D02*
X7928572Y-6081009D01*
X7928572Y-6081009D02*
X7928572Y-6604819D01*
X8404762Y-6604819D02*
X8404762Y-5938152D01*
X8404762Y-6033390D02*
X8452381Y-5985771D01*
X8452381Y-5985771D02*
X8547619Y-5938152D01*
X8547619Y-5938152D02*
X8690476Y-5938152D01*
X8690476Y-5938152D02*
X8785714Y-5985771D01*
X8785714Y-5985771D02*
X8833333Y-6081009D01*
X8833333Y-6081009D02*
X8833333Y-6604819D01*
X8833333Y-6081009D02*
X8880952Y-5985771D01*
X8880952Y-5985771D02*
X8976190Y-5938152D01*
X8976190Y-5938152D02*
X9119047Y-5938152D01*
X9119047Y-5938152D02*
X9214286Y-5985771D01*
X9214286Y-5985771D02*
X9261905Y-6081009D01*
X9261905Y-6081009D02*
X9261905Y-6604819D01*
X9500000Y-6700057D02*
X10261904Y-6700057D01*
X10500000Y-6604819D02*
X10500000Y-5604819D01*
X10500000Y-5604819D02*
X10833333Y-6319104D01*
X10833333Y-6319104D02*
X11166666Y-5604819D01*
X11166666Y-5604819D02*
X11166666Y-6604819D01*
X11595238Y-5700057D02*
X11642857Y-5652438D01*
X11642857Y-5652438D02*
X11738095Y-5604819D01*
X11738095Y-5604819D02*
X11976190Y-5604819D01*
X11976190Y-5604819D02*
X12071428Y-5652438D01*
X12071428Y-5652438D02*
X12119047Y-5700057D01*
X12119047Y-5700057D02*
X12166666Y-5795295D01*
X12166666Y-5795295D02*
X12166666Y-5890533D01*
X12166666Y-5890533D02*
X12119047Y-6033390D01*
X12119047Y-6033390D02*
X11547619Y-6604819D01*
X11547619Y-6604819D02*
X12166666Y-6604819D01*
X2238095Y-3454819D02*
X2238095Y-2454819D01*
X2238095Y-2931009D02*
X2809523Y-2931009D01*
X2809523Y-3454819D02*
X2809523Y-2454819D01*
X3809523Y-3454819D02*
X3238095Y-3454819D01*
X3523809Y-3454819D02*
X3523809Y-2454819D01*
X3523809Y-2454819D02*
X3428571Y-2597676D01*
X3428571Y-2597676D02*
X3333333Y-2692914D01*
X3333333Y-2692914D02*
X3238095Y-2740533D01*
X2071429Y-15327200D02*
X2214286Y-15374819D01*
X2214286Y-15374819D02*
X2452381Y-15374819D01*
X2452381Y-15374819D02*
X2547619Y-15327200D01*
X2547619Y-15327200D02*
X2595238Y-15279580D01*
X2595238Y-15279580D02*
X2642857Y-15184342D01*
X2642857Y-15184342D02*
X2642857Y-15089104D01*
X2642857Y-15089104D02*
X2595238Y-14993866D01*
X2595238Y-14993866D02*
X2547619Y-14946247D01*
X2547619Y-14946247D02*
X2452381Y-14898628D01*
X2452381Y-14898628D02*
X2261905Y-14851009D01*
X2261905Y-14851009D02*
X2166667Y-14803390D01*
X2166667Y-14803390D02*
X2119048Y-14755771D01*
X2119048Y-14755771D02*
X2071429Y-14660533D01*
X2071429Y-14660533D02*
X2071429Y-14565295D01*
X2071429Y-14565295D02*
X2119048Y-14470057D01*
X2119048Y-14470057D02*
X2166667Y-14422438D01*
X2166667Y-14422438D02*
X2261905Y-14374819D01*
X2261905Y-14374819D02*
X2500000Y-14374819D01*
X2500000Y-14374819D02*
X2642857Y-14422438D01*
X3071429Y-15374819D02*
X3071429Y-14374819D01*
X3071429Y-14374819D02*
X3404762Y-15089104D01*
X3404762Y-15089104D02*
X3738095Y-14374819D01*
X3738095Y-14374819D02*
X3738095Y-15374819D01*
X4166667Y-15089104D02*
X4642857Y-15089104D01*
X4071429Y-15374819D02*
X4404762Y-14374819D01*
X4404762Y-14374819D02*
X4738095Y-15374819D01*
X4833334Y-15470057D02*
X5595238Y-15470057D01*
X5833334Y-15374819D02*
X5833334Y-14374819D01*
X6309524Y-15374819D02*
X6309524Y-14374819D01*
X6309524Y-14374819D02*
X6880952Y-15374819D01*
X6880952Y-15374819D02*
X6880952Y-14374819D01*
X3954819Y-11603333D02*
X4669104Y-11603333D01*
X4669104Y-11603333D02*
X4811961Y-11650952D01*
X4811961Y-11650952D02*
X4907200Y-11746190D01*
X4907200Y-11746190D02*
X4954819Y-11889047D01*
X4954819Y-11889047D02*
X4954819Y-11984285D01*
X4954819Y-10603333D02*
X4954819Y-11174761D01*
X4954819Y-10889047D02*
X3954819Y-10889047D01*
X3954819Y-10889047D02*
X4097676Y-10984285D01*
X4097676Y-10984285D02*
X4192914Y-11079523D01*
X4192914Y-11079523D02*
X4240533Y-11174761D01*
X12976191Y-11104819D02*
X13642857Y-11104819D01*
X13642857Y-11104819D02*
X13214286Y-12104819D01*
X14547619Y-12104819D02*
X13976191Y-12104819D01*
X14261905Y-12104819D02*
X14261905Y-11104819D01*
X14261905Y-11104819D02*
X14166667Y-11247676D01*
X14166667Y-11247676D02*
X14071429Y-11342914D01*
X14071429Y-11342914D02*
X13976191Y-11390533D01*
X14976191Y-12009580D02*
X15023810Y-12057200D01*
X15023810Y-12057200D02*
X14976191Y-12104819D01*
X14976191Y-12104819D02*
X14928572Y-12057200D01*
X14928572Y-12057200D02*
X14976191Y-12009580D01*
X14976191Y-12009580D02*
X14976191Y-12104819D01*
X15928571Y-11104819D02*
X15452381Y-11104819D01*
X15452381Y-11104819D02*
X15404762Y-11581009D01*
X15404762Y-11581009D02*
X15452381Y-11533390D01*
X15452381Y-11533390D02*
X15547619Y-11485771D01*
X15547619Y-11485771D02*
X15785714Y-11485771D01*
X15785714Y-11485771D02*
X15880952Y-11533390D01*
X15880952Y-11533390D02*
X15928571Y-11581009D01*
X15928571Y-11581009D02*
X15976190Y-11676247D01*
X15976190Y-11676247D02*
X15976190Y-11914342D01*
X15976190Y-11914342D02*
X15928571Y-12009580D01*
X15928571Y-12009580D02*
X15880952Y-12057200D01*
X15880952Y-12057200D02*
X15785714Y-12104819D01*
X15785714Y-12104819D02*
X15547619Y-12104819D01*
X15547619Y-12104819D02*
X15452381Y-12057200D01*
X15452381Y-12057200D02*
X15404762Y-12009580D01*
X16976190Y-12104819D02*
X16642857Y-11628628D01*
X16404762Y-12104819D02*
X16404762Y-11104819D01*
X16404762Y-11104819D02*
X16785714Y-11104819D01*
X16785714Y-11104819D02*
X16880952Y-11152438D01*
X16880952Y-11152438D02*
X16928571Y-11200057D01*
X16928571Y-11200057D02*
X16976190Y-11295295D01*
X16976190Y-11295295D02*
X16976190Y-11438152D01*
X16976190Y-11438152D02*
X16928571Y-11533390D01*
X16928571Y-11533390D02*
X16880952Y-11581009D01*
X16880952Y-11581009D02*
X16785714Y-11628628D01*
X16785714Y-11628628D02*
X16404762Y-11628628D01*
D11*
X14916666Y-10227149D02*
X14750000Y-9989054D01*
X14630952Y-10227149D02*
X14630952Y-9727149D01*
X14630952Y-9727149D02*
X14821428Y-9727149D01*
X14821428Y-9727149D02*
X14869047Y-9750959D01*
X14869047Y-9750959D02*
X14892857Y-9774768D01*
X14892857Y-9774768D02*
X14916666Y-9822387D01*
X14916666Y-9822387D02*
X14916666Y-9893816D01*
X14916666Y-9893816D02*
X14892857Y-9941435D01*
X14892857Y-9941435D02*
X14869047Y-9965244D01*
X14869047Y-9965244D02*
X14821428Y-9989054D01*
X14821428Y-9989054D02*
X14630952Y-9989054D01*
X15107143Y-9774768D02*
X15130952Y-9750959D01*
X15130952Y-9750959D02*
X15178571Y-9727149D01*
X15178571Y-9727149D02*
X15297619Y-9727149D01*
X15297619Y-9727149D02*
X15345238Y-9750959D01*
X15345238Y-9750959D02*
X15369047Y-9774768D01*
X15369047Y-9774768D02*
X15392857Y-9822387D01*
X15392857Y-9822387D02*
X15392857Y-9870006D01*
X15392857Y-9870006D02*
X15369047Y-9941435D01*
X15369047Y-9941435D02*
X15083333Y-10227149D01*
X15083333Y-10227149D02*
X15392857Y-10227149D01*
D10*
X22404762Y-15327200D02*
X22547619Y-15374819D01*
X22547619Y-15374819D02*
X22785714Y-15374819D01*
X22785714Y-15374819D02*
X22880952Y-15327200D01*
X22880952Y-15327200D02*
X22928571Y-15279580D01*
X22928571Y-15279580D02*
X22976190Y-15184342D01*
X22976190Y-15184342D02*
X22976190Y-15089104D01*
X22976190Y-15089104D02*
X22928571Y-14993866D01*
X22928571Y-14993866D02*
X22880952Y-14946247D01*
X22880952Y-14946247D02*
X22785714Y-14898628D01*
X22785714Y-14898628D02*
X22595238Y-14851009D01*
X22595238Y-14851009D02*
X22500000Y-14803390D01*
X22500000Y-14803390D02*
X22452381Y-14755771D01*
X22452381Y-14755771D02*
X22404762Y-14660533D01*
X22404762Y-14660533D02*
X22404762Y-14565295D01*
X22404762Y-14565295D02*
X22452381Y-14470057D01*
X22452381Y-14470057D02*
X22500000Y-14422438D01*
X22500000Y-14422438D02*
X22595238Y-14374819D01*
X22595238Y-14374819D02*
X22833333Y-14374819D01*
X22833333Y-14374819D02*
X22976190Y-14422438D01*
X23404762Y-15374819D02*
X23404762Y-14374819D01*
X23404762Y-14374819D02*
X23738095Y-15089104D01*
X23738095Y-15089104D02*
X24071428Y-14374819D01*
X24071428Y-14374819D02*
X24071428Y-15374819D01*
X24500000Y-15089104D02*
X24976190Y-15089104D01*
X24404762Y-15374819D02*
X24738095Y-14374819D01*
X24738095Y-14374819D02*
X25071428Y-15374819D01*
X25166667Y-15470057D02*
X25928571Y-15470057D01*
X26357143Y-14374819D02*
X26547619Y-14374819D01*
X26547619Y-14374819D02*
X26642857Y-14422438D01*
X26642857Y-14422438D02*
X26738095Y-14517676D01*
X26738095Y-14517676D02*
X26785714Y-14708152D01*
X26785714Y-14708152D02*
X26785714Y-15041485D01*
X26785714Y-15041485D02*
X26738095Y-15231961D01*
X26738095Y-15231961D02*
X26642857Y-15327200D01*
X26642857Y-15327200D02*
X26547619Y-15374819D01*
X26547619Y-15374819D02*
X26357143Y-15374819D01*
X26357143Y-15374819D02*
X26261905Y-15327200D01*
X26261905Y-15327200D02*
X26166667Y-15231961D01*
X26166667Y-15231961D02*
X26119048Y-15041485D01*
X26119048Y-15041485D02*
X26119048Y-14708152D01*
X26119048Y-14708152D02*
X26166667Y-14517676D01*
X26166667Y-14517676D02*
X26261905Y-14422438D01*
X26261905Y-14422438D02*
X26357143Y-14374819D01*
X27214286Y-14374819D02*
X27214286Y-15184342D01*
X27214286Y-15184342D02*
X27261905Y-15279580D01*
X27261905Y-15279580D02*
X27309524Y-15327200D01*
X27309524Y-15327200D02*
X27404762Y-15374819D01*
X27404762Y-15374819D02*
X27595238Y-15374819D01*
X27595238Y-15374819D02*
X27690476Y-15327200D01*
X27690476Y-15327200D02*
X27738095Y-15279580D01*
X27738095Y-15279580D02*
X27785714Y-15184342D01*
X27785714Y-15184342D02*
X27785714Y-14374819D01*
X28119048Y-14374819D02*
X28690476Y-14374819D01*
X28404762Y-15374819D02*
X28404762Y-14374819D01*
X24954819Y-11603333D02*
X25669104Y-11603333D01*
X25669104Y-11603333D02*
X25811961Y-11650952D01*
X25811961Y-11650952D02*
X25907200Y-11746190D01*
X25907200Y-11746190D02*
X25954819Y-11889047D01*
X25954819Y-11889047D02*
X25954819Y-11984285D01*
X25050057Y-11174761D02*
X25002438Y-11127142D01*
X25002438Y-11127142D02*
X24954819Y-11031904D01*
X24954819Y-11031904D02*
X24954819Y-10793809D01*
X24954819Y-10793809D02*
X25002438Y-10698571D01*
X25002438Y-10698571D02*
X25050057Y-10650952D01*
X25050057Y-10650952D02*
X25145295Y-10603333D01*
X25145295Y-10603333D02*
X25240533Y-10603333D01*
X25240533Y-10603333D02*
X25383390Y-10650952D01*
X25383390Y-10650952D02*
X25954819Y-11222380D01*
X25954819Y-11222380D02*
X25954819Y-10603333D01*
X18304819Y-12793451D02*
X18304819Y-12602975D01*
X18304819Y-12602975D02*
X18257200Y-12507737D01*
X18257200Y-12507737D02*
X18209580Y-12460118D01*
X18209580Y-12460118D02*
X18066723Y-12364880D01*
X18066723Y-12364880D02*
X17876247Y-12317261D01*
X17876247Y-12317261D02*
X17495295Y-12317261D01*
X17495295Y-12317261D02*
X17400057Y-12364880D01*
X17400057Y-12364880D02*
X17352438Y-12412499D01*
X17352438Y-12412499D02*
X17304819Y-12507737D01*
X17304819Y-12507737D02*
X17304819Y-12698213D01*
X17304819Y-12698213D02*
X17352438Y-12793451D01*
X17352438Y-12793451D02*
X17400057Y-12841070D01*
X17400057Y-12841070D02*
X17495295Y-12888689D01*
X17495295Y-12888689D02*
X17733390Y-12888689D01*
X17733390Y-12888689D02*
X17828628Y-12841070D01*
X17828628Y-12841070D02*
X17876247Y-12793451D01*
X17876247Y-12793451D02*
X17923866Y-12698213D01*
X17923866Y-12698213D02*
X17923866Y-12507737D01*
X17923866Y-12507737D02*
X17876247Y-12412499D01*
X17876247Y-12412499D02*
X17828628Y-12364880D01*
X17828628Y-12364880D02*
X17733390Y-12317261D01*
X17304819Y-11412499D02*
X17304819Y-11888689D01*
X17304819Y-11888689D02*
X17781009Y-11936308D01*
X17781009Y-11936308D02*
X17733390Y-11888689D01*
X17733390Y-11888689D02*
X17685771Y-11793451D01*
X17685771Y-11793451D02*
X17685771Y-11555356D01*
X17685771Y-11555356D02*
X17733390Y-11460118D01*
X17733390Y-11460118D02*
X17781009Y-11412499D01*
X17781009Y-11412499D02*
X17876247Y-11364880D01*
X17876247Y-11364880D02*
X18114342Y-11364880D01*
X18114342Y-11364880D02*
X18209580Y-11412499D01*
X18209580Y-11412499D02*
X18257200Y-11460118D01*
X18257200Y-11460118D02*
X18304819Y-11555356D01*
X18304819Y-11555356D02*
X18304819Y-11793451D01*
X18304819Y-11793451D02*
X18257200Y-11888689D01*
X18257200Y-11888689D02*
X18209580Y-11936308D01*
X18209580Y-10936308D02*
X18257200Y-10888689D01*
X18257200Y-10888689D02*
X18304819Y-10936308D01*
X18304819Y-10936308D02*
X18257200Y-10983927D01*
X18257200Y-10983927D02*
X18209580Y-10936308D01*
X18209580Y-10936308D02*
X18304819Y-10936308D01*
X17304819Y-10555356D02*
X17304819Y-9936309D01*
X17304819Y-9936309D02*
X17685771Y-10269642D01*
X17685771Y-10269642D02*
X17685771Y-10126785D01*
X17685771Y-10126785D02*
X17733390Y-10031547D01*
X17733390Y-10031547D02*
X17781009Y-9983928D01*
X17781009Y-9983928D02*
X17876247Y-9936309D01*
X17876247Y-9936309D02*
X18114342Y-9936309D01*
X18114342Y-9936309D02*
X18209580Y-9983928D01*
X18209580Y-9983928D02*
X18257200Y-10031547D01*
X18257200Y-10031547D02*
X18304819Y-10126785D01*
X18304819Y-10126785D02*
X18304819Y-10412499D01*
X18304819Y-10412499D02*
X18257200Y-10507737D01*
X18257200Y-10507737D02*
X18209580Y-10555356D01*
X18304819Y-8936309D02*
X17828628Y-9269642D01*
X18304819Y-9507737D02*
X17304819Y-9507737D01*
X17304819Y-9507737D02*
X17304819Y-9126785D01*
X17304819Y-9126785D02*
X17352438Y-9031547D01*
X17352438Y-9031547D02*
X17400057Y-8983928D01*
X17400057Y-8983928D02*
X17495295Y-8936309D01*
X17495295Y-8936309D02*
X17638152Y-8936309D01*
X17638152Y-8936309D02*
X17733390Y-8983928D01*
X17733390Y-8983928D02*
X17781009Y-9031547D01*
X17781009Y-9031547D02*
X17828628Y-9126785D01*
X17828628Y-9126785D02*
X17828628Y-9507737D01*
D11*
X19727149Y-10995833D02*
X19489054Y-11162499D01*
X19727149Y-11281547D02*
X19227149Y-11281547D01*
X19227149Y-11281547D02*
X19227149Y-11091071D01*
X19227149Y-11091071D02*
X19250959Y-11043452D01*
X19250959Y-11043452D02*
X19274768Y-11019642D01*
X19274768Y-11019642D02*
X19322387Y-10995833D01*
X19322387Y-10995833D02*
X19393816Y-10995833D01*
X19393816Y-10995833D02*
X19441435Y-11019642D01*
X19441435Y-11019642D02*
X19465244Y-11043452D01*
X19465244Y-11043452D02*
X19489054Y-11091071D01*
X19489054Y-11091071D02*
X19489054Y-11281547D01*
X19227149Y-10829166D02*
X19227149Y-10519642D01*
X19227149Y-10519642D02*
X19417625Y-10686309D01*
X19417625Y-10686309D02*
X19417625Y-10614880D01*
X19417625Y-10614880D02*
X19441435Y-10567261D01*
X19441435Y-10567261D02*
X19465244Y-10543452D01*
X19465244Y-10543452D02*
X19512863Y-10519642D01*
X19512863Y-10519642D02*
X19631911Y-10519642D01*
X19631911Y-10519642D02*
X19679530Y-10543452D01*
X19679530Y-10543452D02*
X19703340Y-10567261D01*
X19703340Y-10567261D02*
X19727149Y-10614880D01*
X19727149Y-10614880D02*
X19727149Y-10757737D01*
X19727149Y-10757737D02*
X19703340Y-10805356D01*
X19703340Y-10805356D02*
X19679530Y-10829166D01*
D10*
X9304819Y-12793451D02*
X9304819Y-12602975D01*
X9304819Y-12602975D02*
X9257200Y-12507737D01*
X9257200Y-12507737D02*
X9209580Y-12460118D01*
X9209580Y-12460118D02*
X9066723Y-12364880D01*
X9066723Y-12364880D02*
X8876247Y-12317261D01*
X8876247Y-12317261D02*
X8495295Y-12317261D01*
X8495295Y-12317261D02*
X8400057Y-12364880D01*
X8400057Y-12364880D02*
X8352438Y-12412499D01*
X8352438Y-12412499D02*
X8304819Y-12507737D01*
X8304819Y-12507737D02*
X8304819Y-12698213D01*
X8304819Y-12698213D02*
X8352438Y-12793451D01*
X8352438Y-12793451D02*
X8400057Y-12841070D01*
X8400057Y-12841070D02*
X8495295Y-12888689D01*
X8495295Y-12888689D02*
X8733390Y-12888689D01*
X8733390Y-12888689D02*
X8828628Y-12841070D01*
X8828628Y-12841070D02*
X8876247Y-12793451D01*
X8876247Y-12793451D02*
X8923866Y-12698213D01*
X8923866Y-12698213D02*
X8923866Y-12507737D01*
X8923866Y-12507737D02*
X8876247Y-12412499D01*
X8876247Y-12412499D02*
X8828628Y-12364880D01*
X8828628Y-12364880D02*
X8733390Y-12317261D01*
X8304819Y-11412499D02*
X8304819Y-11888689D01*
X8304819Y-11888689D02*
X8781009Y-11936308D01*
X8781009Y-11936308D02*
X8733390Y-11888689D01*
X8733390Y-11888689D02*
X8685771Y-11793451D01*
X8685771Y-11793451D02*
X8685771Y-11555356D01*
X8685771Y-11555356D02*
X8733390Y-11460118D01*
X8733390Y-11460118D02*
X8781009Y-11412499D01*
X8781009Y-11412499D02*
X8876247Y-11364880D01*
X8876247Y-11364880D02*
X9114342Y-11364880D01*
X9114342Y-11364880D02*
X9209580Y-11412499D01*
X9209580Y-11412499D02*
X9257200Y-11460118D01*
X9257200Y-11460118D02*
X9304819Y-11555356D01*
X9304819Y-11555356D02*
X9304819Y-11793451D01*
X9304819Y-11793451D02*
X9257200Y-11888689D01*
X9257200Y-11888689D02*
X9209580Y-11936308D01*
X9209580Y-10936308D02*
X9257200Y-10888689D01*
X9257200Y-10888689D02*
X9304819Y-10936308D01*
X9304819Y-10936308D02*
X9257200Y-10983927D01*
X9257200Y-10983927D02*
X9209580Y-10936308D01*
X9209580Y-10936308D02*
X9304819Y-10936308D01*
X8304819Y-10555356D02*
X8304819Y-9936309D01*
X8304819Y-9936309D02*
X8685771Y-10269642D01*
X8685771Y-10269642D02*
X8685771Y-10126785D01*
X8685771Y-10126785D02*
X8733390Y-10031547D01*
X8733390Y-10031547D02*
X8781009Y-9983928D01*
X8781009Y-9983928D02*
X8876247Y-9936309D01*
X8876247Y-9936309D02*
X9114342Y-9936309D01*
X9114342Y-9936309D02*
X9209580Y-9983928D01*
X9209580Y-9983928D02*
X9257200Y-10031547D01*
X9257200Y-10031547D02*
X9304819Y-10126785D01*
X9304819Y-10126785D02*
X9304819Y-10412499D01*
X9304819Y-10412499D02*
X9257200Y-10507737D01*
X9257200Y-10507737D02*
X9209580Y-10555356D01*
X9304819Y-8936309D02*
X8828628Y-9269642D01*
X9304819Y-9507737D02*
X8304819Y-9507737D01*
X8304819Y-9507737D02*
X8304819Y-9126785D01*
X8304819Y-9126785D02*
X8352438Y-9031547D01*
X8352438Y-9031547D02*
X8400057Y-8983928D01*
X8400057Y-8983928D02*
X8495295Y-8936309D01*
X8495295Y-8936309D02*
X8638152Y-8936309D01*
X8638152Y-8936309D02*
X8733390Y-8983928D01*
X8733390Y-8983928D02*
X8781009Y-9031547D01*
X8781009Y-9031547D02*
X8828628Y-9126785D01*
X8828628Y-9126785D02*
X8828628Y-9507737D01*
D11*
X10727149Y-10995833D02*
X10489054Y-11162499D01*
X10727149Y-11281547D02*
X10227149Y-11281547D01*
X10227149Y-11281547D02*
X10227149Y-11091071D01*
X10227149Y-11091071D02*
X10250959Y-11043452D01*
X10250959Y-11043452D02*
X10274768Y-11019642D01*
X10274768Y-11019642D02*
X10322387Y-10995833D01*
X10322387Y-10995833D02*
X10393816Y-10995833D01*
X10393816Y-10995833D02*
X10441435Y-11019642D01*
X10441435Y-11019642D02*
X10465244Y-11043452D01*
X10465244Y-11043452D02*
X10489054Y-11091071D01*
X10489054Y-11091071D02*
X10489054Y-11281547D01*
X10727149Y-10519642D02*
X10727149Y-10805356D01*
X10727149Y-10662499D02*
X10227149Y-10662499D01*
X10227149Y-10662499D02*
X10298578Y-10710118D01*
X10298578Y-10710118D02*
X10346197Y-10757737D01*
X10346197Y-10757737D02*
X10370006Y-10805356D01*
D10*
X17880952Y-20604819D02*
X17880952Y-19604819D01*
X17880952Y-19604819D02*
X18214285Y-20319104D01*
X18214285Y-20319104D02*
X18547618Y-19604819D01*
X18547618Y-19604819D02*
X18547618Y-20604819D01*
X19166666Y-20604819D02*
X19071428Y-20557200D01*
X19071428Y-20557200D02*
X19023809Y-20509580D01*
X19023809Y-20509580D02*
X18976190Y-20414342D01*
X18976190Y-20414342D02*
X18976190Y-20128628D01*
X18976190Y-20128628D02*
X19023809Y-20033390D01*
X19023809Y-20033390D02*
X19071428Y-19985771D01*
X19071428Y-19985771D02*
X19166666Y-19938152D01*
X19166666Y-19938152D02*
X19309523Y-19938152D01*
X19309523Y-19938152D02*
X19404761Y-19985771D01*
X19404761Y-19985771D02*
X19452380Y-20033390D01*
X19452380Y-20033390D02*
X19499999Y-20128628D01*
X19499999Y-20128628D02*
X19499999Y-20414342D01*
X19499999Y-20414342D02*
X19452380Y-20509580D01*
X19452380Y-20509580D02*
X19404761Y-20557200D01*
X19404761Y-20557200D02*
X19309523Y-20604819D01*
X19309523Y-20604819D02*
X19166666Y-20604819D01*
X20357142Y-19938152D02*
X20357142Y-20604819D01*
X19928571Y-19938152D02*
X19928571Y-20461961D01*
X19928571Y-20461961D02*
X19976190Y-20557200D01*
X19976190Y-20557200D02*
X20071428Y-20604819D01*
X20071428Y-20604819D02*
X20214285Y-20604819D01*
X20214285Y-20604819D02*
X20309523Y-20557200D01*
X20309523Y-20557200D02*
X20357142Y-20509580D01*
X20833333Y-19938152D02*
X20833333Y-20604819D01*
X20833333Y-20033390D02*
X20880952Y-19985771D01*
X20880952Y-19985771D02*
X20976190Y-19938152D01*
X20976190Y-19938152D02*
X21119047Y-19938152D01*
X21119047Y-19938152D02*
X21214285Y-19985771D01*
X21214285Y-19985771D02*
X21261904Y-20081009D01*
X21261904Y-20081009D02*
X21261904Y-20604819D01*
X21595238Y-19938152D02*
X21976190Y-19938152D01*
X21738095Y-19604819D02*
X21738095Y-20461961D01*
X21738095Y-20461961D02*
X21785714Y-20557200D01*
X21785714Y-20557200D02*
X21880952Y-20604819D01*
X21880952Y-20604819D02*
X21976190Y-20604819D01*
X22309524Y-20604819D02*
X22309524Y-19938152D01*
X22309524Y-19604819D02*
X22261905Y-19652438D01*
X22261905Y-19652438D02*
X22309524Y-19700057D01*
X22309524Y-19700057D02*
X22357143Y-19652438D01*
X22357143Y-19652438D02*
X22309524Y-19604819D01*
X22309524Y-19604819D02*
X22309524Y-19700057D01*
X22785714Y-19938152D02*
X22785714Y-20604819D01*
X22785714Y-20033390D02*
X22833333Y-19985771D01*
X22833333Y-19985771D02*
X22928571Y-19938152D01*
X22928571Y-19938152D02*
X23071428Y-19938152D01*
X23071428Y-19938152D02*
X23166666Y-19985771D01*
X23166666Y-19985771D02*
X23214285Y-20081009D01*
X23214285Y-20081009D02*
X23214285Y-20604819D01*
X24119047Y-19938152D02*
X24119047Y-20747676D01*
X24119047Y-20747676D02*
X24071428Y-20842914D01*
X24071428Y-20842914D02*
X24023809Y-20890533D01*
X24023809Y-20890533D02*
X23928571Y-20938152D01*
X23928571Y-20938152D02*
X23785714Y-20938152D01*
X23785714Y-20938152D02*
X23690476Y-20890533D01*
X24119047Y-20557200D02*
X24023809Y-20604819D01*
X24023809Y-20604819D02*
X23833333Y-20604819D01*
X23833333Y-20604819D02*
X23738095Y-20557200D01*
X23738095Y-20557200D02*
X23690476Y-20509580D01*
X23690476Y-20509580D02*
X23642857Y-20414342D01*
X23642857Y-20414342D02*
X23642857Y-20128628D01*
X23642857Y-20128628D02*
X23690476Y-20033390D01*
X23690476Y-20033390D02*
X23738095Y-19985771D01*
X23738095Y-19985771D02*
X23833333Y-19938152D01*
X23833333Y-19938152D02*
X24023809Y-19938152D01*
X24023809Y-19938152D02*
X24119047Y-19985771D01*
X24595238Y-20604819D02*
X24595238Y-19604819D01*
X24595238Y-20081009D02*
X25166666Y-20081009D01*
X25166666Y-20604819D02*
X25166666Y-19604819D01*
X25785714Y-20604819D02*
X25690476Y-20557200D01*
X25690476Y-20557200D02*
X25642857Y-20509580D01*
X25642857Y-20509580D02*
X25595238Y-20414342D01*
X25595238Y-20414342D02*
X25595238Y-20128628D01*
X25595238Y-20128628D02*
X25642857Y-20033390D01*
X25642857Y-20033390D02*
X25690476Y-19985771D01*
X25690476Y-19985771D02*
X25785714Y-19938152D01*
X25785714Y-19938152D02*
X25928571Y-19938152D01*
X25928571Y-19938152D02*
X26023809Y-19985771D01*
X26023809Y-19985771D02*
X26071428Y-20033390D01*
X26071428Y-20033390D02*
X26119047Y-20128628D01*
X26119047Y-20128628D02*
X26119047Y-20414342D01*
X26119047Y-20414342D02*
X26071428Y-20509580D01*
X26071428Y-20509580D02*
X26023809Y-20557200D01*
X26023809Y-20557200D02*
X25928571Y-20604819D01*
X25928571Y-20604819D02*
X25785714Y-20604819D01*
X26690476Y-20604819D02*
X26595238Y-20557200D01*
X26595238Y-20557200D02*
X26547619Y-20461961D01*
X26547619Y-20461961D02*
X26547619Y-19604819D01*
X27452381Y-20557200D02*
X27357143Y-20604819D01*
X27357143Y-20604819D02*
X27166667Y-20604819D01*
X27166667Y-20604819D02*
X27071429Y-20557200D01*
X27071429Y-20557200D02*
X27023810Y-20461961D01*
X27023810Y-20461961D02*
X27023810Y-20081009D01*
X27023810Y-20081009D02*
X27071429Y-19985771D01*
X27071429Y-19985771D02*
X27166667Y-19938152D01*
X27166667Y-19938152D02*
X27357143Y-19938152D01*
X27357143Y-19938152D02*
X27452381Y-19985771D01*
X27452381Y-19985771D02*
X27500000Y-20081009D01*
X27500000Y-20081009D02*
X27500000Y-20176247D01*
X27500000Y-20176247D02*
X27023810Y-20271485D01*
X27690477Y-20700057D02*
X28452381Y-20700057D01*
X28642858Y-19700057D02*
X28690477Y-19652438D01*
X28690477Y-19652438D02*
X28785715Y-19604819D01*
X28785715Y-19604819D02*
X29023810Y-19604819D01*
X29023810Y-19604819D02*
X29119048Y-19652438D01*
X29119048Y-19652438D02*
X29166667Y-19700057D01*
X29166667Y-19700057D02*
X29214286Y-19795295D01*
X29214286Y-19795295D02*
X29214286Y-19890533D01*
X29214286Y-19890533D02*
X29166667Y-20033390D01*
X29166667Y-20033390D02*
X28595239Y-20604819D01*
X28595239Y-20604819D02*
X29214286Y-20604819D01*
X29642858Y-20509580D02*
X29690477Y-20557200D01*
X29690477Y-20557200D02*
X29642858Y-20604819D01*
X29642858Y-20604819D02*
X29595239Y-20557200D01*
X29595239Y-20557200D02*
X29642858Y-20509580D01*
X29642858Y-20509580D02*
X29642858Y-20604819D01*
X30071429Y-19700057D02*
X30119048Y-19652438D01*
X30119048Y-19652438D02*
X30214286Y-19604819D01*
X30214286Y-19604819D02*
X30452381Y-19604819D01*
X30452381Y-19604819D02*
X30547619Y-19652438D01*
X30547619Y-19652438D02*
X30595238Y-19700057D01*
X30595238Y-19700057D02*
X30642857Y-19795295D01*
X30642857Y-19795295D02*
X30642857Y-19890533D01*
X30642857Y-19890533D02*
X30595238Y-20033390D01*
X30595238Y-20033390D02*
X30023810Y-20604819D01*
X30023810Y-20604819D02*
X30642857Y-20604819D01*
X31071429Y-20604819D02*
X31071429Y-19938152D01*
X31071429Y-20033390D02*
X31119048Y-19985771D01*
X31119048Y-19985771D02*
X31214286Y-19938152D01*
X31214286Y-19938152D02*
X31357143Y-19938152D01*
X31357143Y-19938152D02*
X31452381Y-19985771D01*
X31452381Y-19985771D02*
X31500000Y-20081009D01*
X31500000Y-20081009D02*
X31500000Y-20604819D01*
X31500000Y-20081009D02*
X31547619Y-19985771D01*
X31547619Y-19985771D02*
X31642857Y-19938152D01*
X31642857Y-19938152D02*
X31785714Y-19938152D01*
X31785714Y-19938152D02*
X31880953Y-19985771D01*
X31880953Y-19985771D02*
X31928572Y-20081009D01*
X31928572Y-20081009D02*
X31928572Y-20604819D01*
X32404762Y-20604819D02*
X32404762Y-19938152D01*
X32404762Y-20033390D02*
X32452381Y-19985771D01*
X32452381Y-19985771D02*
X32547619Y-19938152D01*
X32547619Y-19938152D02*
X32690476Y-19938152D01*
X32690476Y-19938152D02*
X32785714Y-19985771D01*
X32785714Y-19985771D02*
X32833333Y-20081009D01*
X32833333Y-20081009D02*
X32833333Y-20604819D01*
X32833333Y-20081009D02*
X32880952Y-19985771D01*
X32880952Y-19985771D02*
X32976190Y-19938152D01*
X32976190Y-19938152D02*
X33119047Y-19938152D01*
X33119047Y-19938152D02*
X33214286Y-19985771D01*
X33214286Y-19985771D02*
X33261905Y-20081009D01*
X33261905Y-20081009D02*
X33261905Y-20604819D01*
X33500000Y-20700057D02*
X34261904Y-20700057D01*
X34500000Y-20604819D02*
X34500000Y-19604819D01*
X34500000Y-19604819D02*
X34833333Y-20319104D01*
X34833333Y-20319104D02*
X35166666Y-19604819D01*
X35166666Y-19604819D02*
X35166666Y-20604819D01*
X35595238Y-19700057D02*
X35642857Y-19652438D01*
X35642857Y-19652438D02*
X35738095Y-19604819D01*
X35738095Y-19604819D02*
X35976190Y-19604819D01*
X35976190Y-19604819D02*
X36071428Y-19652438D01*
X36071428Y-19652438D02*
X36119047Y-19700057D01*
X36119047Y-19700057D02*
X36166666Y-19795295D01*
X36166666Y-19795295D02*
X36166666Y-19890533D01*
X36166666Y-19890533D02*
X36119047Y-20033390D01*
X36119047Y-20033390D02*
X35547619Y-20604819D01*
X35547619Y-20604819D02*
X36166666Y-20604819D01*
X26238095Y-17454819D02*
X26238095Y-16454819D01*
X26238095Y-16931009D02*
X26809523Y-16931009D01*
X26809523Y-17454819D02*
X26809523Y-16454819D01*
X27238095Y-16550057D02*
X27285714Y-16502438D01*
X27285714Y-16502438D02*
X27380952Y-16454819D01*
X27380952Y-16454819D02*
X27619047Y-16454819D01*
X27619047Y-16454819D02*
X27714285Y-16502438D01*
X27714285Y-16502438D02*
X27761904Y-16550057D01*
X27761904Y-16550057D02*
X27809523Y-16645295D01*
X27809523Y-16645295D02*
X27809523Y-16740533D01*
X27809523Y-16740533D02*
X27761904Y-16883390D01*
X27761904Y-16883390D02*
X27190476Y-17454819D01*
X27190476Y-17454819D02*
X27809523Y-17454819D01*
%TO.C,J1*%
D12*
X3230000Y-9365000D02*
X3865000Y-8730000D01*
X3230000Y-13810000D02*
X3230000Y-9365000D01*
X3865000Y-8730000D02*
X5770000Y-8730000D01*
X5770000Y-8730000D02*
X5770000Y-13810000D01*
X5770000Y-13810000D02*
X3230000Y-13810000D01*
%TO.C,R2*%
X14000000Y-9375000D02*
X16000000Y-9375000D01*
X16000000Y-10625000D01*
X14000000Y-10625000D01*
X14000000Y-9375000D01*
%TO.C,J2*%
X24230000Y-9365000D02*
X24865000Y-8730000D01*
X24230000Y-13810000D02*
X24230000Y-9365000D01*
X24865000Y-8730000D02*
X26770000Y-8730000D01*
X26770000Y-8730000D02*
X26770000Y-13810000D01*
X26770000Y-13810000D02*
X24230000Y-13810000D01*
%TO.C,R3*%
X18875000Y-9912500D02*
X20125000Y-9912500D01*
X20125000Y-11912500D01*
X18875000Y-11912500D01*
X18875000Y-9912500D01*
%TO.C,R1*%
X9875000Y-9912500D02*
X11125000Y-9912500D01*
X11125000Y-11912500D01*
X9875000Y-11912500D01*
X9875000Y-9912500D01*
%TD*%
M02*
