M48
; DRILL file KiCad 10.0.4-10.0.4~ubuntu25.10.1 date 2026-09-08T23:47:44
; FORMAT={-:-/ absolute / metric / decimal}
; #@! TF.CreationDate,2026-09-08T23:47:44+00:00
; #@! TF.GenerationSoftware,Kicad,Pcbnew,10.0.4-10.0.4~ubuntu25.10.1
; #@! TF.FileFunction,MixedPlating,1,2
FMAT,2
METRIC
; #@! TA.AperFunction,Plated,PTH,ViaDrill
T1C0.400
; #@! TA.AperFunction,Plated,PTH,ComponentDrill
T2C1.000
; #@! TA.AperFunction,NonPlated,NPTH,ComponentDrill
T3C2.200
%
G90
G05
T1
X4.5Y-13.74
X5.5Y-7.2
X5.5Y-15.0
X6.0Y-2.0
X6.0Y-18.0
X8.0Y-15.0
X9.0Y-7.2
X10.0Y-2.0
X10.0Y-18.0
X10.5Y-13.025
X12.5Y-7.2
X13.0Y-15.0
X14.0Y-2.0
X14.0Y-18.0
X15.0Y-7.2
X15.0Y-15.0
X17.0Y-15.0
X17.5Y-7.2
X18.0Y-2.0
X18.0Y-18.0
X19.5Y-13.025
X21.0Y-7.2
X22.0Y-2.0
X22.0Y-15.0
X22.0Y-18.0
X24.5Y-7.2
X24.5Y-15.0
X25.5Y-13.74
T2
X4.5Y-10.0
X4.5Y-12.54
X25.5Y-10.0
X25.5Y-12.54
T3
X3.0Y-3.0
X27.0Y-17.0
M30
