%TF.GenerationSoftware,KiCad,Pcbnew,10.0.4-10.0.4~ubuntu25.10.1*%
%TF.CreationDate,2026-09-08T23:47:43+00:00*%
%TF.ProjectId,attenuator_10db,61747465-6e75-4617-946f-725f31306462,rev?*%
%TF.SameCoordinates,Original*%
%TF.FileFunction,Legend,Top*%
%TF.FilePolarity,Positive*%
%FSLAX46Y46*%
G04 Gerber Fmt 4.6, Leading zero omitted, Abs format (unit mm)*
G04 Created by KiCad (PCBNEW 10.0.4-10.0.4~ubuntu25.10.1) date 2026-09-08 23:47:43*
%MOMM*%
%LPD*%
G01*
G04 APERTURE LIST*
%ADD10C,0.100000*%
%ADD11C,0.125000*%
%ADD12C,0.150000*%
%ADD13C,0.120000*%
G04 APERTURE END LIST*
D10*
X2480952Y-6364895D02*
X2480952Y-5564895D01*
X2480952Y-5564895D02*
X2785714Y-5564895D01*
X2785714Y-5564895D02*
X2861904Y-5602990D01*
X2861904Y-5602990D02*
X2899999Y-5641085D01*
X2899999Y-5641085D02*
X2938095Y-5717276D01*
X2938095Y-5717276D02*
X2938095Y-5831561D01*
X2938095Y-5831561D02*
X2899999Y-5907752D01*
X2899999Y-5907752D02*
X2861904Y-5945847D01*
X2861904Y-5945847D02*
X2785714Y-5983942D01*
X2785714Y-5983942D02*
X2480952Y-5983942D01*
X3433333Y-5564895D02*
X3585714Y-5564895D01*
X3585714Y-5564895D02*
X3661904Y-5602990D01*
X3661904Y-5602990D02*
X3738095Y-5679180D01*
X3738095Y-5679180D02*
X3776190Y-5831561D01*
X3776190Y-5831561D02*
X3776190Y-6098228D01*
X3776190Y-6098228D02*
X3738095Y-6250609D01*
X3738095Y-6250609D02*
X3661904Y-6326800D01*
X3661904Y-6326800D02*
X3585714Y-6364895D01*
X3585714Y-6364895D02*
X3433333Y-6364895D01*
X3433333Y-6364895D02*
X3357142Y-6326800D01*
X3357142Y-6326800D02*
X3280952Y-6250609D01*
X3280952Y-6250609D02*
X3242856Y-6098228D01*
X3242856Y-6098228D02*
X3242856Y-5831561D01*
X3242856Y-5831561D02*
X3280952Y-5679180D01*
X3280952Y-5679180D02*
X3357142Y-5602990D01*
X3357142Y-5602990D02*
X3433333Y-5564895D01*
X4576190Y-6364895D02*
X4309523Y-5983942D01*
X4119047Y-6364895D02*
X4119047Y-5564895D01*
X4119047Y-5564895D02*
X4423809Y-5564895D01*
X4423809Y-5564895D02*
X4499999Y-5602990D01*
X4499999Y-5602990D02*
X4538094Y-5641085D01*
X4538094Y-5641085D02*
X4576190Y-5717276D01*
X4576190Y-5717276D02*
X4576190Y-5831561D01*
X4576190Y-5831561D02*
X4538094Y-5907752D01*
X4538094Y-5907752D02*
X4499999Y-5945847D01*
X4499999Y-5945847D02*
X4423809Y-5983942D01*
X4423809Y-5983942D02*
X4119047Y-5983942D01*
X4804761Y-5564895D02*
X5261904Y-5564895D01*
X5033332Y-6364895D02*
X5033332Y-5564895D01*
X6557142Y-6364895D02*
X6099999Y-6364895D01*
X6328571Y-6364895D02*
X6328571Y-5564895D01*
X6328571Y-5564895D02*
X6252380Y-5679180D01*
X6252380Y-5679180D02*
X6176190Y-5755371D01*
X6176190Y-5755371D02*
X6099999Y-5793466D01*
X6380951Y-16364895D02*
X5999999Y-16364895D01*
X5999999Y-16364895D02*
X5961903Y-16745847D01*
X5961903Y-16745847D02*
X5999999Y-16707752D01*
X5999999Y-16707752D02*
X6076189Y-16669657D01*
X6076189Y-16669657D02*
X6266665Y-16669657D01*
X6266665Y-16669657D02*
X6342856Y-16707752D01*
X6342856Y-16707752D02*
X6380951Y-16745847D01*
X6380951Y-16745847D02*
X6419046Y-16822038D01*
X6419046Y-16822038D02*
X6419046Y-17012514D01*
X6419046Y-17012514D02*
X6380951Y-17088704D01*
X6380951Y-17088704D02*
X6342856Y-17126800D01*
X6342856Y-17126800D02*
X6266665Y-17164895D01*
X6266665Y-17164895D02*
X6076189Y-17164895D01*
X6076189Y-17164895D02*
X5999999Y-17126800D01*
X5999999Y-17126800D02*
X5961903Y-17088704D01*
X6914285Y-16364895D02*
X6990475Y-16364895D01*
X6990475Y-16364895D02*
X7066666Y-16402990D01*
X7066666Y-16402990D02*
X7104761Y-16441085D01*
X7104761Y-16441085D02*
X7142856Y-16517276D01*
X7142856Y-16517276D02*
X7180951Y-16669657D01*
X7180951Y-16669657D02*
X7180951Y-16860133D01*
X7180951Y-16860133D02*
X7142856Y-17012514D01*
X7142856Y-17012514D02*
X7104761Y-17088704D01*
X7104761Y-17088704D02*
X7066666Y-17126800D01*
X7066666Y-17126800D02*
X6990475Y-17164895D01*
X6990475Y-17164895D02*
X6914285Y-17164895D01*
X6914285Y-17164895D02*
X6838094Y-17126800D01*
X6838094Y-17126800D02*
X6799999Y-17088704D01*
X6799999Y-17088704D02*
X6761904Y-17012514D01*
X6761904Y-17012514D02*
X6723808Y-16860133D01*
X6723808Y-16860133D02*
X6723808Y-16669657D01*
X6723808Y-16669657D02*
X6761904Y-16517276D01*
X6761904Y-16517276D02*
X6799999Y-16441085D01*
X6799999Y-16441085D02*
X6838094Y-16402990D01*
X6838094Y-16402990D02*
X6914285Y-16364895D01*
X7485713Y-17164895D02*
X7676190Y-17164895D01*
X7676190Y-17164895D02*
X7676190Y-17012514D01*
X7676190Y-17012514D02*
X7599999Y-16974419D01*
X7599999Y-16974419D02*
X7523809Y-16898228D01*
X7523809Y-16898228D02*
X7485713Y-16783942D01*
X7485713Y-16783942D02*
X7485713Y-16593466D01*
X7485713Y-16593466D02*
X7523809Y-16479180D01*
X7523809Y-16479180D02*
X7599999Y-16402990D01*
X7599999Y-16402990D02*
X7714285Y-16364895D01*
X7714285Y-16364895D02*
X7866666Y-16364895D01*
X7866666Y-16364895D02*
X7980952Y-16402990D01*
X7980952Y-16402990D02*
X8057142Y-16479180D01*
X8057142Y-16479180D02*
X8095237Y-16593466D01*
X8095237Y-16593466D02*
X8095237Y-16783942D01*
X8095237Y-16783942D02*
X8057142Y-16898228D01*
X8057142Y-16898228D02*
X7980952Y-16974419D01*
X7980952Y-16974419D02*
X7904761Y-17012514D01*
X7904761Y-17012514D02*
X7904761Y-17164895D01*
X7904761Y-17164895D02*
X8095237Y-17164895D01*
X9504762Y-17088704D02*
X9466666Y-17126800D01*
X9466666Y-17126800D02*
X9352381Y-17164895D01*
X9352381Y-17164895D02*
X9276190Y-17164895D01*
X9276190Y-17164895D02*
X9161904Y-17126800D01*
X9161904Y-17126800D02*
X9085714Y-17050609D01*
X9085714Y-17050609D02*
X9047619Y-16974419D01*
X9047619Y-16974419D02*
X9009523Y-16822038D01*
X9009523Y-16822038D02*
X9009523Y-16707752D01*
X9009523Y-16707752D02*
X9047619Y-16555371D01*
X9047619Y-16555371D02*
X9085714Y-16479180D01*
X9085714Y-16479180D02*
X9161904Y-16402990D01*
X9161904Y-16402990D02*
X9276190Y-16364895D01*
X9276190Y-16364895D02*
X9352381Y-16364895D01*
X9352381Y-16364895D02*
X9466666Y-16402990D01*
X9466666Y-16402990D02*
X9504762Y-16441085D01*
X9847619Y-17164895D02*
X9847619Y-16364895D01*
X9847619Y-16364895D02*
X10152381Y-16364895D01*
X10152381Y-16364895D02*
X10228571Y-16402990D01*
X10228571Y-16402990D02*
X10266666Y-16441085D01*
X10266666Y-16441085D02*
X10304762Y-16517276D01*
X10304762Y-16517276D02*
X10304762Y-16631561D01*
X10304762Y-16631561D02*
X10266666Y-16707752D01*
X10266666Y-16707752D02*
X10228571Y-16745847D01*
X10228571Y-16745847D02*
X10152381Y-16783942D01*
X10152381Y-16783942D02*
X9847619Y-16783942D01*
X10571428Y-16364895D02*
X10761904Y-17164895D01*
X10761904Y-17164895D02*
X10914285Y-16593466D01*
X10914285Y-16593466D02*
X11066666Y-17164895D01*
X11066666Y-17164895D02*
X11257143Y-16364895D01*
X11980952Y-16402990D02*
X11904762Y-16364895D01*
X11904762Y-16364895D02*
X11790476Y-16364895D01*
X11790476Y-16364895D02*
X11676190Y-16402990D01*
X11676190Y-16402990D02*
X11600000Y-16479180D01*
X11600000Y-16479180D02*
X11561905Y-16555371D01*
X11561905Y-16555371D02*
X11523809Y-16707752D01*
X11523809Y-16707752D02*
X11523809Y-16822038D01*
X11523809Y-16822038D02*
X11561905Y-16974419D01*
X11561905Y-16974419D02*
X11600000Y-17050609D01*
X11600000Y-17050609D02*
X11676190Y-17126800D01*
X11676190Y-17126800D02*
X11790476Y-17164895D01*
X11790476Y-17164895D02*
X11866667Y-17164895D01*
X11866667Y-17164895D02*
X11980952Y-17126800D01*
X11980952Y-17126800D02*
X12019048Y-17088704D01*
X12019048Y-17088704D02*
X12019048Y-16822038D01*
X12019048Y-16822038D02*
X11866667Y-16822038D01*
X12895238Y-16631561D02*
X13047619Y-17164895D01*
X13047619Y-17164895D02*
X13200000Y-16783942D01*
X13200000Y-16783942D02*
X13352381Y-17164895D01*
X13352381Y-17164895D02*
X13504762Y-16631561D01*
X13809524Y-16745847D02*
X14419048Y-16745847D01*
X14419048Y-16974419D02*
X13809524Y-16974419D01*
X15219047Y-17164895D02*
X14761904Y-17164895D01*
X14990476Y-17164895D02*
X14990476Y-16364895D01*
X14990476Y-16364895D02*
X14914285Y-16479180D01*
X14914285Y-16479180D02*
X14838095Y-16555371D01*
X14838095Y-16555371D02*
X14761904Y-16593466D01*
X15561905Y-17088704D02*
X15600000Y-17126800D01*
X15600000Y-17126800D02*
X15561905Y-17164895D01*
X15561905Y-17164895D02*
X15523809Y-17126800D01*
X15523809Y-17126800D02*
X15561905Y-17088704D01*
X15561905Y-17088704D02*
X15561905Y-17164895D01*
X16057142Y-16707752D02*
X15980952Y-16669657D01*
X15980952Y-16669657D02*
X15942857Y-16631561D01*
X15942857Y-16631561D02*
X15904761Y-16555371D01*
X15904761Y-16555371D02*
X15904761Y-16517276D01*
X15904761Y-16517276D02*
X15942857Y-16441085D01*
X15942857Y-16441085D02*
X15980952Y-16402990D01*
X15980952Y-16402990D02*
X16057142Y-16364895D01*
X16057142Y-16364895D02*
X16209523Y-16364895D01*
X16209523Y-16364895D02*
X16285714Y-16402990D01*
X16285714Y-16402990D02*
X16323809Y-16441085D01*
X16323809Y-16441085D02*
X16361904Y-16517276D01*
X16361904Y-16517276D02*
X16361904Y-16555371D01*
X16361904Y-16555371D02*
X16323809Y-16631561D01*
X16323809Y-16631561D02*
X16285714Y-16669657D01*
X16285714Y-16669657D02*
X16209523Y-16707752D01*
X16209523Y-16707752D02*
X16057142Y-16707752D01*
X16057142Y-16707752D02*
X15980952Y-16745847D01*
X15980952Y-16745847D02*
X15942857Y-16783942D01*
X15942857Y-16783942D02*
X15904761Y-16860133D01*
X15904761Y-16860133D02*
X15904761Y-17012514D01*
X15904761Y-17012514D02*
X15942857Y-17088704D01*
X15942857Y-17088704D02*
X15980952Y-17126800D01*
X15980952Y-17126800D02*
X16057142Y-17164895D01*
X16057142Y-17164895D02*
X16209523Y-17164895D01*
X16209523Y-17164895D02*
X16285714Y-17126800D01*
X16285714Y-17126800D02*
X16323809Y-17088704D01*
X16323809Y-17088704D02*
X16361904Y-17012514D01*
X16361904Y-17012514D02*
X16361904Y-16860133D01*
X16361904Y-16860133D02*
X16323809Y-16783942D01*
X16323809Y-16783942D02*
X16285714Y-16745847D01*
X16285714Y-16745847D02*
X16209523Y-16707752D01*
X16628571Y-16364895D02*
X17161905Y-16364895D01*
X17161905Y-16364895D02*
X16819047Y-17164895D01*
X18038095Y-17126800D02*
X18114286Y-17164895D01*
X18114286Y-17164895D02*
X18266667Y-17164895D01*
X18266667Y-17164895D02*
X18342857Y-17126800D01*
X18342857Y-17126800D02*
X18380953Y-17050609D01*
X18380953Y-17050609D02*
X18380953Y-17012514D01*
X18380953Y-17012514D02*
X18342857Y-16936323D01*
X18342857Y-16936323D02*
X18266667Y-16898228D01*
X18266667Y-16898228D02*
X18152381Y-16898228D01*
X18152381Y-16898228D02*
X18076191Y-16860133D01*
X18076191Y-16860133D02*
X18038095Y-16783942D01*
X18038095Y-16783942D02*
X18038095Y-16745847D01*
X18038095Y-16745847D02*
X18076191Y-16669657D01*
X18076191Y-16669657D02*
X18152381Y-16631561D01*
X18152381Y-16631561D02*
X18266667Y-16631561D01*
X18266667Y-16631561D02*
X18342857Y-16669657D01*
X18723810Y-16745847D02*
X19333334Y-16745847D01*
X19333334Y-16974419D02*
X18723810Y-16974419D01*
X19866667Y-16364895D02*
X19942857Y-16364895D01*
X19942857Y-16364895D02*
X20019048Y-16402990D01*
X20019048Y-16402990D02*
X20057143Y-16441085D01*
X20057143Y-16441085D02*
X20095238Y-16517276D01*
X20095238Y-16517276D02*
X20133333Y-16669657D01*
X20133333Y-16669657D02*
X20133333Y-16860133D01*
X20133333Y-16860133D02*
X20095238Y-17012514D01*
X20095238Y-17012514D02*
X20057143Y-17088704D01*
X20057143Y-17088704D02*
X20019048Y-17126800D01*
X20019048Y-17126800D02*
X19942857Y-17164895D01*
X19942857Y-17164895D02*
X19866667Y-17164895D01*
X19866667Y-17164895D02*
X19790476Y-17126800D01*
X19790476Y-17126800D02*
X19752381Y-17088704D01*
X19752381Y-17088704D02*
X19714286Y-17012514D01*
X19714286Y-17012514D02*
X19676190Y-16860133D01*
X19676190Y-16860133D02*
X19676190Y-16669657D01*
X19676190Y-16669657D02*
X19714286Y-16517276D01*
X19714286Y-16517276D02*
X19752381Y-16441085D01*
X19752381Y-16441085D02*
X19790476Y-16402990D01*
X19790476Y-16402990D02*
X19866667Y-16364895D01*
X20476191Y-17088704D02*
X20514286Y-17126800D01*
X20514286Y-17126800D02*
X20476191Y-17164895D01*
X20476191Y-17164895D02*
X20438095Y-17126800D01*
X20438095Y-17126800D02*
X20476191Y-17088704D01*
X20476191Y-17088704D02*
X20476191Y-17164895D01*
X21200000Y-16631561D02*
X21200000Y-17164895D01*
X21009524Y-16326800D02*
X20819047Y-16898228D01*
X20819047Y-16898228D02*
X21314286Y-16898228D01*
X21771429Y-16364895D02*
X21847619Y-16364895D01*
X21847619Y-16364895D02*
X21923810Y-16402990D01*
X21923810Y-16402990D02*
X21961905Y-16441085D01*
X21961905Y-16441085D02*
X22000000Y-16517276D01*
X22000000Y-16517276D02*
X22038095Y-16669657D01*
X22038095Y-16669657D02*
X22038095Y-16860133D01*
X22038095Y-16860133D02*
X22000000Y-17012514D01*
X22000000Y-17012514D02*
X21961905Y-17088704D01*
X21961905Y-17088704D02*
X21923810Y-17126800D01*
X21923810Y-17126800D02*
X21847619Y-17164895D01*
X21847619Y-17164895D02*
X21771429Y-17164895D01*
X21771429Y-17164895D02*
X21695238Y-17126800D01*
X21695238Y-17126800D02*
X21657143Y-17088704D01*
X21657143Y-17088704D02*
X21619048Y-17012514D01*
X21619048Y-17012514D02*
X21580952Y-16860133D01*
X21580952Y-16860133D02*
X21580952Y-16669657D01*
X21580952Y-16669657D02*
X21619048Y-16517276D01*
X21619048Y-16517276D02*
X21657143Y-16441085D01*
X21657143Y-16441085D02*
X21695238Y-16402990D01*
X21695238Y-16402990D02*
X21771429Y-16364895D01*
X23480952Y-6364895D02*
X23480952Y-5564895D01*
X23480952Y-5564895D02*
X23785714Y-5564895D01*
X23785714Y-5564895D02*
X23861904Y-5602990D01*
X23861904Y-5602990D02*
X23899999Y-5641085D01*
X23899999Y-5641085D02*
X23938095Y-5717276D01*
X23938095Y-5717276D02*
X23938095Y-5831561D01*
X23938095Y-5831561D02*
X23899999Y-5907752D01*
X23899999Y-5907752D02*
X23861904Y-5945847D01*
X23861904Y-5945847D02*
X23785714Y-5983942D01*
X23785714Y-5983942D02*
X23480952Y-5983942D01*
X24433333Y-5564895D02*
X24585714Y-5564895D01*
X24585714Y-5564895D02*
X24661904Y-5602990D01*
X24661904Y-5602990D02*
X24738095Y-5679180D01*
X24738095Y-5679180D02*
X24776190Y-5831561D01*
X24776190Y-5831561D02*
X24776190Y-6098228D01*
X24776190Y-6098228D02*
X24738095Y-6250609D01*
X24738095Y-6250609D02*
X24661904Y-6326800D01*
X24661904Y-6326800D02*
X24585714Y-6364895D01*
X24585714Y-6364895D02*
X24433333Y-6364895D01*
X24433333Y-6364895D02*
X24357142Y-6326800D01*
X24357142Y-6326800D02*
X24280952Y-6250609D01*
X24280952Y-6250609D02*
X24242856Y-6098228D01*
X24242856Y-6098228D02*
X24242856Y-5831561D01*
X24242856Y-5831561D02*
X24280952Y-5679180D01*
X24280952Y-5679180D02*
X24357142Y-5602990D01*
X24357142Y-5602990D02*
X24433333Y-5564895D01*
X25576190Y-6364895D02*
X25309523Y-5983942D01*
X25119047Y-6364895D02*
X25119047Y-5564895D01*
X25119047Y-5564895D02*
X25423809Y-5564895D01*
X25423809Y-5564895D02*
X25499999Y-5602990D01*
X25499999Y-5602990D02*
X25538094Y-5641085D01*
X25538094Y-5641085D02*
X25576190Y-5717276D01*
X25576190Y-5717276D02*
X25576190Y-5831561D01*
X25576190Y-5831561D02*
X25538094Y-5907752D01*
X25538094Y-5907752D02*
X25499999Y-5945847D01*
X25499999Y-5945847D02*
X25423809Y-5983942D01*
X25423809Y-5983942D02*
X25119047Y-5983942D01*
X25804761Y-5564895D02*
X26261904Y-5564895D01*
X26033332Y-6364895D02*
X26033332Y-5564895D01*
X27099999Y-5641085D02*
X27138095Y-5602990D01*
X27138095Y-5602990D02*
X27214285Y-5564895D01*
X27214285Y-5564895D02*
X27404761Y-5564895D01*
X27404761Y-5564895D02*
X27480952Y-5602990D01*
X27480952Y-5602990D02*
X27519047Y-5641085D01*
X27519047Y-5641085D02*
X27557142Y-5717276D01*
X27557142Y-5717276D02*
X27557142Y-5793466D01*
X27557142Y-5793466D02*
X27519047Y-5907752D01*
X27519047Y-5907752D02*
X27061904Y-6364895D01*
X27061904Y-6364895D02*
X27557142Y-6364895D01*
D11*
X6595236Y-3656119D02*
X6023808Y-3656119D01*
X6309522Y-3656119D02*
X6309522Y-2656119D01*
X6309522Y-2656119D02*
X6214284Y-2798976D01*
X6214284Y-2798976D02*
X6119046Y-2894214D01*
X6119046Y-2894214D02*
X6023808Y-2941833D01*
X7214284Y-2656119D02*
X7309522Y-2656119D01*
X7309522Y-2656119D02*
X7404760Y-2703738D01*
X7404760Y-2703738D02*
X7452379Y-2751357D01*
X7452379Y-2751357D02*
X7499998Y-2846595D01*
X7499998Y-2846595D02*
X7547617Y-3037071D01*
X7547617Y-3037071D02*
X7547617Y-3275166D01*
X7547617Y-3275166D02*
X7499998Y-3465642D01*
X7499998Y-3465642D02*
X7452379Y-3560880D01*
X7452379Y-3560880D02*
X7404760Y-3608500D01*
X7404760Y-3608500D02*
X7309522Y-3656119D01*
X7309522Y-3656119D02*
X7214284Y-3656119D01*
X7214284Y-3656119D02*
X7119046Y-3608500D01*
X7119046Y-3608500D02*
X7071427Y-3560880D01*
X7071427Y-3560880D02*
X7023808Y-3465642D01*
X7023808Y-3465642D02*
X6976189Y-3275166D01*
X6976189Y-3275166D02*
X6976189Y-3037071D01*
X6976189Y-3037071D02*
X7023808Y-2846595D01*
X7023808Y-2846595D02*
X7071427Y-2751357D01*
X7071427Y-2751357D02*
X7119046Y-2703738D01*
X7119046Y-2703738D02*
X7214284Y-2656119D01*
X9166665Y-3656119D02*
X9166665Y-2656119D01*
X9166665Y-3608500D02*
X9071427Y-3656119D01*
X9071427Y-3656119D02*
X8880951Y-3656119D01*
X8880951Y-3656119D02*
X8785713Y-3608500D01*
X8785713Y-3608500D02*
X8738094Y-3560880D01*
X8738094Y-3560880D02*
X8690475Y-3465642D01*
X8690475Y-3465642D02*
X8690475Y-3179928D01*
X8690475Y-3179928D02*
X8738094Y-3084690D01*
X8738094Y-3084690D02*
X8785713Y-3037071D01*
X8785713Y-3037071D02*
X8880951Y-2989452D01*
X8880951Y-2989452D02*
X9071427Y-2989452D01*
X9071427Y-2989452D02*
X9166665Y-3037071D01*
X9976189Y-3132309D02*
X10119046Y-3179928D01*
X10119046Y-3179928D02*
X10166665Y-3227547D01*
X10166665Y-3227547D02*
X10214284Y-3322785D01*
X10214284Y-3322785D02*
X10214284Y-3465642D01*
X10214284Y-3465642D02*
X10166665Y-3560880D01*
X10166665Y-3560880D02*
X10119046Y-3608500D01*
X10119046Y-3608500D02*
X10023808Y-3656119D01*
X10023808Y-3656119D02*
X9642856Y-3656119D01*
X9642856Y-3656119D02*
X9642856Y-2656119D01*
X9642856Y-2656119D02*
X9976189Y-2656119D01*
X9976189Y-2656119D02*
X10071427Y-2703738D01*
X10071427Y-2703738D02*
X10119046Y-2751357D01*
X10119046Y-2751357D02*
X10166665Y-2846595D01*
X10166665Y-2846595D02*
X10166665Y-2941833D01*
X10166665Y-2941833D02*
X10119046Y-3037071D01*
X10119046Y-3037071D02*
X10071427Y-3084690D01*
X10071427Y-3084690D02*
X9976189Y-3132309D01*
X9976189Y-3132309D02*
X9642856Y-3132309D01*
X11976189Y-3656119D02*
X11642856Y-3179928D01*
X11404761Y-3656119D02*
X11404761Y-2656119D01*
X11404761Y-2656119D02*
X11785713Y-2656119D01*
X11785713Y-2656119D02*
X11880951Y-2703738D01*
X11880951Y-2703738D02*
X11928570Y-2751357D01*
X11928570Y-2751357D02*
X11976189Y-2846595D01*
X11976189Y-2846595D02*
X11976189Y-2989452D01*
X11976189Y-2989452D02*
X11928570Y-3084690D01*
X11928570Y-3084690D02*
X11880951Y-3132309D01*
X11880951Y-3132309D02*
X11785713Y-3179928D01*
X11785713Y-3179928D02*
X11404761Y-3179928D01*
X12738094Y-3132309D02*
X12404761Y-3132309D01*
X12404761Y-3656119D02*
X12404761Y-2656119D01*
X12404761Y-2656119D02*
X12880951Y-2656119D01*
X14023809Y-3656119D02*
X14023809Y-2656119D01*
X14023809Y-2656119D02*
X14404761Y-2656119D01*
X14404761Y-2656119D02*
X14499999Y-2703738D01*
X14499999Y-2703738D02*
X14547618Y-2751357D01*
X14547618Y-2751357D02*
X14595237Y-2846595D01*
X14595237Y-2846595D02*
X14595237Y-2989452D01*
X14595237Y-2989452D02*
X14547618Y-3084690D01*
X14547618Y-3084690D02*
X14499999Y-3132309D01*
X14499999Y-3132309D02*
X14404761Y-3179928D01*
X14404761Y-3179928D02*
X14023809Y-3179928D01*
X15023809Y-3656119D02*
X15023809Y-2989452D01*
X15023809Y-2656119D02*
X14976190Y-2703738D01*
X14976190Y-2703738D02*
X15023809Y-2751357D01*
X15023809Y-2751357D02*
X15071428Y-2703738D01*
X15071428Y-2703738D02*
X15023809Y-2656119D01*
X15023809Y-2656119D02*
X15023809Y-2751357D01*
X15499999Y-3275166D02*
X16261904Y-3275166D01*
X16690475Y-3370404D02*
X17166665Y-3370404D01*
X16595237Y-3656119D02*
X16928570Y-2656119D01*
X16928570Y-2656119D02*
X17261903Y-3656119D01*
X17452380Y-2989452D02*
X17833332Y-2989452D01*
X17595237Y-2656119D02*
X17595237Y-3513261D01*
X17595237Y-3513261D02*
X17642856Y-3608500D01*
X17642856Y-3608500D02*
X17738094Y-3656119D01*
X17738094Y-3656119D02*
X17833332Y-3656119D01*
X18023809Y-2989452D02*
X18404761Y-2989452D01*
X18166666Y-2656119D02*
X18166666Y-3513261D01*
X18166666Y-3513261D02*
X18214285Y-3608500D01*
X18214285Y-3608500D02*
X18309523Y-3656119D01*
X18309523Y-3656119D02*
X18404761Y-3656119D01*
X19119047Y-3608500D02*
X19023809Y-3656119D01*
X19023809Y-3656119D02*
X18833333Y-3656119D01*
X18833333Y-3656119D02*
X18738095Y-3608500D01*
X18738095Y-3608500D02*
X18690476Y-3513261D01*
X18690476Y-3513261D02*
X18690476Y-3132309D01*
X18690476Y-3132309D02*
X18738095Y-3037071D01*
X18738095Y-3037071D02*
X18833333Y-2989452D01*
X18833333Y-2989452D02*
X19023809Y-2989452D01*
X19023809Y-2989452D02*
X19119047Y-3037071D01*
X19119047Y-3037071D02*
X19166666Y-3132309D01*
X19166666Y-3132309D02*
X19166666Y-3227547D01*
X19166666Y-3227547D02*
X18690476Y-3322785D01*
X19595238Y-2989452D02*
X19595238Y-3656119D01*
X19595238Y-3084690D02*
X19642857Y-3037071D01*
X19642857Y-3037071D02*
X19738095Y-2989452D01*
X19738095Y-2989452D02*
X19880952Y-2989452D01*
X19880952Y-2989452D02*
X19976190Y-3037071D01*
X19976190Y-3037071D02*
X20023809Y-3132309D01*
X20023809Y-3132309D02*
X20023809Y-3656119D01*
X20928571Y-2989452D02*
X20928571Y-3656119D01*
X20500000Y-2989452D02*
X20500000Y-3513261D01*
X20500000Y-3513261D02*
X20547619Y-3608500D01*
X20547619Y-3608500D02*
X20642857Y-3656119D01*
X20642857Y-3656119D02*
X20785714Y-3656119D01*
X20785714Y-3656119D02*
X20880952Y-3608500D01*
X20880952Y-3608500D02*
X20928571Y-3560880D01*
X21833333Y-3656119D02*
X21833333Y-3132309D01*
X21833333Y-3132309D02*
X21785714Y-3037071D01*
X21785714Y-3037071D02*
X21690476Y-2989452D01*
X21690476Y-2989452D02*
X21500000Y-2989452D01*
X21500000Y-2989452D02*
X21404762Y-3037071D01*
X21833333Y-3608500D02*
X21738095Y-3656119D01*
X21738095Y-3656119D02*
X21500000Y-3656119D01*
X21500000Y-3656119D02*
X21404762Y-3608500D01*
X21404762Y-3608500D02*
X21357143Y-3513261D01*
X21357143Y-3513261D02*
X21357143Y-3418023D01*
X21357143Y-3418023D02*
X21404762Y-3322785D01*
X21404762Y-3322785D02*
X21500000Y-3275166D01*
X21500000Y-3275166D02*
X21738095Y-3275166D01*
X21738095Y-3275166D02*
X21833333Y-3227547D01*
X22166667Y-2989452D02*
X22547619Y-2989452D01*
X22309524Y-2656119D02*
X22309524Y-3513261D01*
X22309524Y-3513261D02*
X22357143Y-3608500D01*
X22357143Y-3608500D02*
X22452381Y-3656119D01*
X22452381Y-3656119D02*
X22547619Y-3656119D01*
X23023810Y-3656119D02*
X22928572Y-3608500D01*
X22928572Y-3608500D02*
X22880953Y-3560880D01*
X22880953Y-3560880D02*
X22833334Y-3465642D01*
X22833334Y-3465642D02*
X22833334Y-3179928D01*
X22833334Y-3179928D02*
X22880953Y-3084690D01*
X22880953Y-3084690D02*
X22928572Y-3037071D01*
X22928572Y-3037071D02*
X23023810Y-2989452D01*
X23023810Y-2989452D02*
X23166667Y-2989452D01*
X23166667Y-2989452D02*
X23261905Y-3037071D01*
X23261905Y-3037071D02*
X23309524Y-3084690D01*
X23309524Y-3084690D02*
X23357143Y-3179928D01*
X23357143Y-3179928D02*
X23357143Y-3465642D01*
X23357143Y-3465642D02*
X23309524Y-3560880D01*
X23309524Y-3560880D02*
X23261905Y-3608500D01*
X23261905Y-3608500D02*
X23166667Y-3656119D01*
X23166667Y-3656119D02*
X23023810Y-3656119D01*
X23785715Y-3656119D02*
X23785715Y-2989452D01*
X23785715Y-3179928D02*
X23833334Y-3084690D01*
X23833334Y-3084690D02*
X23880953Y-3037071D01*
X23880953Y-3037071D02*
X23976191Y-2989452D01*
X23976191Y-2989452D02*
X24071429Y-2989452D01*
D12*
X4166666Y-7074819D02*
X4166666Y-7789104D01*
X4166666Y-7789104D02*
X4119047Y-7931961D01*
X4119047Y-7931961D02*
X4023809Y-8027200D01*
X4023809Y-8027200D02*
X3880952Y-8074819D01*
X3880952Y-8074819D02*
X3785714Y-8074819D01*
X5166666Y-8074819D02*
X4595238Y-8074819D01*
X4880952Y-8074819D02*
X4880952Y-7074819D01*
X4880952Y-7074819D02*
X4785714Y-7217676D01*
X4785714Y-7217676D02*
X4690476Y-7312914D01*
X4690476Y-7312914D02*
X4595238Y-7360533D01*
X14833333Y-8804819D02*
X14500000Y-8328628D01*
X14261905Y-8804819D02*
X14261905Y-7804819D01*
X14261905Y-7804819D02*
X14642857Y-7804819D01*
X14642857Y-7804819D02*
X14738095Y-7852438D01*
X14738095Y-7852438D02*
X14785714Y-7900057D01*
X14785714Y-7900057D02*
X14833333Y-7995295D01*
X14833333Y-7995295D02*
X14833333Y-8138152D01*
X14833333Y-8138152D02*
X14785714Y-8233390D01*
X14785714Y-8233390D02*
X14738095Y-8281009D01*
X14738095Y-8281009D02*
X14642857Y-8328628D01*
X14642857Y-8328628D02*
X14261905Y-8328628D01*
X15214286Y-7900057D02*
X15261905Y-7852438D01*
X15261905Y-7852438D02*
X15357143Y-7804819D01*
X15357143Y-7804819D02*
X15595238Y-7804819D01*
X15595238Y-7804819D02*
X15690476Y-7852438D01*
X15690476Y-7852438D02*
X15738095Y-7900057D01*
X15738095Y-7900057D02*
X15785714Y-7995295D01*
X15785714Y-7995295D02*
X15785714Y-8090533D01*
X15785714Y-8090533D02*
X15738095Y-8233390D01*
X15738095Y-8233390D02*
X15166667Y-8804819D01*
X15166667Y-8804819D02*
X15785714Y-8804819D01*
X25166666Y-7074819D02*
X25166666Y-7789104D01*
X25166666Y-7789104D02*
X25119047Y-7931961D01*
X25119047Y-7931961D02*
X25023809Y-8027200D01*
X25023809Y-8027200D02*
X24880952Y-8074819D01*
X24880952Y-8074819D02*
X24785714Y-8074819D01*
X25595238Y-7170057D02*
X25642857Y-7122438D01*
X25642857Y-7122438D02*
X25738095Y-7074819D01*
X25738095Y-7074819D02*
X25976190Y-7074819D01*
X25976190Y-7074819D02*
X26071428Y-7122438D01*
X26071428Y-7122438D02*
X26119047Y-7170057D01*
X26119047Y-7170057D02*
X26166666Y-7265295D01*
X26166666Y-7265295D02*
X26166666Y-7360533D01*
X26166666Y-7360533D02*
X26119047Y-7503390D01*
X26119047Y-7503390D02*
X25547619Y-8074819D01*
X25547619Y-8074819D02*
X26166666Y-8074819D01*
X21604819Y-11079166D02*
X21128628Y-11412499D01*
X21604819Y-11650594D02*
X20604819Y-11650594D01*
X20604819Y-11650594D02*
X20604819Y-11269642D01*
X20604819Y-11269642D02*
X20652438Y-11174404D01*
X20652438Y-11174404D02*
X20700057Y-11126785D01*
X20700057Y-11126785D02*
X20795295Y-11079166D01*
X20795295Y-11079166D02*
X20938152Y-11079166D01*
X20938152Y-11079166D02*
X21033390Y-11126785D01*
X21033390Y-11126785D02*
X21081009Y-11174404D01*
X21081009Y-11174404D02*
X21128628Y-11269642D01*
X21128628Y-11269642D02*
X21128628Y-11650594D01*
X20604819Y-10745832D02*
X20604819Y-10126785D01*
X20604819Y-10126785D02*
X20985771Y-10460118D01*
X20985771Y-10460118D02*
X20985771Y-10317261D01*
X20985771Y-10317261D02*
X21033390Y-10222023D01*
X21033390Y-10222023D02*
X21081009Y-10174404D01*
X21081009Y-10174404D02*
X21176247Y-10126785D01*
X21176247Y-10126785D02*
X21414342Y-10126785D01*
X21414342Y-10126785D02*
X21509580Y-10174404D01*
X21509580Y-10174404D02*
X21557200Y-10222023D01*
X21557200Y-10222023D02*
X21604819Y-10317261D01*
X21604819Y-10317261D02*
X21604819Y-10602975D01*
X21604819Y-10602975D02*
X21557200Y-10698213D01*
X21557200Y-10698213D02*
X21509580Y-10745832D01*
X12604819Y-11079166D02*
X12128628Y-11412499D01*
X12604819Y-11650594D02*
X11604819Y-11650594D01*
X11604819Y-11650594D02*
X11604819Y-11269642D01*
X11604819Y-11269642D02*
X11652438Y-11174404D01*
X11652438Y-11174404D02*
X11700057Y-11126785D01*
X11700057Y-11126785D02*
X11795295Y-11079166D01*
X11795295Y-11079166D02*
X11938152Y-11079166D01*
X11938152Y-11079166D02*
X12033390Y-11126785D01*
X12033390Y-11126785D02*
X12081009Y-11174404D01*
X12081009Y-11174404D02*
X12128628Y-11269642D01*
X12128628Y-11269642D02*
X12128628Y-11650594D01*
X12604819Y-10126785D02*
X12604819Y-10698213D01*
X12604819Y-10412499D02*
X11604819Y-10412499D01*
X11604819Y-10412499D02*
X11747676Y-10507737D01*
X11747676Y-10507737D02*
X11842914Y-10602975D01*
X11842914Y-10602975D02*
X11890533Y-10698213D01*
%TO.C,J1*%
D13*
X3120000Y-8620000D02*
X4500000Y-8620000D01*
X3120000Y-10000000D02*
X3120000Y-8620000D01*
X3120000Y-11270000D02*
X3120000Y-13920000D01*
X3120000Y-11270000D02*
X5880000Y-11270000D01*
X3120000Y-13920000D02*
X5880000Y-13920000D01*
X5880000Y-11270000D02*
X5880000Y-13920000D01*
%TO.C,R2*%
X14772936Y-9265000D02*
X15227064Y-9265000D01*
X14772936Y-10735000D02*
X15227064Y-10735000D01*
%TO.C,J2*%
X24120000Y-8620000D02*
X25500000Y-8620000D01*
X24120000Y-10000000D02*
X24120000Y-8620000D01*
X24120000Y-11270000D02*
X24120000Y-13920000D01*
X24120000Y-11270000D02*
X26880000Y-11270000D01*
X24120000Y-13920000D02*
X26880000Y-13920000D01*
X26880000Y-11270000D02*
X26880000Y-13920000D01*
%TO.C,R3*%
X18765000Y-10685436D02*
X18765000Y-11139564D01*
X20235000Y-10685436D02*
X20235000Y-11139564D01*
%TO.C,R1*%
X9765000Y-10685436D02*
X9765000Y-11139564D01*
X11235000Y-10685436D02*
X11235000Y-11139564D01*
%TD*%
M02*
