%TF.GenerationSoftware,KiCad,Pcbnew,10.0.4-10.0.4~ubuntu25.10.1*%
%TF.CreationDate,2026-09-09T05:17:26+00:00*%
%TF.ProjectId,bpf_100mhz_lc,6270665f-3130-4306-9d68-7a5f6c632e6b,rev?*%
%TF.SameCoordinates,Original*%
%TF.FileFunction,Copper,L2,Bot*%
%TF.FilePolarity,Positive*%
%FSLAX46Y46*%
G04 Gerber Fmt 4.6, Leading zero omitted, Abs format (unit mm)*
G04 Created by KiCad (PCBNEW 10.0.4-10.0.4~ubuntu25.10.1) date 2026-09-09 05:17:26*
%MOMM*%
%LPD*%
G01*
G04 APERTURE LIST*
%TA.AperFunction,ComponentPad*%
%ADD10R,1.700000X1.700000*%
%TD*%
%TA.AperFunction,ComponentPad*%
%ADD11C,1.700000*%
%TD*%
%TA.AperFunction,ViaPad*%
%ADD12C,0.800000*%
%TD*%
G04 APERTURE END LIST*
D10*
%TO.P,J1,1*%
%TO.N,RF_IN*%
X4500000Y-10000000D03*
D11*
%TO.P,J1,2*%
%TO.N,GND*%
X4500000Y-12540000D03*
%TD*%
D10*
%TO.P,J2,1*%
%TO.N,RF_OUT*%
X30500000Y-10000000D03*
D11*
%TO.P,J2,2*%
%TO.N,GND*%
X30500000Y-12540000D03*
%TD*%
D12*
%TO.N,GND*%
X12500000Y-7200000D03*
X8000000Y-15000000D03*
X30000000Y-18000000D03*
X22000000Y-15000000D03*
X24500000Y-15000000D03*
X17500000Y-7200000D03*
X5500000Y-15000000D03*
X10000000Y-2000000D03*
X30500000Y-13739999D03*
X17000000Y-15000000D03*
X4500000Y-13739999D03*
X15000000Y-15000000D03*
X9000000Y-7200000D03*
X13000000Y-15000000D03*
X15000000Y-7200000D03*
X22000000Y-2000000D03*
X10000000Y-18000000D03*
X24500000Y-7200000D03*
X30000000Y-2000000D03*
X26000000Y-2000000D03*
X21000000Y-7200000D03*
X4500000Y-13739999D03*
X6000000Y-2000000D03*
X14000000Y-18000000D03*
X18000000Y-18000000D03*
X26000000Y-18000000D03*
X6000000Y-18000000D03*
X5500000Y-7200000D03*
X18000000Y-2000000D03*
X30500000Y-13739999D03*
X22000000Y-18000000D03*
X14000000Y-2000000D03*
%TD*%
%TA.AperFunction,Conductor*%
%TO.N,GND*%
G36*
X33004418Y-500816D02*
G01*
X33204561Y-515130D01*
X33222063Y-517647D01*
X33413795Y-559355D01*
X33430760Y-564336D01*
X33614611Y-632909D01*
X33630694Y-640253D01*
X33747495Y-704032D01*
X33802908Y-734290D01*
X33817791Y-743855D01*
X33974864Y-861438D01*
X33988235Y-873024D01*
X34126975Y-1011764D01*
X34138561Y-1025135D01*
X34256144Y-1182208D01*
X34265709Y-1197091D01*
X34359743Y-1369300D01*
X34367093Y-1385394D01*
X34435661Y-1569234D01*
X34440645Y-1586209D01*
X34482351Y-1777931D01*
X34484869Y-1795442D01*
X34488410Y-1844949D01*
X34497346Y-1969890D01*
X34499184Y-1995580D01*
X34499500Y-2004427D01*
X34499500Y-17995572D01*
X34499184Y-18004419D01*
X34484869Y-18204557D01*
X34482351Y-18222068D01*
X34440645Y-18413790D01*
X34435661Y-18430765D01*
X34367093Y-18614605D01*
X34359743Y-18630699D01*
X34265709Y-18802908D01*
X34256144Y-18817791D01*
X34138561Y-18974864D01*
X34126975Y-18988235D01*
X33988235Y-19126975D01*
X33974864Y-19138561D01*
X33817791Y-19256144D01*
X33802908Y-19265709D01*
X33630699Y-19359743D01*
X33614605Y-19367093D01*
X33430765Y-19435661D01*
X33413790Y-19440645D01*
X33222068Y-19482351D01*
X33204557Y-19484869D01*
X33023779Y-19497799D01*
X33004417Y-19499184D01*
X32995572Y-19499500D01*
X2004428Y-19499500D01*
X1995582Y-19499184D01*
X1973622Y-19497613D01*
X1795442Y-19484869D01*
X1777931Y-19482351D01*
X1586209Y-19440645D01*
X1569234Y-19435661D01*
X1385394Y-19367093D01*
X1369300Y-19359743D01*
X1197091Y-19265709D01*
X1182208Y-19256144D01*
X1025135Y-19138561D01*
X1011764Y-19126975D01*
X873024Y-18988235D01*
X861438Y-18974864D01*
X743855Y-18817791D01*
X734290Y-18802908D01*
X640256Y-18630699D01*
X632909Y-18614611D01*
X564336Y-18430760D01*
X559354Y-18413790D01*
X545586Y-18350500D01*
X517647Y-18222063D01*
X515130Y-18204556D01*
X511589Y-18155051D01*
X500816Y-18004418D01*
X500500Y-17995572D01*
X500500Y-16893713D01*
X30649500Y-16893713D01*
X30649500Y-17106286D01*
X30682753Y-17316239D01*
X30748444Y-17518414D01*
X30844951Y-17707820D01*
X30969890Y-17879786D01*
X31120213Y-18030109D01*
X31292179Y-18155048D01*
X31292181Y-18155049D01*
X31292184Y-18155051D01*
X31481588Y-18251557D01*
X31683757Y-18317246D01*
X31893713Y-18350500D01*
X31893714Y-18350500D01*
X32106286Y-18350500D01*
X32106287Y-18350500D01*
X32316243Y-18317246D01*
X32518412Y-18251557D01*
X32707816Y-18155051D01*
X32729789Y-18139086D01*
X32879786Y-18030109D01*
X32879788Y-18030106D01*
X32879792Y-18030104D01*
X33030104Y-17879792D01*
X33030106Y-17879788D01*
X33030109Y-17879786D01*
X33155048Y-17707820D01*
X33155047Y-17707820D01*
X33155051Y-17707816D01*
X33251557Y-17518412D01*
X33317246Y-17316243D01*
X33350500Y-17106287D01*
X33350500Y-16893713D01*
X33317246Y-16683757D01*
X33251557Y-16481588D01*
X33155051Y-16292184D01*
X33155049Y-16292181D01*
X33155048Y-16292179D01*
X33030109Y-16120213D01*
X32879786Y-15969890D01*
X32707820Y-15844951D01*
X32518414Y-15748444D01*
X32518413Y-15748443D01*
X32518412Y-15748443D01*
X32316243Y-15682754D01*
X32316241Y-15682753D01*
X32316240Y-15682753D01*
X32154957Y-15657208D01*
X32106287Y-15649500D01*
X31893713Y-15649500D01*
X31845042Y-15657208D01*
X31683760Y-15682753D01*
X31481585Y-15748444D01*
X31292179Y-15844951D01*
X31120213Y-15969890D01*
X30969890Y-16120213D01*
X30844951Y-16292179D01*
X30748444Y-16481585D01*
X30682753Y-16683760D01*
X30649500Y-16893713D01*
X500500Y-16893713D01*
X500500Y-12433753D01*
X3150000Y-12433753D01*
X3150000Y-12646246D01*
X3183242Y-12856127D01*
X3183242Y-12856130D01*
X3248904Y-13058217D01*
X3345375Y-13247550D01*
X3384728Y-13301716D01*
X4017037Y-12669408D01*
X4034075Y-12732993D01*
X4099901Y-12847007D01*
X4192993Y-12940099D01*
X4307007Y-13005925D01*
X4370590Y-13022962D01*
X3738282Y-13655269D01*
X3738282Y-13655270D01*
X3792449Y-13694624D01*
X3981782Y-13791095D01*
X4183870Y-13856757D01*
X4393754Y-13890000D01*
X4606246Y-13890000D01*
X4816127Y-13856757D01*
X4816130Y-13856757D01*
X5018217Y-13791095D01*
X5207554Y-13694622D01*
X5261716Y-13655270D01*
X5261717Y-13655270D01*
X4629408Y-13022962D01*
X4692993Y-13005925D01*
X4807007Y-12940099D01*
X4900099Y-12847007D01*
X4965925Y-12732993D01*
X4982962Y-12669408D01*
X5615270Y-13301717D01*
X5615270Y-13301716D01*
X5654622Y-13247554D01*
X5751095Y-13058217D01*
X5816757Y-12856130D01*
X5816757Y-12856127D01*
X5850000Y-12646246D01*
X5850000Y-12433753D01*
X29150000Y-12433753D01*
X29150000Y-12646246D01*
X29183242Y-12856127D01*
X29183242Y-12856130D01*
X29248904Y-13058217D01*
X29345375Y-13247550D01*
X29384728Y-13301716D01*
X30017037Y-12669408D01*
X30034075Y-12732993D01*
X30099901Y-12847007D01*
X30192993Y-12940099D01*
X30307007Y-13005925D01*
X30370590Y-13022962D01*
X29738282Y-13655269D01*
X29738282Y-13655270D01*
X29792449Y-13694624D01*
X29981782Y-13791095D01*
X30183870Y-13856757D01*
X30393754Y-13890000D01*
X30606246Y-13890000D01*
X30816127Y-13856757D01*
X30816130Y-13856757D01*
X31018217Y-13791095D01*
X31207554Y-13694622D01*
X31261716Y-13655270D01*
X31261717Y-13655270D01*
X30629408Y-13022962D01*
X30692993Y-13005925D01*
X30807007Y-12940099D01*
X30900099Y-12847007D01*
X30965925Y-12732993D01*
X30982962Y-12669408D01*
X31615270Y-13301717D01*
X31615270Y-13301716D01*
X31654622Y-13247554D01*
X31751095Y-13058217D01*
X31816757Y-12856130D01*
X31816757Y-12856127D01*
X31850000Y-12646246D01*
X31850000Y-12433753D01*
X31816757Y-12223872D01*
X31816757Y-12223869D01*
X31751095Y-12021782D01*
X31654624Y-11832449D01*
X31615270Y-11778282D01*
X31615269Y-11778282D01*
X30982962Y-12410590D01*
X30965925Y-12347007D01*
X30900099Y-12232993D01*
X30807007Y-12139901D01*
X30692993Y-12074075D01*
X30629409Y-12057037D01*
X31261716Y-11424728D01*
X31258529Y-11384229D01*
X31272893Y-11315851D01*
X31321944Y-11266094D01*
X31376746Y-11251897D01*
X31376667Y-11250881D01*
X31381510Y-11250499D01*
X31381518Y-11250499D01*
X31475304Y-11235646D01*
X31588342Y-11178050D01*
X31678050Y-11088342D01*
X31735646Y-10975304D01*
X31735646Y-10975302D01*
X31735647Y-10975301D01*
X31750499Y-10881524D01*
X31750500Y-10881519D01*
X31750499Y-9118482D01*
X31735646Y-9024696D01*
X31678050Y-8911658D01*
X31678046Y-8911654D01*
X31678045Y-8911652D01*
X31588347Y-8821954D01*
X31588344Y-8821952D01*
X31588342Y-8821950D01*
X31511517Y-8782805D01*
X31475301Y-8764352D01*
X31381524Y-8749500D01*
X29618482Y-8749500D01*
X29537519Y-8762323D01*
X29524696Y-8764354D01*
X29411658Y-8821950D01*
X29411657Y-8821951D01*
X29411652Y-8821954D01*
X29321954Y-8911652D01*
X29321951Y-8911657D01*
X29264352Y-9024698D01*
X29249500Y-9118475D01*
X29249500Y-10881517D01*
X29260292Y-10949657D01*
X29264354Y-10975304D01*
X29321950Y-11088342D01*
X29321952Y-11088344D01*
X29321954Y-11088347D01*
X29411652Y-11178045D01*
X29411654Y-11178046D01*
X29411658Y-11178050D01*
X29524694Y-11235645D01*
X29524698Y-11235647D01*
X29618477Y-11250500D01*
X29623331Y-11250882D01*
X29623236Y-11252087D01*
X29684867Y-11270168D01*
X29730634Y-11322961D01*
X29741470Y-11384229D01*
X29738282Y-11424728D01*
X30370591Y-12057037D01*
X30307007Y-12074075D01*
X30192993Y-12139901D01*
X30099901Y-12232993D01*
X30034075Y-12347007D01*
X30017037Y-12410591D01*
X29384728Y-11778282D01*
X29384727Y-11778282D01*
X29345380Y-11832439D01*
X29248904Y-12021782D01*
X29183242Y-12223869D01*
X29183242Y-12223872D01*
X29150000Y-12433753D01*
X5850000Y-12433753D01*
X5816757Y-12223872D01*
X5816757Y-12223869D01*
X5751095Y-12021782D01*
X5654624Y-11832449D01*
X5615270Y-11778282D01*
X5615269Y-11778282D01*
X4982962Y-12410590D01*
X4965925Y-12347007D01*
X4900099Y-12232993D01*
X4807007Y-12139901D01*
X4692993Y-12074075D01*
X4629409Y-12057037D01*
X5261716Y-11424728D01*
X5258529Y-11384229D01*
X5272893Y-11315851D01*
X5321944Y-11266094D01*
X5376746Y-11251897D01*
X5376667Y-11250881D01*
X5381510Y-11250499D01*
X5381518Y-11250499D01*
X5475304Y-11235646D01*
X5588342Y-11178050D01*
X5678050Y-11088342D01*
X5735646Y-10975304D01*
X5735646Y-10975302D01*
X5735647Y-10975301D01*
X5750499Y-10881524D01*
X5750500Y-10881519D01*
X5750499Y-9118482D01*
X5735646Y-9024696D01*
X5678050Y-8911658D01*
X5678046Y-8911654D01*
X5678045Y-8911652D01*
X5588347Y-8821954D01*
X5588344Y-8821952D01*
X5588342Y-8821950D01*
X5511517Y-8782805D01*
X5475301Y-8764352D01*
X5381524Y-8749500D01*
X3618482Y-8749500D01*
X3537519Y-8762323D01*
X3524696Y-8764354D01*
X3411658Y-8821950D01*
X3411657Y-8821951D01*
X3411652Y-8821954D01*
X3321954Y-8911652D01*
X3321951Y-8911657D01*
X3264352Y-9024698D01*
X3249500Y-9118475D01*
X3249500Y-10881517D01*
X3260292Y-10949657D01*
X3264354Y-10975304D01*
X3321950Y-11088342D01*
X3321952Y-11088344D01*
X3321954Y-11088347D01*
X3411652Y-11178045D01*
X3411654Y-11178046D01*
X3411658Y-11178050D01*
X3524694Y-11235645D01*
X3524698Y-11235647D01*
X3618477Y-11250500D01*
X3623331Y-11250882D01*
X3623236Y-11252087D01*
X3684867Y-11270168D01*
X3730634Y-11322961D01*
X3741470Y-11384229D01*
X3738282Y-11424728D01*
X4370591Y-12057037D01*
X4307007Y-12074075D01*
X4192993Y-12139901D01*
X4099901Y-12232993D01*
X4034075Y-12347007D01*
X4017037Y-12410591D01*
X3384728Y-11778282D01*
X3384727Y-11778282D01*
X3345380Y-11832439D01*
X3248904Y-12021782D01*
X3183242Y-12223869D01*
X3183242Y-12223872D01*
X3150000Y-12433753D01*
X500500Y-12433753D01*
X500500Y-2893713D01*
X1649500Y-2893713D01*
X1649500Y-3106286D01*
X1682753Y-3316239D01*
X1748444Y-3518414D01*
X1844951Y-3707820D01*
X1969890Y-3879786D01*
X2120213Y-4030109D01*
X2292179Y-4155048D01*
X2292181Y-4155049D01*
X2292184Y-4155051D01*
X2481588Y-4251557D01*
X2683757Y-4317246D01*
X2893713Y-4350500D01*
X2893714Y-4350500D01*
X3106286Y-4350500D01*
X3106287Y-4350500D01*
X3316243Y-4317246D01*
X3518412Y-4251557D01*
X3707816Y-4155051D01*
X3729789Y-4139086D01*
X3879786Y-4030109D01*
X3879788Y-4030106D01*
X3879792Y-4030104D01*
X4030104Y-3879792D01*
X4030106Y-3879788D01*
X4030109Y-3879786D01*
X4155048Y-3707820D01*
X4155047Y-3707820D01*
X4155051Y-3707816D01*
X4251557Y-3518412D01*
X4317246Y-3316243D01*
X4350500Y-3106287D01*
X4350500Y-2893713D01*
X4317246Y-2683757D01*
X4251557Y-2481588D01*
X4155051Y-2292184D01*
X4155049Y-2292181D01*
X4155048Y-2292179D01*
X4030109Y-2120213D01*
X3879786Y-1969890D01*
X3707820Y-1844951D01*
X3518414Y-1748444D01*
X3518413Y-1748443D01*
X3518412Y-1748443D01*
X3316243Y-1682754D01*
X3316241Y-1682753D01*
X3316240Y-1682753D01*
X3154957Y-1657208D01*
X3106287Y-1649500D01*
X2893713Y-1649500D01*
X2845042Y-1657208D01*
X2683760Y-1682753D01*
X2481585Y-1748444D01*
X2292179Y-1844951D01*
X2120213Y-1969890D01*
X1969890Y-2120213D01*
X1844951Y-2292179D01*
X1748444Y-2481585D01*
X1682753Y-2683760D01*
X1649500Y-2893713D01*
X500500Y-2893713D01*
X500500Y-2004427D01*
X500816Y-1995581D01*
X502653Y-1969896D01*
X515131Y-1795434D01*
X517646Y-1777938D01*
X559356Y-1586200D01*
X564335Y-1569242D01*
X632911Y-1385382D01*
X640251Y-1369310D01*
X734294Y-1197083D01*
X743850Y-1182214D01*
X861443Y-1025128D01*
X873017Y-1011771D01*
X1011771Y-873017D01*
X1025128Y-861443D01*
X1182214Y-743850D01*
X1197083Y-734294D01*
X1369310Y-640251D01*
X1385382Y-632911D01*
X1569242Y-564335D01*
X1586200Y-559356D01*
X1777938Y-517646D01*
X1795436Y-515130D01*
X1995582Y-500816D01*
X2004428Y-500500D01*
X2065892Y-500500D01*
X32934108Y-500500D01*
X32995572Y-500500D01*
X33004418Y-500816D01*
G37*
%TD.AperFunction*%
%TD*%
M02*
