%TF.GenerationSoftware,KiCad,Pcbnew,10.0.4-10.0.4~ubuntu25.10.1*%
%TF.CreationDate,2026-09-09T05:17:26+00:00*%
%TF.ProjectId,bpf_100mhz_lc,6270665f-3130-4306-9d68-7a5f6c632e6b,rev?*%
%TF.SameCoordinates,Original*%
%TF.FileFunction,Legend,Top*%
%TF.FilePolarity,Positive*%
%FSLAX46Y46*%
G04 Gerber Fmt 4.6, Leading zero omitted, Abs format (unit mm)*
G04 Created by KiCad (PCBNEW 10.0.4-10.0.4~ubuntu25.10.1) date 2026-09-09 05:17:26*
%MOMM*%
%LPD*%
G01*
G04 APERTURE LIST*
%ADD10C,0.100000*%
%ADD11C,0.125000*%
%ADD12C,0.150000*%
%ADD13C,0.120000*%
G04 APERTURE END LIST*
D10*
X2480952Y-6364895D02*
X2480952Y-5564895D01*
X2480952Y-5564895D02*
X2785714Y-5564895D01*
X2785714Y-5564895D02*
X2861904Y-5602990D01*
X2861904Y-5602990D02*
X2899999Y-5641085D01*
X2899999Y-5641085D02*
X2938095Y-5717276D01*
X2938095Y-5717276D02*
X2938095Y-5831561D01*
X2938095Y-5831561D02*
X2899999Y-5907752D01*
X2899999Y-5907752D02*
X2861904Y-5945847D01*
X2861904Y-5945847D02*
X2785714Y-5983942D01*
X2785714Y-5983942D02*
X2480952Y-5983942D01*
X3433333Y-5564895D02*
X3585714Y-5564895D01*
X3585714Y-5564895D02*
X3661904Y-5602990D01*
X3661904Y-5602990D02*
X3738095Y-5679180D01*
X3738095Y-5679180D02*
X3776190Y-5831561D01*
X3776190Y-5831561D02*
X3776190Y-6098228D01*
X3776190Y-6098228D02*
X3738095Y-6250609D01*
X3738095Y-6250609D02*
X3661904Y-6326800D01*
X3661904Y-6326800D02*
X3585714Y-6364895D01*
X3585714Y-6364895D02*
X3433333Y-6364895D01*
X3433333Y-6364895D02*
X3357142Y-6326800D01*
X3357142Y-6326800D02*
X3280952Y-6250609D01*
X3280952Y-6250609D02*
X3242856Y-6098228D01*
X3242856Y-6098228D02*
X3242856Y-5831561D01*
X3242856Y-5831561D02*
X3280952Y-5679180D01*
X3280952Y-5679180D02*
X3357142Y-5602990D01*
X3357142Y-5602990D02*
X3433333Y-5564895D01*
X4576190Y-6364895D02*
X4309523Y-5983942D01*
X4119047Y-6364895D02*
X4119047Y-5564895D01*
X4119047Y-5564895D02*
X4423809Y-5564895D01*
X4423809Y-5564895D02*
X4499999Y-5602990D01*
X4499999Y-5602990D02*
X4538094Y-5641085D01*
X4538094Y-5641085D02*
X4576190Y-5717276D01*
X4576190Y-5717276D02*
X4576190Y-5831561D01*
X4576190Y-5831561D02*
X4538094Y-5907752D01*
X4538094Y-5907752D02*
X4499999Y-5945847D01*
X4499999Y-5945847D02*
X4423809Y-5983942D01*
X4423809Y-5983942D02*
X4119047Y-5983942D01*
X4804761Y-5564895D02*
X5261904Y-5564895D01*
X5033332Y-6364895D02*
X5033332Y-5564895D01*
X6557142Y-6364895D02*
X6099999Y-6364895D01*
X6328571Y-6364895D02*
X6328571Y-5564895D01*
X6328571Y-5564895D02*
X6252380Y-5679180D01*
X6252380Y-5679180D02*
X6176190Y-5755371D01*
X6176190Y-5755371D02*
X6099999Y-5793466D01*
X8880951Y-16364895D02*
X8499999Y-16364895D01*
X8499999Y-16364895D02*
X8461903Y-16745847D01*
X8461903Y-16745847D02*
X8499999Y-16707752D01*
X8499999Y-16707752D02*
X8576189Y-16669657D01*
X8576189Y-16669657D02*
X8766665Y-16669657D01*
X8766665Y-16669657D02*
X8842856Y-16707752D01*
X8842856Y-16707752D02*
X8880951Y-16745847D01*
X8880951Y-16745847D02*
X8919046Y-16822038D01*
X8919046Y-16822038D02*
X8919046Y-17012514D01*
X8919046Y-17012514D02*
X8880951Y-17088704D01*
X8880951Y-17088704D02*
X8842856Y-17126800D01*
X8842856Y-17126800D02*
X8766665Y-17164895D01*
X8766665Y-17164895D02*
X8576189Y-17164895D01*
X8576189Y-17164895D02*
X8499999Y-17126800D01*
X8499999Y-17126800D02*
X8461903Y-17088704D01*
X9414285Y-16364895D02*
X9490475Y-16364895D01*
X9490475Y-16364895D02*
X9566666Y-16402990D01*
X9566666Y-16402990D02*
X9604761Y-16441085D01*
X9604761Y-16441085D02*
X9642856Y-16517276D01*
X9642856Y-16517276D02*
X9680951Y-16669657D01*
X9680951Y-16669657D02*
X9680951Y-16860133D01*
X9680951Y-16860133D02*
X9642856Y-17012514D01*
X9642856Y-17012514D02*
X9604761Y-17088704D01*
X9604761Y-17088704D02*
X9566666Y-17126800D01*
X9566666Y-17126800D02*
X9490475Y-17164895D01*
X9490475Y-17164895D02*
X9414285Y-17164895D01*
X9414285Y-17164895D02*
X9338094Y-17126800D01*
X9338094Y-17126800D02*
X9299999Y-17088704D01*
X9299999Y-17088704D02*
X9261904Y-17012514D01*
X9261904Y-17012514D02*
X9223808Y-16860133D01*
X9223808Y-16860133D02*
X9223808Y-16669657D01*
X9223808Y-16669657D02*
X9261904Y-16517276D01*
X9261904Y-16517276D02*
X9299999Y-16441085D01*
X9299999Y-16441085D02*
X9338094Y-16402990D01*
X9338094Y-16402990D02*
X9414285Y-16364895D01*
X9985713Y-17164895D02*
X10176190Y-17164895D01*
X10176190Y-17164895D02*
X10176190Y-17012514D01*
X10176190Y-17012514D02*
X10099999Y-16974419D01*
X10099999Y-16974419D02*
X10023809Y-16898228D01*
X10023809Y-16898228D02*
X9985713Y-16783942D01*
X9985713Y-16783942D02*
X9985713Y-16593466D01*
X9985713Y-16593466D02*
X10023809Y-16479180D01*
X10023809Y-16479180D02*
X10099999Y-16402990D01*
X10099999Y-16402990D02*
X10214285Y-16364895D01*
X10214285Y-16364895D02*
X10366666Y-16364895D01*
X10366666Y-16364895D02*
X10480952Y-16402990D01*
X10480952Y-16402990D02*
X10557142Y-16479180D01*
X10557142Y-16479180D02*
X10595237Y-16593466D01*
X10595237Y-16593466D02*
X10595237Y-16783942D01*
X10595237Y-16783942D02*
X10557142Y-16898228D01*
X10557142Y-16898228D02*
X10480952Y-16974419D01*
X10480952Y-16974419D02*
X10404761Y-17012514D01*
X10404761Y-17012514D02*
X10404761Y-17164895D01*
X10404761Y-17164895D02*
X10595237Y-17164895D01*
X12004762Y-17088704D02*
X11966666Y-17126800D01*
X11966666Y-17126800D02*
X11852381Y-17164895D01*
X11852381Y-17164895D02*
X11776190Y-17164895D01*
X11776190Y-17164895D02*
X11661904Y-17126800D01*
X11661904Y-17126800D02*
X11585714Y-17050609D01*
X11585714Y-17050609D02*
X11547619Y-16974419D01*
X11547619Y-16974419D02*
X11509523Y-16822038D01*
X11509523Y-16822038D02*
X11509523Y-16707752D01*
X11509523Y-16707752D02*
X11547619Y-16555371D01*
X11547619Y-16555371D02*
X11585714Y-16479180D01*
X11585714Y-16479180D02*
X11661904Y-16402990D01*
X11661904Y-16402990D02*
X11776190Y-16364895D01*
X11776190Y-16364895D02*
X11852381Y-16364895D01*
X11852381Y-16364895D02*
X11966666Y-16402990D01*
X11966666Y-16402990D02*
X12004762Y-16441085D01*
X12347619Y-17164895D02*
X12347619Y-16364895D01*
X12347619Y-16364895D02*
X12652381Y-16364895D01*
X12652381Y-16364895D02*
X12728571Y-16402990D01*
X12728571Y-16402990D02*
X12766666Y-16441085D01*
X12766666Y-16441085D02*
X12804762Y-16517276D01*
X12804762Y-16517276D02*
X12804762Y-16631561D01*
X12804762Y-16631561D02*
X12766666Y-16707752D01*
X12766666Y-16707752D02*
X12728571Y-16745847D01*
X12728571Y-16745847D02*
X12652381Y-16783942D01*
X12652381Y-16783942D02*
X12347619Y-16783942D01*
X13071428Y-16364895D02*
X13261904Y-17164895D01*
X13261904Y-17164895D02*
X13414285Y-16593466D01*
X13414285Y-16593466D02*
X13566666Y-17164895D01*
X13566666Y-17164895D02*
X13757143Y-16364895D01*
X14480952Y-16402990D02*
X14404762Y-16364895D01*
X14404762Y-16364895D02*
X14290476Y-16364895D01*
X14290476Y-16364895D02*
X14176190Y-16402990D01*
X14176190Y-16402990D02*
X14100000Y-16479180D01*
X14100000Y-16479180D02*
X14061905Y-16555371D01*
X14061905Y-16555371D02*
X14023809Y-16707752D01*
X14023809Y-16707752D02*
X14023809Y-16822038D01*
X14023809Y-16822038D02*
X14061905Y-16974419D01*
X14061905Y-16974419D02*
X14100000Y-17050609D01*
X14100000Y-17050609D02*
X14176190Y-17126800D01*
X14176190Y-17126800D02*
X14290476Y-17164895D01*
X14290476Y-17164895D02*
X14366667Y-17164895D01*
X14366667Y-17164895D02*
X14480952Y-17126800D01*
X14480952Y-17126800D02*
X14519048Y-17088704D01*
X14519048Y-17088704D02*
X14519048Y-16822038D01*
X14519048Y-16822038D02*
X14366667Y-16822038D01*
X15395238Y-16631561D02*
X15547619Y-17164895D01*
X15547619Y-17164895D02*
X15700000Y-16783942D01*
X15700000Y-16783942D02*
X15852381Y-17164895D01*
X15852381Y-17164895D02*
X16004762Y-16631561D01*
X16309524Y-16745847D02*
X16919048Y-16745847D01*
X16919048Y-16974419D02*
X16309524Y-16974419D01*
X17719047Y-17164895D02*
X17261904Y-17164895D01*
X17490476Y-17164895D02*
X17490476Y-16364895D01*
X17490476Y-16364895D02*
X17414285Y-16479180D01*
X17414285Y-16479180D02*
X17338095Y-16555371D01*
X17338095Y-16555371D02*
X17261904Y-16593466D01*
X18061905Y-17088704D02*
X18100000Y-17126800D01*
X18100000Y-17126800D02*
X18061905Y-17164895D01*
X18061905Y-17164895D02*
X18023809Y-17126800D01*
X18023809Y-17126800D02*
X18061905Y-17088704D01*
X18061905Y-17088704D02*
X18061905Y-17164895D01*
X18557142Y-16707752D02*
X18480952Y-16669657D01*
X18480952Y-16669657D02*
X18442857Y-16631561D01*
X18442857Y-16631561D02*
X18404761Y-16555371D01*
X18404761Y-16555371D02*
X18404761Y-16517276D01*
X18404761Y-16517276D02*
X18442857Y-16441085D01*
X18442857Y-16441085D02*
X18480952Y-16402990D01*
X18480952Y-16402990D02*
X18557142Y-16364895D01*
X18557142Y-16364895D02*
X18709523Y-16364895D01*
X18709523Y-16364895D02*
X18785714Y-16402990D01*
X18785714Y-16402990D02*
X18823809Y-16441085D01*
X18823809Y-16441085D02*
X18861904Y-16517276D01*
X18861904Y-16517276D02*
X18861904Y-16555371D01*
X18861904Y-16555371D02*
X18823809Y-16631561D01*
X18823809Y-16631561D02*
X18785714Y-16669657D01*
X18785714Y-16669657D02*
X18709523Y-16707752D01*
X18709523Y-16707752D02*
X18557142Y-16707752D01*
X18557142Y-16707752D02*
X18480952Y-16745847D01*
X18480952Y-16745847D02*
X18442857Y-16783942D01*
X18442857Y-16783942D02*
X18404761Y-16860133D01*
X18404761Y-16860133D02*
X18404761Y-17012514D01*
X18404761Y-17012514D02*
X18442857Y-17088704D01*
X18442857Y-17088704D02*
X18480952Y-17126800D01*
X18480952Y-17126800D02*
X18557142Y-17164895D01*
X18557142Y-17164895D02*
X18709523Y-17164895D01*
X18709523Y-17164895D02*
X18785714Y-17126800D01*
X18785714Y-17126800D02*
X18823809Y-17088704D01*
X18823809Y-17088704D02*
X18861904Y-17012514D01*
X18861904Y-17012514D02*
X18861904Y-16860133D01*
X18861904Y-16860133D02*
X18823809Y-16783942D01*
X18823809Y-16783942D02*
X18785714Y-16745847D01*
X18785714Y-16745847D02*
X18709523Y-16707752D01*
X19128571Y-16364895D02*
X19661905Y-16364895D01*
X19661905Y-16364895D02*
X19319047Y-17164895D01*
X20538095Y-17126800D02*
X20614286Y-17164895D01*
X20614286Y-17164895D02*
X20766667Y-17164895D01*
X20766667Y-17164895D02*
X20842857Y-17126800D01*
X20842857Y-17126800D02*
X20880953Y-17050609D01*
X20880953Y-17050609D02*
X20880953Y-17012514D01*
X20880953Y-17012514D02*
X20842857Y-16936323D01*
X20842857Y-16936323D02*
X20766667Y-16898228D01*
X20766667Y-16898228D02*
X20652381Y-16898228D01*
X20652381Y-16898228D02*
X20576191Y-16860133D01*
X20576191Y-16860133D02*
X20538095Y-16783942D01*
X20538095Y-16783942D02*
X20538095Y-16745847D01*
X20538095Y-16745847D02*
X20576191Y-16669657D01*
X20576191Y-16669657D02*
X20652381Y-16631561D01*
X20652381Y-16631561D02*
X20766667Y-16631561D01*
X20766667Y-16631561D02*
X20842857Y-16669657D01*
X21223810Y-16745847D02*
X21833334Y-16745847D01*
X21833334Y-16974419D02*
X21223810Y-16974419D01*
X22366667Y-16364895D02*
X22442857Y-16364895D01*
X22442857Y-16364895D02*
X22519048Y-16402990D01*
X22519048Y-16402990D02*
X22557143Y-16441085D01*
X22557143Y-16441085D02*
X22595238Y-16517276D01*
X22595238Y-16517276D02*
X22633333Y-16669657D01*
X22633333Y-16669657D02*
X22633333Y-16860133D01*
X22633333Y-16860133D02*
X22595238Y-17012514D01*
X22595238Y-17012514D02*
X22557143Y-17088704D01*
X22557143Y-17088704D02*
X22519048Y-17126800D01*
X22519048Y-17126800D02*
X22442857Y-17164895D01*
X22442857Y-17164895D02*
X22366667Y-17164895D01*
X22366667Y-17164895D02*
X22290476Y-17126800D01*
X22290476Y-17126800D02*
X22252381Y-17088704D01*
X22252381Y-17088704D02*
X22214286Y-17012514D01*
X22214286Y-17012514D02*
X22176190Y-16860133D01*
X22176190Y-16860133D02*
X22176190Y-16669657D01*
X22176190Y-16669657D02*
X22214286Y-16517276D01*
X22214286Y-16517276D02*
X22252381Y-16441085D01*
X22252381Y-16441085D02*
X22290476Y-16402990D01*
X22290476Y-16402990D02*
X22366667Y-16364895D01*
X22976191Y-17088704D02*
X23014286Y-17126800D01*
X23014286Y-17126800D02*
X22976191Y-17164895D01*
X22976191Y-17164895D02*
X22938095Y-17126800D01*
X22938095Y-17126800D02*
X22976191Y-17088704D01*
X22976191Y-17088704D02*
X22976191Y-17164895D01*
X23700000Y-16631561D02*
X23700000Y-17164895D01*
X23509524Y-16326800D02*
X23319047Y-16898228D01*
X23319047Y-16898228D02*
X23814286Y-16898228D01*
X24271429Y-16364895D02*
X24347619Y-16364895D01*
X24347619Y-16364895D02*
X24423810Y-16402990D01*
X24423810Y-16402990D02*
X24461905Y-16441085D01*
X24461905Y-16441085D02*
X24500000Y-16517276D01*
X24500000Y-16517276D02*
X24538095Y-16669657D01*
X24538095Y-16669657D02*
X24538095Y-16860133D01*
X24538095Y-16860133D02*
X24500000Y-17012514D01*
X24500000Y-17012514D02*
X24461905Y-17088704D01*
X24461905Y-17088704D02*
X24423810Y-17126800D01*
X24423810Y-17126800D02*
X24347619Y-17164895D01*
X24347619Y-17164895D02*
X24271429Y-17164895D01*
X24271429Y-17164895D02*
X24195238Y-17126800D01*
X24195238Y-17126800D02*
X24157143Y-17088704D01*
X24157143Y-17088704D02*
X24119048Y-17012514D01*
X24119048Y-17012514D02*
X24080952Y-16860133D01*
X24080952Y-16860133D02*
X24080952Y-16669657D01*
X24080952Y-16669657D02*
X24119048Y-16517276D01*
X24119048Y-16517276D02*
X24157143Y-16441085D01*
X24157143Y-16441085D02*
X24195238Y-16402990D01*
X24195238Y-16402990D02*
X24271429Y-16364895D01*
X28480952Y-6364895D02*
X28480952Y-5564895D01*
X28480952Y-5564895D02*
X28785714Y-5564895D01*
X28785714Y-5564895D02*
X28861904Y-5602990D01*
X28861904Y-5602990D02*
X28899999Y-5641085D01*
X28899999Y-5641085D02*
X28938095Y-5717276D01*
X28938095Y-5717276D02*
X28938095Y-5831561D01*
X28938095Y-5831561D02*
X28899999Y-5907752D01*
X28899999Y-5907752D02*
X28861904Y-5945847D01*
X28861904Y-5945847D02*
X28785714Y-5983942D01*
X28785714Y-5983942D02*
X28480952Y-5983942D01*
X29433333Y-5564895D02*
X29585714Y-5564895D01*
X29585714Y-5564895D02*
X29661904Y-5602990D01*
X29661904Y-5602990D02*
X29738095Y-5679180D01*
X29738095Y-5679180D02*
X29776190Y-5831561D01*
X29776190Y-5831561D02*
X29776190Y-6098228D01*
X29776190Y-6098228D02*
X29738095Y-6250609D01*
X29738095Y-6250609D02*
X29661904Y-6326800D01*
X29661904Y-6326800D02*
X29585714Y-6364895D01*
X29585714Y-6364895D02*
X29433333Y-6364895D01*
X29433333Y-6364895D02*
X29357142Y-6326800D01*
X29357142Y-6326800D02*
X29280952Y-6250609D01*
X29280952Y-6250609D02*
X29242856Y-6098228D01*
X29242856Y-6098228D02*
X29242856Y-5831561D01*
X29242856Y-5831561D02*
X29280952Y-5679180D01*
X29280952Y-5679180D02*
X29357142Y-5602990D01*
X29357142Y-5602990D02*
X29433333Y-5564895D01*
X30576190Y-6364895D02*
X30309523Y-5983942D01*
X30119047Y-6364895D02*
X30119047Y-5564895D01*
X30119047Y-5564895D02*
X30423809Y-5564895D01*
X30423809Y-5564895D02*
X30499999Y-5602990D01*
X30499999Y-5602990D02*
X30538094Y-5641085D01*
X30538094Y-5641085D02*
X30576190Y-5717276D01*
X30576190Y-5717276D02*
X30576190Y-5831561D01*
X30576190Y-5831561D02*
X30538094Y-5907752D01*
X30538094Y-5907752D02*
X30499999Y-5945847D01*
X30499999Y-5945847D02*
X30423809Y-5983942D01*
X30423809Y-5983942D02*
X30119047Y-5983942D01*
X30804761Y-5564895D02*
X31261904Y-5564895D01*
X31033332Y-6364895D02*
X31033332Y-5564895D01*
X32099999Y-5641085D02*
X32138095Y-5602990D01*
X32138095Y-5602990D02*
X32214285Y-5564895D01*
X32214285Y-5564895D02*
X32404761Y-5564895D01*
X32404761Y-5564895D02*
X32480952Y-5602990D01*
X32480952Y-5602990D02*
X32519047Y-5641085D01*
X32519047Y-5641085D02*
X32557142Y-5717276D01*
X32557142Y-5717276D02*
X32557142Y-5793466D01*
X32557142Y-5793466D02*
X32519047Y-5907752D01*
X32519047Y-5907752D02*
X32061904Y-6364895D01*
X32061904Y-6364895D02*
X32557142Y-6364895D01*
D11*
X5309521Y-3656119D02*
X4738093Y-3656119D01*
X5023807Y-3656119D02*
X5023807Y-2656119D01*
X5023807Y-2656119D02*
X4928569Y-2798976D01*
X4928569Y-2798976D02*
X4833331Y-2894214D01*
X4833331Y-2894214D02*
X4738093Y-2941833D01*
X5928569Y-2656119D02*
X6023807Y-2656119D01*
X6023807Y-2656119D02*
X6119045Y-2703738D01*
X6119045Y-2703738D02*
X6166664Y-2751357D01*
X6166664Y-2751357D02*
X6214283Y-2846595D01*
X6214283Y-2846595D02*
X6261902Y-3037071D01*
X6261902Y-3037071D02*
X6261902Y-3275166D01*
X6261902Y-3275166D02*
X6214283Y-3465642D01*
X6214283Y-3465642D02*
X6166664Y-3560880D01*
X6166664Y-3560880D02*
X6119045Y-3608500D01*
X6119045Y-3608500D02*
X6023807Y-3656119D01*
X6023807Y-3656119D02*
X5928569Y-3656119D01*
X5928569Y-3656119D02*
X5833331Y-3608500D01*
X5833331Y-3608500D02*
X5785712Y-3560880D01*
X5785712Y-3560880D02*
X5738093Y-3465642D01*
X5738093Y-3465642D02*
X5690474Y-3275166D01*
X5690474Y-3275166D02*
X5690474Y-3037071D01*
X5690474Y-3037071D02*
X5738093Y-2846595D01*
X5738093Y-2846595D02*
X5785712Y-2751357D01*
X5785712Y-2751357D02*
X5833331Y-2703738D01*
X5833331Y-2703738D02*
X5928569Y-2656119D01*
X6880950Y-2656119D02*
X6976188Y-2656119D01*
X6976188Y-2656119D02*
X7071426Y-2703738D01*
X7071426Y-2703738D02*
X7119045Y-2751357D01*
X7119045Y-2751357D02*
X7166664Y-2846595D01*
X7166664Y-2846595D02*
X7214283Y-3037071D01*
X7214283Y-3037071D02*
X7214283Y-3275166D01*
X7214283Y-3275166D02*
X7166664Y-3465642D01*
X7166664Y-3465642D02*
X7119045Y-3560880D01*
X7119045Y-3560880D02*
X7071426Y-3608500D01*
X7071426Y-3608500D02*
X6976188Y-3656119D01*
X6976188Y-3656119D02*
X6880950Y-3656119D01*
X6880950Y-3656119D02*
X6785712Y-3608500D01*
X6785712Y-3608500D02*
X6738093Y-3560880D01*
X6738093Y-3560880D02*
X6690474Y-3465642D01*
X6690474Y-3465642D02*
X6642855Y-3275166D01*
X6642855Y-3275166D02*
X6642855Y-3037071D01*
X6642855Y-3037071D02*
X6690474Y-2846595D01*
X6690474Y-2846595D02*
X6738093Y-2751357D01*
X6738093Y-2751357D02*
X6785712Y-2703738D01*
X6785712Y-2703738D02*
X6880950Y-2656119D01*
X8404760Y-3656119D02*
X8404760Y-2656119D01*
X8404760Y-2656119D02*
X8738093Y-3370404D01*
X8738093Y-3370404D02*
X9071426Y-2656119D01*
X9071426Y-2656119D02*
X9071426Y-3656119D01*
X9547617Y-3656119D02*
X9547617Y-2656119D01*
X9547617Y-3132309D02*
X10119045Y-3132309D01*
X10119045Y-3656119D02*
X10119045Y-2656119D01*
X10499998Y-2989452D02*
X11023807Y-2989452D01*
X11023807Y-2989452D02*
X10499998Y-3656119D01*
X10499998Y-3656119D02*
X11023807Y-3656119D01*
X12642855Y-3656119D02*
X12166665Y-3656119D01*
X12166665Y-3656119D02*
X12166665Y-2656119D01*
X13547617Y-3560880D02*
X13499998Y-3608500D01*
X13499998Y-3608500D02*
X13357141Y-3656119D01*
X13357141Y-3656119D02*
X13261903Y-3656119D01*
X13261903Y-3656119D02*
X13119046Y-3608500D01*
X13119046Y-3608500D02*
X13023808Y-3513261D01*
X13023808Y-3513261D02*
X12976189Y-3418023D01*
X12976189Y-3418023D02*
X12928570Y-3227547D01*
X12928570Y-3227547D02*
X12928570Y-3084690D01*
X12928570Y-3084690D02*
X12976189Y-2894214D01*
X12976189Y-2894214D02*
X13023808Y-2798976D01*
X13023808Y-2798976D02*
X13119046Y-2703738D01*
X13119046Y-2703738D02*
X13261903Y-2656119D01*
X13261903Y-2656119D02*
X13357141Y-2656119D01*
X13357141Y-2656119D02*
X13499998Y-2703738D01*
X13499998Y-2703738D02*
X13547617Y-2751357D01*
X14595237Y-2656119D02*
X15166665Y-2656119D01*
X14880951Y-3656119D02*
X14880951Y-2656119D01*
X15928570Y-3656119D02*
X15928570Y-3132309D01*
X15928570Y-3132309D02*
X15880951Y-3037071D01*
X15880951Y-3037071D02*
X15785713Y-2989452D01*
X15785713Y-2989452D02*
X15595237Y-2989452D01*
X15595237Y-2989452D02*
X15499999Y-3037071D01*
X15928570Y-3608500D02*
X15833332Y-3656119D01*
X15833332Y-3656119D02*
X15595237Y-3656119D01*
X15595237Y-3656119D02*
X15499999Y-3608500D01*
X15499999Y-3608500D02*
X15452380Y-3513261D01*
X15452380Y-3513261D02*
X15452380Y-3418023D01*
X15452380Y-3418023D02*
X15499999Y-3322785D01*
X15499999Y-3322785D02*
X15595237Y-3275166D01*
X15595237Y-3275166D02*
X15833332Y-3275166D01*
X15833332Y-3275166D02*
X15928570Y-3227547D01*
X16404761Y-2989452D02*
X16404761Y-3656119D01*
X16404761Y-3084690D02*
X16452380Y-3037071D01*
X16452380Y-3037071D02*
X16547618Y-2989452D01*
X16547618Y-2989452D02*
X16690475Y-2989452D01*
X16690475Y-2989452D02*
X16785713Y-3037071D01*
X16785713Y-3037071D02*
X16833332Y-3132309D01*
X16833332Y-3132309D02*
X16833332Y-3656119D01*
X17309523Y-3656119D02*
X17309523Y-2656119D01*
X17404761Y-3275166D02*
X17690475Y-3656119D01*
X17690475Y-2989452D02*
X17309523Y-3370404D01*
X19214285Y-3132309D02*
X19357142Y-3179928D01*
X19357142Y-3179928D02*
X19404761Y-3227547D01*
X19404761Y-3227547D02*
X19452380Y-3322785D01*
X19452380Y-3322785D02*
X19452380Y-3465642D01*
X19452380Y-3465642D02*
X19404761Y-3560880D01*
X19404761Y-3560880D02*
X19357142Y-3608500D01*
X19357142Y-3608500D02*
X19261904Y-3656119D01*
X19261904Y-3656119D02*
X18880952Y-3656119D01*
X18880952Y-3656119D02*
X18880952Y-2656119D01*
X18880952Y-2656119D02*
X19214285Y-2656119D01*
X19214285Y-2656119D02*
X19309523Y-2703738D01*
X19309523Y-2703738D02*
X19357142Y-2751357D01*
X19357142Y-2751357D02*
X19404761Y-2846595D01*
X19404761Y-2846595D02*
X19404761Y-2941833D01*
X19404761Y-2941833D02*
X19357142Y-3037071D01*
X19357142Y-3037071D02*
X19309523Y-3084690D01*
X19309523Y-3084690D02*
X19214285Y-3132309D01*
X19214285Y-3132309D02*
X18880952Y-3132309D01*
X20309523Y-3656119D02*
X20309523Y-3132309D01*
X20309523Y-3132309D02*
X20261904Y-3037071D01*
X20261904Y-3037071D02*
X20166666Y-2989452D01*
X20166666Y-2989452D02*
X19976190Y-2989452D01*
X19976190Y-2989452D02*
X19880952Y-3037071D01*
X20309523Y-3608500D02*
X20214285Y-3656119D01*
X20214285Y-3656119D02*
X19976190Y-3656119D01*
X19976190Y-3656119D02*
X19880952Y-3608500D01*
X19880952Y-3608500D02*
X19833333Y-3513261D01*
X19833333Y-3513261D02*
X19833333Y-3418023D01*
X19833333Y-3418023D02*
X19880952Y-3322785D01*
X19880952Y-3322785D02*
X19976190Y-3275166D01*
X19976190Y-3275166D02*
X20214285Y-3275166D01*
X20214285Y-3275166D02*
X20309523Y-3227547D01*
X20785714Y-2989452D02*
X20785714Y-3656119D01*
X20785714Y-3084690D02*
X20833333Y-3037071D01*
X20833333Y-3037071D02*
X20928571Y-2989452D01*
X20928571Y-2989452D02*
X21071428Y-2989452D01*
X21071428Y-2989452D02*
X21166666Y-3037071D01*
X21166666Y-3037071D02*
X21214285Y-3132309D01*
X21214285Y-3132309D02*
X21214285Y-3656119D01*
X22119047Y-3656119D02*
X22119047Y-2656119D01*
X22119047Y-3608500D02*
X22023809Y-3656119D01*
X22023809Y-3656119D02*
X21833333Y-3656119D01*
X21833333Y-3656119D02*
X21738095Y-3608500D01*
X21738095Y-3608500D02*
X21690476Y-3560880D01*
X21690476Y-3560880D02*
X21642857Y-3465642D01*
X21642857Y-3465642D02*
X21642857Y-3179928D01*
X21642857Y-3179928D02*
X21690476Y-3084690D01*
X21690476Y-3084690D02*
X21738095Y-3037071D01*
X21738095Y-3037071D02*
X21833333Y-2989452D01*
X21833333Y-2989452D02*
X22023809Y-2989452D01*
X22023809Y-2989452D02*
X22119047Y-3037071D01*
X22595238Y-2989452D02*
X22595238Y-3989452D01*
X22595238Y-3037071D02*
X22690476Y-2989452D01*
X22690476Y-2989452D02*
X22880952Y-2989452D01*
X22880952Y-2989452D02*
X22976190Y-3037071D01*
X22976190Y-3037071D02*
X23023809Y-3084690D01*
X23023809Y-3084690D02*
X23071428Y-3179928D01*
X23071428Y-3179928D02*
X23071428Y-3465642D01*
X23071428Y-3465642D02*
X23023809Y-3560880D01*
X23023809Y-3560880D02*
X22976190Y-3608500D01*
X22976190Y-3608500D02*
X22880952Y-3656119D01*
X22880952Y-3656119D02*
X22690476Y-3656119D01*
X22690476Y-3656119D02*
X22595238Y-3608500D01*
X23928571Y-3656119D02*
X23928571Y-3132309D01*
X23928571Y-3132309D02*
X23880952Y-3037071D01*
X23880952Y-3037071D02*
X23785714Y-2989452D01*
X23785714Y-2989452D02*
X23595238Y-2989452D01*
X23595238Y-2989452D02*
X23500000Y-3037071D01*
X23928571Y-3608500D02*
X23833333Y-3656119D01*
X23833333Y-3656119D02*
X23595238Y-3656119D01*
X23595238Y-3656119D02*
X23500000Y-3608500D01*
X23500000Y-3608500D02*
X23452381Y-3513261D01*
X23452381Y-3513261D02*
X23452381Y-3418023D01*
X23452381Y-3418023D02*
X23500000Y-3322785D01*
X23500000Y-3322785D02*
X23595238Y-3275166D01*
X23595238Y-3275166D02*
X23833333Y-3275166D01*
X23833333Y-3275166D02*
X23928571Y-3227547D01*
X24357143Y-3608500D02*
X24452381Y-3656119D01*
X24452381Y-3656119D02*
X24642857Y-3656119D01*
X24642857Y-3656119D02*
X24738095Y-3608500D01*
X24738095Y-3608500D02*
X24785714Y-3513261D01*
X24785714Y-3513261D02*
X24785714Y-3465642D01*
X24785714Y-3465642D02*
X24738095Y-3370404D01*
X24738095Y-3370404D02*
X24642857Y-3322785D01*
X24642857Y-3322785D02*
X24500000Y-3322785D01*
X24500000Y-3322785D02*
X24404762Y-3275166D01*
X24404762Y-3275166D02*
X24357143Y-3179928D01*
X24357143Y-3179928D02*
X24357143Y-3132309D01*
X24357143Y-3132309D02*
X24404762Y-3037071D01*
X24404762Y-3037071D02*
X24500000Y-2989452D01*
X24500000Y-2989452D02*
X24642857Y-2989452D01*
X24642857Y-2989452D02*
X24738095Y-3037071D01*
X25166667Y-3608500D02*
X25261905Y-3656119D01*
X25261905Y-3656119D02*
X25452381Y-3656119D01*
X25452381Y-3656119D02*
X25547619Y-3608500D01*
X25547619Y-3608500D02*
X25595238Y-3513261D01*
X25595238Y-3513261D02*
X25595238Y-3465642D01*
X25595238Y-3465642D02*
X25547619Y-3370404D01*
X25547619Y-3370404D02*
X25452381Y-3322785D01*
X25452381Y-3322785D02*
X25309524Y-3322785D01*
X25309524Y-3322785D02*
X25214286Y-3275166D01*
X25214286Y-3275166D02*
X25166667Y-3179928D01*
X25166667Y-3179928D02*
X25166667Y-3132309D01*
X25166667Y-3132309D02*
X25214286Y-3037071D01*
X25214286Y-3037071D02*
X25309524Y-2989452D01*
X25309524Y-2989452D02*
X25452381Y-2989452D01*
X25452381Y-2989452D02*
X25547619Y-3037071D01*
X27119048Y-3132309D02*
X26785715Y-3132309D01*
X26785715Y-3656119D02*
X26785715Y-2656119D01*
X26785715Y-2656119D02*
X27261905Y-2656119D01*
X27642858Y-3656119D02*
X27642858Y-2989452D01*
X27642858Y-2656119D02*
X27595239Y-2703738D01*
X27595239Y-2703738D02*
X27642858Y-2751357D01*
X27642858Y-2751357D02*
X27690477Y-2703738D01*
X27690477Y-2703738D02*
X27642858Y-2656119D01*
X27642858Y-2656119D02*
X27642858Y-2751357D01*
X28261905Y-3656119D02*
X28166667Y-3608500D01*
X28166667Y-3608500D02*
X28119048Y-3513261D01*
X28119048Y-3513261D02*
X28119048Y-2656119D01*
X28500001Y-2989452D02*
X28880953Y-2989452D01*
X28642858Y-2656119D02*
X28642858Y-3513261D01*
X28642858Y-3513261D02*
X28690477Y-3608500D01*
X28690477Y-3608500D02*
X28785715Y-3656119D01*
X28785715Y-3656119D02*
X28880953Y-3656119D01*
X29595239Y-3608500D02*
X29500001Y-3656119D01*
X29500001Y-3656119D02*
X29309525Y-3656119D01*
X29309525Y-3656119D02*
X29214287Y-3608500D01*
X29214287Y-3608500D02*
X29166668Y-3513261D01*
X29166668Y-3513261D02*
X29166668Y-3132309D01*
X29166668Y-3132309D02*
X29214287Y-3037071D01*
X29214287Y-3037071D02*
X29309525Y-2989452D01*
X29309525Y-2989452D02*
X29500001Y-2989452D01*
X29500001Y-2989452D02*
X29595239Y-3037071D01*
X29595239Y-3037071D02*
X29642858Y-3132309D01*
X29642858Y-3132309D02*
X29642858Y-3227547D01*
X29642858Y-3227547D02*
X29166668Y-3322785D01*
X30071430Y-3656119D02*
X30071430Y-2989452D01*
X30071430Y-3179928D02*
X30119049Y-3084690D01*
X30119049Y-3084690D02*
X30166668Y-3037071D01*
X30166668Y-3037071D02*
X30261906Y-2989452D01*
X30261906Y-2989452D02*
X30357144Y-2989452D01*
D12*
X4166666Y-7074819D02*
X4166666Y-7789104D01*
X4166666Y-7789104D02*
X4119047Y-7931961D01*
X4119047Y-7931961D02*
X4023809Y-8027200D01*
X4023809Y-8027200D02*
X3880952Y-8074819D01*
X3880952Y-8074819D02*
X3785714Y-8074819D01*
X5166666Y-8074819D02*
X4595238Y-8074819D01*
X4880952Y-8074819D02*
X4880952Y-7074819D01*
X4880952Y-7074819D02*
X4785714Y-7217676D01*
X4785714Y-7217676D02*
X4690476Y-7312914D01*
X4690476Y-7312914D02*
X4595238Y-7360533D01*
X13833333Y-8679580D02*
X13785714Y-8727200D01*
X13785714Y-8727200D02*
X13642857Y-8774819D01*
X13642857Y-8774819D02*
X13547619Y-8774819D01*
X13547619Y-8774819D02*
X13404762Y-8727200D01*
X13404762Y-8727200D02*
X13309524Y-8631961D01*
X13309524Y-8631961D02*
X13261905Y-8536723D01*
X13261905Y-8536723D02*
X13214286Y-8346247D01*
X13214286Y-8346247D02*
X13214286Y-8203390D01*
X13214286Y-8203390D02*
X13261905Y-8012914D01*
X13261905Y-8012914D02*
X13309524Y-7917676D01*
X13309524Y-7917676D02*
X13404762Y-7822438D01*
X13404762Y-7822438D02*
X13547619Y-7774819D01*
X13547619Y-7774819D02*
X13642857Y-7774819D01*
X13642857Y-7774819D02*
X13785714Y-7822438D01*
X13785714Y-7822438D02*
X13833333Y-7870057D01*
X14785714Y-8774819D02*
X14214286Y-8774819D01*
X14500000Y-8774819D02*
X14500000Y-7774819D01*
X14500000Y-7774819D02*
X14404762Y-7917676D01*
X14404762Y-7917676D02*
X14309524Y-8012914D01*
X14309524Y-8012914D02*
X14214286Y-8060533D01*
X20833333Y-8904819D02*
X20357143Y-8904819D01*
X20357143Y-8904819D02*
X20357143Y-7904819D01*
X21690476Y-8904819D02*
X21119048Y-8904819D01*
X21404762Y-8904819D02*
X21404762Y-7904819D01*
X21404762Y-7904819D02*
X21309524Y-8047676D01*
X21309524Y-8047676D02*
X21214286Y-8142914D01*
X21214286Y-8142914D02*
X21119048Y-8190533D01*
X30166666Y-7074819D02*
X30166666Y-7789104D01*
X30166666Y-7789104D02*
X30119047Y-7931961D01*
X30119047Y-7931961D02*
X30023809Y-8027200D01*
X30023809Y-8027200D02*
X29880952Y-8074819D01*
X29880952Y-8074819D02*
X29785714Y-8074819D01*
X30595238Y-7170057D02*
X30642857Y-7122438D01*
X30642857Y-7122438D02*
X30738095Y-7074819D01*
X30738095Y-7074819D02*
X30976190Y-7074819D01*
X30976190Y-7074819D02*
X31071428Y-7122438D01*
X31071428Y-7122438D02*
X31119047Y-7170057D01*
X31119047Y-7170057D02*
X31166666Y-7265295D01*
X31166666Y-7265295D02*
X31166666Y-7360533D01*
X31166666Y-7360533D02*
X31119047Y-7503390D01*
X31119047Y-7503390D02*
X30547619Y-8074819D01*
X30547619Y-8074819D02*
X31166666Y-8074819D01*
%TO.C,J1*%
D13*
X3120000Y-8620000D02*
X4500000Y-8620000D01*
X3120000Y-10000000D02*
X3120000Y-8620000D01*
X3120000Y-11270000D02*
X3120000Y-13920000D01*
X3120000Y-11270000D02*
X5880000Y-11270000D01*
X3120000Y-13920000D02*
X5880000Y-13920000D01*
X5880000Y-11270000D02*
X5880000Y-13920000D01*
%TO.C,C1*%
X13738748Y-9265000D02*
X14261252Y-9265000D01*
X13738748Y-10735000D02*
X14261252Y-10735000D01*
%TO.C,L1*%
X20600378Y-9440000D02*
X21399622Y-9440000D01*
X20600378Y-10560000D02*
X21399622Y-10560000D01*
%TO.C,J2*%
X29120000Y-8620000D02*
X30500000Y-8620000D01*
X29120000Y-10000000D02*
X29120000Y-8620000D01*
X29120000Y-11270000D02*
X29120000Y-13920000D01*
X29120000Y-11270000D02*
X31880000Y-11270000D01*
X29120000Y-13920000D02*
X31880000Y-13920000D01*
X31880000Y-11270000D02*
X31880000Y-13920000D01*
%TD*%
M02*
