%TF.GenerationSoftware,KiCad,Pcbnew,10.0.4-10.0.4~ubuntu25.10.1*%
%TF.CreationDate,2026-09-09T05:17:27+00:00*%
%TF.ProjectId,bpf_100mhz_lc,6270665f-3130-4306-9d68-7a5f6c632e6b,rev?*%
%TF.SameCoordinates,Original*%
%TF.FileFunction,AssemblyDrawing,Top*%
%FSLAX46Y46*%
G04 Gerber Fmt 4.6, Leading zero omitted, Abs format (unit mm)*
G04 Created by KiCad (PCBNEW 10.0.4-10.0.4~ubuntu25.10.1) date 2026-09-09 05:17:27*
%MOMM*%
%LPD*%
G01*
G04 APERTURE LIST*
%ADD10C,0.150000*%
%ADD11C,0.080000*%
%ADD12C,0.100000*%
G04 APERTURE END LIST*
D10*
X2071429Y-15327200D02*
X2214286Y-15374819D01*
X2214286Y-15374819D02*
X2452381Y-15374819D01*
X2452381Y-15374819D02*
X2547619Y-15327200D01*
X2547619Y-15327200D02*
X2595238Y-15279580D01*
X2595238Y-15279580D02*
X2642857Y-15184342D01*
X2642857Y-15184342D02*
X2642857Y-15089104D01*
X2642857Y-15089104D02*
X2595238Y-14993866D01*
X2595238Y-14993866D02*
X2547619Y-14946247D01*
X2547619Y-14946247D02*
X2452381Y-14898628D01*
X2452381Y-14898628D02*
X2261905Y-14851009D01*
X2261905Y-14851009D02*
X2166667Y-14803390D01*
X2166667Y-14803390D02*
X2119048Y-14755771D01*
X2119048Y-14755771D02*
X2071429Y-14660533D01*
X2071429Y-14660533D02*
X2071429Y-14565295D01*
X2071429Y-14565295D02*
X2119048Y-14470057D01*
X2119048Y-14470057D02*
X2166667Y-14422438D01*
X2166667Y-14422438D02*
X2261905Y-14374819D01*
X2261905Y-14374819D02*
X2500000Y-14374819D01*
X2500000Y-14374819D02*
X2642857Y-14422438D01*
X3071429Y-15374819D02*
X3071429Y-14374819D01*
X3071429Y-14374819D02*
X3404762Y-15089104D01*
X3404762Y-15089104D02*
X3738095Y-14374819D01*
X3738095Y-14374819D02*
X3738095Y-15374819D01*
X4166667Y-15089104D02*
X4642857Y-15089104D01*
X4071429Y-15374819D02*
X4404762Y-14374819D01*
X4404762Y-14374819D02*
X4738095Y-15374819D01*
X4833334Y-15470057D02*
X5595238Y-15470057D01*
X5833334Y-15374819D02*
X5833334Y-14374819D01*
X6309524Y-15374819D02*
X6309524Y-14374819D01*
X6309524Y-14374819D02*
X6880952Y-15374819D01*
X6880952Y-15374819D02*
X6880952Y-14374819D01*
X3954819Y-11603333D02*
X4669104Y-11603333D01*
X4669104Y-11603333D02*
X4811961Y-11650952D01*
X4811961Y-11650952D02*
X4907200Y-11746190D01*
X4907200Y-11746190D02*
X4954819Y-11889047D01*
X4954819Y-11889047D02*
X4954819Y-11984285D01*
X4954819Y-10603333D02*
X4954819Y-11174761D01*
X4954819Y-10889047D02*
X3954819Y-10889047D01*
X3954819Y-10889047D02*
X4097676Y-10984285D01*
X4097676Y-10984285D02*
X4192914Y-11079523D01*
X4192914Y-11079523D02*
X4240533Y-11174761D01*
X11642857Y-11230057D02*
X11690476Y-11182438D01*
X11690476Y-11182438D02*
X11785714Y-11134819D01*
X11785714Y-11134819D02*
X12023809Y-11134819D01*
X12023809Y-11134819D02*
X12119047Y-11182438D01*
X12119047Y-11182438D02*
X12166666Y-11230057D01*
X12166666Y-11230057D02*
X12214285Y-11325295D01*
X12214285Y-11325295D02*
X12214285Y-11420533D01*
X12214285Y-11420533D02*
X12166666Y-11563390D01*
X12166666Y-11563390D02*
X11595238Y-12134819D01*
X11595238Y-12134819D02*
X12214285Y-12134819D01*
X13119047Y-11134819D02*
X12642857Y-11134819D01*
X12642857Y-11134819D02*
X12595238Y-11611009D01*
X12595238Y-11611009D02*
X12642857Y-11563390D01*
X12642857Y-11563390D02*
X12738095Y-11515771D01*
X12738095Y-11515771D02*
X12976190Y-11515771D01*
X12976190Y-11515771D02*
X13071428Y-11563390D01*
X13071428Y-11563390D02*
X13119047Y-11611009D01*
X13119047Y-11611009D02*
X13166666Y-11706247D01*
X13166666Y-11706247D02*
X13166666Y-11944342D01*
X13166666Y-11944342D02*
X13119047Y-12039580D01*
X13119047Y-12039580D02*
X13071428Y-12087200D01*
X13071428Y-12087200D02*
X12976190Y-12134819D01*
X12976190Y-12134819D02*
X12738095Y-12134819D01*
X12738095Y-12134819D02*
X12642857Y-12087200D01*
X12642857Y-12087200D02*
X12595238Y-12039580D01*
X13595238Y-12039580D02*
X13642857Y-12087200D01*
X13642857Y-12087200D02*
X13595238Y-12134819D01*
X13595238Y-12134819D02*
X13547619Y-12087200D01*
X13547619Y-12087200D02*
X13595238Y-12039580D01*
X13595238Y-12039580D02*
X13595238Y-12134819D01*
X13976190Y-11134819D02*
X14595237Y-11134819D01*
X14595237Y-11134819D02*
X14261904Y-11515771D01*
X14261904Y-11515771D02*
X14404761Y-11515771D01*
X14404761Y-11515771D02*
X14499999Y-11563390D01*
X14499999Y-11563390D02*
X14547618Y-11611009D01*
X14547618Y-11611009D02*
X14595237Y-11706247D01*
X14595237Y-11706247D02*
X14595237Y-11944342D01*
X14595237Y-11944342D02*
X14547618Y-12039580D01*
X14547618Y-12039580D02*
X14499999Y-12087200D01*
X14499999Y-12087200D02*
X14404761Y-12134819D01*
X14404761Y-12134819D02*
X14119047Y-12134819D01*
X14119047Y-12134819D02*
X14023809Y-12087200D01*
X14023809Y-12087200D02*
X13976190Y-12039580D01*
X15023809Y-11468152D02*
X15023809Y-12468152D01*
X15023809Y-11515771D02*
X15119047Y-11468152D01*
X15119047Y-11468152D02*
X15309523Y-11468152D01*
X15309523Y-11468152D02*
X15404761Y-11515771D01*
X15404761Y-11515771D02*
X15452380Y-11563390D01*
X15452380Y-11563390D02*
X15499999Y-11658628D01*
X15499999Y-11658628D02*
X15499999Y-11944342D01*
X15499999Y-11944342D02*
X15452380Y-12039580D01*
X15452380Y-12039580D02*
X15404761Y-12087200D01*
X15404761Y-12087200D02*
X15309523Y-12134819D01*
X15309523Y-12134819D02*
X15119047Y-12134819D01*
X15119047Y-12134819D02*
X15023809Y-12087200D01*
X16261904Y-11611009D02*
X15928571Y-11611009D01*
X15928571Y-12134819D02*
X15928571Y-11134819D01*
X15928571Y-11134819D02*
X16404761Y-11134819D01*
D11*
X13916666Y-10179530D02*
X13892857Y-10203340D01*
X13892857Y-10203340D02*
X13821428Y-10227149D01*
X13821428Y-10227149D02*
X13773809Y-10227149D01*
X13773809Y-10227149D02*
X13702381Y-10203340D01*
X13702381Y-10203340D02*
X13654762Y-10155720D01*
X13654762Y-10155720D02*
X13630952Y-10108101D01*
X13630952Y-10108101D02*
X13607143Y-10012863D01*
X13607143Y-10012863D02*
X13607143Y-9941435D01*
X13607143Y-9941435D02*
X13630952Y-9846197D01*
X13630952Y-9846197D02*
X13654762Y-9798578D01*
X13654762Y-9798578D02*
X13702381Y-9750959D01*
X13702381Y-9750959D02*
X13773809Y-9727149D01*
X13773809Y-9727149D02*
X13821428Y-9727149D01*
X13821428Y-9727149D02*
X13892857Y-9750959D01*
X13892857Y-9750959D02*
X13916666Y-9774768D01*
X14392857Y-10227149D02*
X14107143Y-10227149D01*
X14250000Y-10227149D02*
X14250000Y-9727149D01*
X14250000Y-9727149D02*
X14202381Y-9798578D01*
X14202381Y-9798578D02*
X14154762Y-9846197D01*
X14154762Y-9846197D02*
X14107143Y-9870006D01*
D10*
X22880952Y-20604819D02*
X22880952Y-19604819D01*
X22880952Y-19604819D02*
X23214285Y-20319104D01*
X23214285Y-20319104D02*
X23547618Y-19604819D01*
X23547618Y-19604819D02*
X23547618Y-20604819D01*
X24166666Y-20604819D02*
X24071428Y-20557200D01*
X24071428Y-20557200D02*
X24023809Y-20509580D01*
X24023809Y-20509580D02*
X23976190Y-20414342D01*
X23976190Y-20414342D02*
X23976190Y-20128628D01*
X23976190Y-20128628D02*
X24023809Y-20033390D01*
X24023809Y-20033390D02*
X24071428Y-19985771D01*
X24071428Y-19985771D02*
X24166666Y-19938152D01*
X24166666Y-19938152D02*
X24309523Y-19938152D01*
X24309523Y-19938152D02*
X24404761Y-19985771D01*
X24404761Y-19985771D02*
X24452380Y-20033390D01*
X24452380Y-20033390D02*
X24499999Y-20128628D01*
X24499999Y-20128628D02*
X24499999Y-20414342D01*
X24499999Y-20414342D02*
X24452380Y-20509580D01*
X24452380Y-20509580D02*
X24404761Y-20557200D01*
X24404761Y-20557200D02*
X24309523Y-20604819D01*
X24309523Y-20604819D02*
X24166666Y-20604819D01*
X25357142Y-19938152D02*
X25357142Y-20604819D01*
X24928571Y-19938152D02*
X24928571Y-20461961D01*
X24928571Y-20461961D02*
X24976190Y-20557200D01*
X24976190Y-20557200D02*
X25071428Y-20604819D01*
X25071428Y-20604819D02*
X25214285Y-20604819D01*
X25214285Y-20604819D02*
X25309523Y-20557200D01*
X25309523Y-20557200D02*
X25357142Y-20509580D01*
X25833333Y-19938152D02*
X25833333Y-20604819D01*
X25833333Y-20033390D02*
X25880952Y-19985771D01*
X25880952Y-19985771D02*
X25976190Y-19938152D01*
X25976190Y-19938152D02*
X26119047Y-19938152D01*
X26119047Y-19938152D02*
X26214285Y-19985771D01*
X26214285Y-19985771D02*
X26261904Y-20081009D01*
X26261904Y-20081009D02*
X26261904Y-20604819D01*
X26595238Y-19938152D02*
X26976190Y-19938152D01*
X26738095Y-19604819D02*
X26738095Y-20461961D01*
X26738095Y-20461961D02*
X26785714Y-20557200D01*
X26785714Y-20557200D02*
X26880952Y-20604819D01*
X26880952Y-20604819D02*
X26976190Y-20604819D01*
X27309524Y-20604819D02*
X27309524Y-19938152D01*
X27309524Y-19604819D02*
X27261905Y-19652438D01*
X27261905Y-19652438D02*
X27309524Y-19700057D01*
X27309524Y-19700057D02*
X27357143Y-19652438D01*
X27357143Y-19652438D02*
X27309524Y-19604819D01*
X27309524Y-19604819D02*
X27309524Y-19700057D01*
X27785714Y-19938152D02*
X27785714Y-20604819D01*
X27785714Y-20033390D02*
X27833333Y-19985771D01*
X27833333Y-19985771D02*
X27928571Y-19938152D01*
X27928571Y-19938152D02*
X28071428Y-19938152D01*
X28071428Y-19938152D02*
X28166666Y-19985771D01*
X28166666Y-19985771D02*
X28214285Y-20081009D01*
X28214285Y-20081009D02*
X28214285Y-20604819D01*
X29119047Y-19938152D02*
X29119047Y-20747676D01*
X29119047Y-20747676D02*
X29071428Y-20842914D01*
X29071428Y-20842914D02*
X29023809Y-20890533D01*
X29023809Y-20890533D02*
X28928571Y-20938152D01*
X28928571Y-20938152D02*
X28785714Y-20938152D01*
X28785714Y-20938152D02*
X28690476Y-20890533D01*
X29119047Y-20557200D02*
X29023809Y-20604819D01*
X29023809Y-20604819D02*
X28833333Y-20604819D01*
X28833333Y-20604819D02*
X28738095Y-20557200D01*
X28738095Y-20557200D02*
X28690476Y-20509580D01*
X28690476Y-20509580D02*
X28642857Y-20414342D01*
X28642857Y-20414342D02*
X28642857Y-20128628D01*
X28642857Y-20128628D02*
X28690476Y-20033390D01*
X28690476Y-20033390D02*
X28738095Y-19985771D01*
X28738095Y-19985771D02*
X28833333Y-19938152D01*
X28833333Y-19938152D02*
X29023809Y-19938152D01*
X29023809Y-19938152D02*
X29119047Y-19985771D01*
X29595238Y-20604819D02*
X29595238Y-19604819D01*
X29595238Y-20081009D02*
X30166666Y-20081009D01*
X30166666Y-20604819D02*
X30166666Y-19604819D01*
X30785714Y-20604819D02*
X30690476Y-20557200D01*
X30690476Y-20557200D02*
X30642857Y-20509580D01*
X30642857Y-20509580D02*
X30595238Y-20414342D01*
X30595238Y-20414342D02*
X30595238Y-20128628D01*
X30595238Y-20128628D02*
X30642857Y-20033390D01*
X30642857Y-20033390D02*
X30690476Y-19985771D01*
X30690476Y-19985771D02*
X30785714Y-19938152D01*
X30785714Y-19938152D02*
X30928571Y-19938152D01*
X30928571Y-19938152D02*
X31023809Y-19985771D01*
X31023809Y-19985771D02*
X31071428Y-20033390D01*
X31071428Y-20033390D02*
X31119047Y-20128628D01*
X31119047Y-20128628D02*
X31119047Y-20414342D01*
X31119047Y-20414342D02*
X31071428Y-20509580D01*
X31071428Y-20509580D02*
X31023809Y-20557200D01*
X31023809Y-20557200D02*
X30928571Y-20604819D01*
X30928571Y-20604819D02*
X30785714Y-20604819D01*
X31690476Y-20604819D02*
X31595238Y-20557200D01*
X31595238Y-20557200D02*
X31547619Y-20461961D01*
X31547619Y-20461961D02*
X31547619Y-19604819D01*
X32452381Y-20557200D02*
X32357143Y-20604819D01*
X32357143Y-20604819D02*
X32166667Y-20604819D01*
X32166667Y-20604819D02*
X32071429Y-20557200D01*
X32071429Y-20557200D02*
X32023810Y-20461961D01*
X32023810Y-20461961D02*
X32023810Y-20081009D01*
X32023810Y-20081009D02*
X32071429Y-19985771D01*
X32071429Y-19985771D02*
X32166667Y-19938152D01*
X32166667Y-19938152D02*
X32357143Y-19938152D01*
X32357143Y-19938152D02*
X32452381Y-19985771D01*
X32452381Y-19985771D02*
X32500000Y-20081009D01*
X32500000Y-20081009D02*
X32500000Y-20176247D01*
X32500000Y-20176247D02*
X32023810Y-20271485D01*
X32690477Y-20700057D02*
X33452381Y-20700057D01*
X33642858Y-19700057D02*
X33690477Y-19652438D01*
X33690477Y-19652438D02*
X33785715Y-19604819D01*
X33785715Y-19604819D02*
X34023810Y-19604819D01*
X34023810Y-19604819D02*
X34119048Y-19652438D01*
X34119048Y-19652438D02*
X34166667Y-19700057D01*
X34166667Y-19700057D02*
X34214286Y-19795295D01*
X34214286Y-19795295D02*
X34214286Y-19890533D01*
X34214286Y-19890533D02*
X34166667Y-20033390D01*
X34166667Y-20033390D02*
X33595239Y-20604819D01*
X33595239Y-20604819D02*
X34214286Y-20604819D01*
X34642858Y-20509580D02*
X34690477Y-20557200D01*
X34690477Y-20557200D02*
X34642858Y-20604819D01*
X34642858Y-20604819D02*
X34595239Y-20557200D01*
X34595239Y-20557200D02*
X34642858Y-20509580D01*
X34642858Y-20509580D02*
X34642858Y-20604819D01*
X35071429Y-19700057D02*
X35119048Y-19652438D01*
X35119048Y-19652438D02*
X35214286Y-19604819D01*
X35214286Y-19604819D02*
X35452381Y-19604819D01*
X35452381Y-19604819D02*
X35547619Y-19652438D01*
X35547619Y-19652438D02*
X35595238Y-19700057D01*
X35595238Y-19700057D02*
X35642857Y-19795295D01*
X35642857Y-19795295D02*
X35642857Y-19890533D01*
X35642857Y-19890533D02*
X35595238Y-20033390D01*
X35595238Y-20033390D02*
X35023810Y-20604819D01*
X35023810Y-20604819D02*
X35642857Y-20604819D01*
X36071429Y-20604819D02*
X36071429Y-19938152D01*
X36071429Y-20033390D02*
X36119048Y-19985771D01*
X36119048Y-19985771D02*
X36214286Y-19938152D01*
X36214286Y-19938152D02*
X36357143Y-19938152D01*
X36357143Y-19938152D02*
X36452381Y-19985771D01*
X36452381Y-19985771D02*
X36500000Y-20081009D01*
X36500000Y-20081009D02*
X36500000Y-20604819D01*
X36500000Y-20081009D02*
X36547619Y-19985771D01*
X36547619Y-19985771D02*
X36642857Y-19938152D01*
X36642857Y-19938152D02*
X36785714Y-19938152D01*
X36785714Y-19938152D02*
X36880953Y-19985771D01*
X36880953Y-19985771D02*
X36928572Y-20081009D01*
X36928572Y-20081009D02*
X36928572Y-20604819D01*
X37404762Y-20604819D02*
X37404762Y-19938152D01*
X37404762Y-20033390D02*
X37452381Y-19985771D01*
X37452381Y-19985771D02*
X37547619Y-19938152D01*
X37547619Y-19938152D02*
X37690476Y-19938152D01*
X37690476Y-19938152D02*
X37785714Y-19985771D01*
X37785714Y-19985771D02*
X37833333Y-20081009D01*
X37833333Y-20081009D02*
X37833333Y-20604819D01*
X37833333Y-20081009D02*
X37880952Y-19985771D01*
X37880952Y-19985771D02*
X37976190Y-19938152D01*
X37976190Y-19938152D02*
X38119047Y-19938152D01*
X38119047Y-19938152D02*
X38214286Y-19985771D01*
X38214286Y-19985771D02*
X38261905Y-20081009D01*
X38261905Y-20081009D02*
X38261905Y-20604819D01*
X38500000Y-20700057D02*
X39261904Y-20700057D01*
X39500000Y-20604819D02*
X39500000Y-19604819D01*
X39500000Y-19604819D02*
X39833333Y-20319104D01*
X39833333Y-20319104D02*
X40166666Y-19604819D01*
X40166666Y-19604819D02*
X40166666Y-20604819D01*
X40595238Y-19700057D02*
X40642857Y-19652438D01*
X40642857Y-19652438D02*
X40738095Y-19604819D01*
X40738095Y-19604819D02*
X40976190Y-19604819D01*
X40976190Y-19604819D02*
X41071428Y-19652438D01*
X41071428Y-19652438D02*
X41119047Y-19700057D01*
X41119047Y-19700057D02*
X41166666Y-19795295D01*
X41166666Y-19795295D02*
X41166666Y-19890533D01*
X41166666Y-19890533D02*
X41119047Y-20033390D01*
X41119047Y-20033390D02*
X40547619Y-20604819D01*
X40547619Y-20604819D02*
X41166666Y-20604819D01*
X31238095Y-17454819D02*
X31238095Y-16454819D01*
X31238095Y-16931009D02*
X31809523Y-16931009D01*
X31809523Y-17454819D02*
X31809523Y-16454819D01*
X32238095Y-16550057D02*
X32285714Y-16502438D01*
X32285714Y-16502438D02*
X32380952Y-16454819D01*
X32380952Y-16454819D02*
X32619047Y-16454819D01*
X32619047Y-16454819D02*
X32714285Y-16502438D01*
X32714285Y-16502438D02*
X32761904Y-16550057D01*
X32761904Y-16550057D02*
X32809523Y-16645295D01*
X32809523Y-16645295D02*
X32809523Y-16740533D01*
X32809523Y-16740533D02*
X32761904Y-16883390D01*
X32761904Y-16883390D02*
X32190476Y-17454819D01*
X32190476Y-17454819D02*
X32809523Y-17454819D01*
X19357142Y-12004819D02*
X18785714Y-12004819D01*
X19071428Y-12004819D02*
X19071428Y-11004819D01*
X19071428Y-11004819D02*
X18976190Y-11147676D01*
X18976190Y-11147676D02*
X18880952Y-11242914D01*
X18880952Y-11242914D02*
X18785714Y-11290533D01*
X19976190Y-11004819D02*
X20071428Y-11004819D01*
X20071428Y-11004819D02*
X20166666Y-11052438D01*
X20166666Y-11052438D02*
X20214285Y-11100057D01*
X20214285Y-11100057D02*
X20261904Y-11195295D01*
X20261904Y-11195295D02*
X20309523Y-11385771D01*
X20309523Y-11385771D02*
X20309523Y-11623866D01*
X20309523Y-11623866D02*
X20261904Y-11814342D01*
X20261904Y-11814342D02*
X20214285Y-11909580D01*
X20214285Y-11909580D02*
X20166666Y-11957200D01*
X20166666Y-11957200D02*
X20071428Y-12004819D01*
X20071428Y-12004819D02*
X19976190Y-12004819D01*
X19976190Y-12004819D02*
X19880952Y-11957200D01*
X19880952Y-11957200D02*
X19833333Y-11909580D01*
X19833333Y-11909580D02*
X19785714Y-11814342D01*
X19785714Y-11814342D02*
X19738095Y-11623866D01*
X19738095Y-11623866D02*
X19738095Y-11385771D01*
X19738095Y-11385771D02*
X19785714Y-11195295D01*
X19785714Y-11195295D02*
X19833333Y-11100057D01*
X19833333Y-11100057D02*
X19880952Y-11052438D01*
X19880952Y-11052438D02*
X19976190Y-11004819D01*
X20928571Y-11004819D02*
X21023809Y-11004819D01*
X21023809Y-11004819D02*
X21119047Y-11052438D01*
X21119047Y-11052438D02*
X21166666Y-11100057D01*
X21166666Y-11100057D02*
X21214285Y-11195295D01*
X21214285Y-11195295D02*
X21261904Y-11385771D01*
X21261904Y-11385771D02*
X21261904Y-11623866D01*
X21261904Y-11623866D02*
X21214285Y-11814342D01*
X21214285Y-11814342D02*
X21166666Y-11909580D01*
X21166666Y-11909580D02*
X21119047Y-11957200D01*
X21119047Y-11957200D02*
X21023809Y-12004819D01*
X21023809Y-12004819D02*
X20928571Y-12004819D01*
X20928571Y-12004819D02*
X20833333Y-11957200D01*
X20833333Y-11957200D02*
X20785714Y-11909580D01*
X20785714Y-11909580D02*
X20738095Y-11814342D01*
X20738095Y-11814342D02*
X20690476Y-11623866D01*
X20690476Y-11623866D02*
X20690476Y-11385771D01*
X20690476Y-11385771D02*
X20738095Y-11195295D01*
X20738095Y-11195295D02*
X20785714Y-11100057D01*
X20785714Y-11100057D02*
X20833333Y-11052438D01*
X20833333Y-11052438D02*
X20928571Y-11004819D01*
X21690476Y-11338152D02*
X21690476Y-12004819D01*
X21690476Y-11433390D02*
X21738095Y-11385771D01*
X21738095Y-11385771D02*
X21833333Y-11338152D01*
X21833333Y-11338152D02*
X21976190Y-11338152D01*
X21976190Y-11338152D02*
X22071428Y-11385771D01*
X22071428Y-11385771D02*
X22119047Y-11481009D01*
X22119047Y-11481009D02*
X22119047Y-12004819D01*
X22595238Y-12004819D02*
X22595238Y-11004819D01*
X22595238Y-11481009D02*
X23166666Y-11481009D01*
X23166666Y-12004819D02*
X23166666Y-11004819D01*
D11*
X20916666Y-10227149D02*
X20678571Y-10227149D01*
X20678571Y-10227149D02*
X20678571Y-9727149D01*
X21345238Y-10227149D02*
X21059524Y-10227149D01*
X21202381Y-10227149D02*
X21202381Y-9727149D01*
X21202381Y-9727149D02*
X21154762Y-9798578D01*
X21154762Y-9798578D02*
X21107143Y-9846197D01*
X21107143Y-9846197D02*
X21059524Y-9870006D01*
D10*
X27404762Y-15327200D02*
X27547619Y-15374819D01*
X27547619Y-15374819D02*
X27785714Y-15374819D01*
X27785714Y-15374819D02*
X27880952Y-15327200D01*
X27880952Y-15327200D02*
X27928571Y-15279580D01*
X27928571Y-15279580D02*
X27976190Y-15184342D01*
X27976190Y-15184342D02*
X27976190Y-15089104D01*
X27976190Y-15089104D02*
X27928571Y-14993866D01*
X27928571Y-14993866D02*
X27880952Y-14946247D01*
X27880952Y-14946247D02*
X27785714Y-14898628D01*
X27785714Y-14898628D02*
X27595238Y-14851009D01*
X27595238Y-14851009D02*
X27500000Y-14803390D01*
X27500000Y-14803390D02*
X27452381Y-14755771D01*
X27452381Y-14755771D02*
X27404762Y-14660533D01*
X27404762Y-14660533D02*
X27404762Y-14565295D01*
X27404762Y-14565295D02*
X27452381Y-14470057D01*
X27452381Y-14470057D02*
X27500000Y-14422438D01*
X27500000Y-14422438D02*
X27595238Y-14374819D01*
X27595238Y-14374819D02*
X27833333Y-14374819D01*
X27833333Y-14374819D02*
X27976190Y-14422438D01*
X28404762Y-15374819D02*
X28404762Y-14374819D01*
X28404762Y-14374819D02*
X28738095Y-15089104D01*
X28738095Y-15089104D02*
X29071428Y-14374819D01*
X29071428Y-14374819D02*
X29071428Y-15374819D01*
X29500000Y-15089104D02*
X29976190Y-15089104D01*
X29404762Y-15374819D02*
X29738095Y-14374819D01*
X29738095Y-14374819D02*
X30071428Y-15374819D01*
X30166667Y-15470057D02*
X30928571Y-15470057D01*
X31357143Y-14374819D02*
X31547619Y-14374819D01*
X31547619Y-14374819D02*
X31642857Y-14422438D01*
X31642857Y-14422438D02*
X31738095Y-14517676D01*
X31738095Y-14517676D02*
X31785714Y-14708152D01*
X31785714Y-14708152D02*
X31785714Y-15041485D01*
X31785714Y-15041485D02*
X31738095Y-15231961D01*
X31738095Y-15231961D02*
X31642857Y-15327200D01*
X31642857Y-15327200D02*
X31547619Y-15374819D01*
X31547619Y-15374819D02*
X31357143Y-15374819D01*
X31357143Y-15374819D02*
X31261905Y-15327200D01*
X31261905Y-15327200D02*
X31166667Y-15231961D01*
X31166667Y-15231961D02*
X31119048Y-15041485D01*
X31119048Y-15041485D02*
X31119048Y-14708152D01*
X31119048Y-14708152D02*
X31166667Y-14517676D01*
X31166667Y-14517676D02*
X31261905Y-14422438D01*
X31261905Y-14422438D02*
X31357143Y-14374819D01*
X32214286Y-14374819D02*
X32214286Y-15184342D01*
X32214286Y-15184342D02*
X32261905Y-15279580D01*
X32261905Y-15279580D02*
X32309524Y-15327200D01*
X32309524Y-15327200D02*
X32404762Y-15374819D01*
X32404762Y-15374819D02*
X32595238Y-15374819D01*
X32595238Y-15374819D02*
X32690476Y-15327200D01*
X32690476Y-15327200D02*
X32738095Y-15279580D01*
X32738095Y-15279580D02*
X32785714Y-15184342D01*
X32785714Y-15184342D02*
X32785714Y-14374819D01*
X33119048Y-14374819D02*
X33690476Y-14374819D01*
X33404762Y-15374819D02*
X33404762Y-14374819D01*
X29954819Y-11603333D02*
X30669104Y-11603333D01*
X30669104Y-11603333D02*
X30811961Y-11650952D01*
X30811961Y-11650952D02*
X30907200Y-11746190D01*
X30907200Y-11746190D02*
X30954819Y-11889047D01*
X30954819Y-11889047D02*
X30954819Y-11984285D01*
X30050057Y-11174761D02*
X30002438Y-11127142D01*
X30002438Y-11127142D02*
X29954819Y-11031904D01*
X29954819Y-11031904D02*
X29954819Y-10793809D01*
X29954819Y-10793809D02*
X30002438Y-10698571D01*
X30002438Y-10698571D02*
X30050057Y-10650952D01*
X30050057Y-10650952D02*
X30145295Y-10603333D01*
X30145295Y-10603333D02*
X30240533Y-10603333D01*
X30240533Y-10603333D02*
X30383390Y-10650952D01*
X30383390Y-10650952D02*
X30954819Y-11222380D01*
X30954819Y-11222380D02*
X30954819Y-10603333D01*
X-6119047Y-6604819D02*
X-6119047Y-5604819D01*
X-6119047Y-5604819D02*
X-5785714Y-6319104D01*
X-5785714Y-6319104D02*
X-5452381Y-5604819D01*
X-5452381Y-5604819D02*
X-5452381Y-6604819D01*
X-4833333Y-6604819D02*
X-4928571Y-6557200D01*
X-4928571Y-6557200D02*
X-4976190Y-6509580D01*
X-4976190Y-6509580D02*
X-5023809Y-6414342D01*
X-5023809Y-6414342D02*
X-5023809Y-6128628D01*
X-5023809Y-6128628D02*
X-4976190Y-6033390D01*
X-4976190Y-6033390D02*
X-4928571Y-5985771D01*
X-4928571Y-5985771D02*
X-4833333Y-5938152D01*
X-4833333Y-5938152D02*
X-4690476Y-5938152D01*
X-4690476Y-5938152D02*
X-4595238Y-5985771D01*
X-4595238Y-5985771D02*
X-4547619Y-6033390D01*
X-4547619Y-6033390D02*
X-4500000Y-6128628D01*
X-4500000Y-6128628D02*
X-4500000Y-6414342D01*
X-4500000Y-6414342D02*
X-4547619Y-6509580D01*
X-4547619Y-6509580D02*
X-4595238Y-6557200D01*
X-4595238Y-6557200D02*
X-4690476Y-6604819D01*
X-4690476Y-6604819D02*
X-4833333Y-6604819D01*
X-3642857Y-5938152D02*
X-3642857Y-6604819D01*
X-4071428Y-5938152D02*
X-4071428Y-6461961D01*
X-4071428Y-6461961D02*
X-4023809Y-6557200D01*
X-4023809Y-6557200D02*
X-3928571Y-6604819D01*
X-3928571Y-6604819D02*
X-3785714Y-6604819D01*
X-3785714Y-6604819D02*
X-3690476Y-6557200D01*
X-3690476Y-6557200D02*
X-3642857Y-6509580D01*
X-3166666Y-5938152D02*
X-3166666Y-6604819D01*
X-3166666Y-6033390D02*
X-3119047Y-5985771D01*
X-3119047Y-5985771D02*
X-3023809Y-5938152D01*
X-3023809Y-5938152D02*
X-2880952Y-5938152D01*
X-2880952Y-5938152D02*
X-2785714Y-5985771D01*
X-2785714Y-5985771D02*
X-2738095Y-6081009D01*
X-2738095Y-6081009D02*
X-2738095Y-6604819D01*
X-2404761Y-5938152D02*
X-2023809Y-5938152D01*
X-2261904Y-5604819D02*
X-2261904Y-6461961D01*
X-2261904Y-6461961D02*
X-2214285Y-6557200D01*
X-2214285Y-6557200D02*
X-2119047Y-6604819D01*
X-2119047Y-6604819D02*
X-2023809Y-6604819D01*
X-1690475Y-6604819D02*
X-1690475Y-5938152D01*
X-1690475Y-5604819D02*
X-1738094Y-5652438D01*
X-1738094Y-5652438D02*
X-1690475Y-5700057D01*
X-1690475Y-5700057D02*
X-1642856Y-5652438D01*
X-1642856Y-5652438D02*
X-1690475Y-5604819D01*
X-1690475Y-5604819D02*
X-1690475Y-5700057D01*
X-1214285Y-5938152D02*
X-1214285Y-6604819D01*
X-1214285Y-6033390D02*
X-1166666Y-5985771D01*
X-1166666Y-5985771D02*
X-1071428Y-5938152D01*
X-1071428Y-5938152D02*
X-928571Y-5938152D01*
X-928571Y-5938152D02*
X-833333Y-5985771D01*
X-833333Y-5985771D02*
X-785714Y-6081009D01*
X-785714Y-6081009D02*
X-785714Y-6604819D01*
X119047Y-5938152D02*
X119047Y-6747676D01*
X119047Y-6747676D02*
X71428Y-6842914D01*
X71428Y-6842914D02*
X23809Y-6890533D01*
X23809Y-6890533D02*
X-71428Y-6938152D01*
X-71428Y-6938152D02*
X-214285Y-6938152D01*
X-214285Y-6938152D02*
X-309523Y-6890533D01*
X119047Y-6557200D02*
X23809Y-6604819D01*
X23809Y-6604819D02*
X-166666Y-6604819D01*
X-166666Y-6604819D02*
X-261904Y-6557200D01*
X-261904Y-6557200D02*
X-309523Y-6509580D01*
X-309523Y-6509580D02*
X-357142Y-6414342D01*
X-357142Y-6414342D02*
X-357142Y-6128628D01*
X-357142Y-6128628D02*
X-309523Y-6033390D01*
X-309523Y-6033390D02*
X-261904Y-5985771D01*
X-261904Y-5985771D02*
X-166666Y-5938152D01*
X-166666Y-5938152D02*
X23809Y-5938152D01*
X23809Y-5938152D02*
X119047Y-5985771D01*
X595238Y-6604819D02*
X595238Y-5604819D01*
X595238Y-6081009D02*
X1166666Y-6081009D01*
X1166666Y-6604819D02*
X1166666Y-5604819D01*
X1785714Y-6604819D02*
X1690476Y-6557200D01*
X1690476Y-6557200D02*
X1642857Y-6509580D01*
X1642857Y-6509580D02*
X1595238Y-6414342D01*
X1595238Y-6414342D02*
X1595238Y-6128628D01*
X1595238Y-6128628D02*
X1642857Y-6033390D01*
X1642857Y-6033390D02*
X1690476Y-5985771D01*
X1690476Y-5985771D02*
X1785714Y-5938152D01*
X1785714Y-5938152D02*
X1928571Y-5938152D01*
X1928571Y-5938152D02*
X2023809Y-5985771D01*
X2023809Y-5985771D02*
X2071428Y-6033390D01*
X2071428Y-6033390D02*
X2119047Y-6128628D01*
X2119047Y-6128628D02*
X2119047Y-6414342D01*
X2119047Y-6414342D02*
X2071428Y-6509580D01*
X2071428Y-6509580D02*
X2023809Y-6557200D01*
X2023809Y-6557200D02*
X1928571Y-6604819D01*
X1928571Y-6604819D02*
X1785714Y-6604819D01*
X2690476Y-6604819D02*
X2595238Y-6557200D01*
X2595238Y-6557200D02*
X2547619Y-6461961D01*
X2547619Y-6461961D02*
X2547619Y-5604819D01*
X3452381Y-6557200D02*
X3357143Y-6604819D01*
X3357143Y-6604819D02*
X3166667Y-6604819D01*
X3166667Y-6604819D02*
X3071429Y-6557200D01*
X3071429Y-6557200D02*
X3023810Y-6461961D01*
X3023810Y-6461961D02*
X3023810Y-6081009D01*
X3023810Y-6081009D02*
X3071429Y-5985771D01*
X3071429Y-5985771D02*
X3166667Y-5938152D01*
X3166667Y-5938152D02*
X3357143Y-5938152D01*
X3357143Y-5938152D02*
X3452381Y-5985771D01*
X3452381Y-5985771D02*
X3500000Y-6081009D01*
X3500000Y-6081009D02*
X3500000Y-6176247D01*
X3500000Y-6176247D02*
X3023810Y-6271485D01*
X3690477Y-6700057D02*
X4452381Y-6700057D01*
X4642858Y-5700057D02*
X4690477Y-5652438D01*
X4690477Y-5652438D02*
X4785715Y-5604819D01*
X4785715Y-5604819D02*
X5023810Y-5604819D01*
X5023810Y-5604819D02*
X5119048Y-5652438D01*
X5119048Y-5652438D02*
X5166667Y-5700057D01*
X5166667Y-5700057D02*
X5214286Y-5795295D01*
X5214286Y-5795295D02*
X5214286Y-5890533D01*
X5214286Y-5890533D02*
X5166667Y-6033390D01*
X5166667Y-6033390D02*
X4595239Y-6604819D01*
X4595239Y-6604819D02*
X5214286Y-6604819D01*
X5642858Y-6509580D02*
X5690477Y-6557200D01*
X5690477Y-6557200D02*
X5642858Y-6604819D01*
X5642858Y-6604819D02*
X5595239Y-6557200D01*
X5595239Y-6557200D02*
X5642858Y-6509580D01*
X5642858Y-6509580D02*
X5642858Y-6604819D01*
X6071429Y-5700057D02*
X6119048Y-5652438D01*
X6119048Y-5652438D02*
X6214286Y-5604819D01*
X6214286Y-5604819D02*
X6452381Y-5604819D01*
X6452381Y-5604819D02*
X6547619Y-5652438D01*
X6547619Y-5652438D02*
X6595238Y-5700057D01*
X6595238Y-5700057D02*
X6642857Y-5795295D01*
X6642857Y-5795295D02*
X6642857Y-5890533D01*
X6642857Y-5890533D02*
X6595238Y-6033390D01*
X6595238Y-6033390D02*
X6023810Y-6604819D01*
X6023810Y-6604819D02*
X6642857Y-6604819D01*
X7071429Y-6604819D02*
X7071429Y-5938152D01*
X7071429Y-6033390D02*
X7119048Y-5985771D01*
X7119048Y-5985771D02*
X7214286Y-5938152D01*
X7214286Y-5938152D02*
X7357143Y-5938152D01*
X7357143Y-5938152D02*
X7452381Y-5985771D01*
X7452381Y-5985771D02*
X7500000Y-6081009D01*
X7500000Y-6081009D02*
X7500000Y-6604819D01*
X7500000Y-6081009D02*
X7547619Y-5985771D01*
X7547619Y-5985771D02*
X7642857Y-5938152D01*
X7642857Y-5938152D02*
X7785714Y-5938152D01*
X7785714Y-5938152D02*
X7880953Y-5985771D01*
X7880953Y-5985771D02*
X7928572Y-6081009D01*
X7928572Y-6081009D02*
X7928572Y-6604819D01*
X8404762Y-6604819D02*
X8404762Y-5938152D01*
X8404762Y-6033390D02*
X8452381Y-5985771D01*
X8452381Y-5985771D02*
X8547619Y-5938152D01*
X8547619Y-5938152D02*
X8690476Y-5938152D01*
X8690476Y-5938152D02*
X8785714Y-5985771D01*
X8785714Y-5985771D02*
X8833333Y-6081009D01*
X8833333Y-6081009D02*
X8833333Y-6604819D01*
X8833333Y-6081009D02*
X8880952Y-5985771D01*
X8880952Y-5985771D02*
X8976190Y-5938152D01*
X8976190Y-5938152D02*
X9119047Y-5938152D01*
X9119047Y-5938152D02*
X9214286Y-5985771D01*
X9214286Y-5985771D02*
X9261905Y-6081009D01*
X9261905Y-6081009D02*
X9261905Y-6604819D01*
X9500000Y-6700057D02*
X10261904Y-6700057D01*
X10500000Y-6604819D02*
X10500000Y-5604819D01*
X10500000Y-5604819D02*
X10833333Y-6319104D01*
X10833333Y-6319104D02*
X11166666Y-5604819D01*
X11166666Y-5604819D02*
X11166666Y-6604819D01*
X11595238Y-5700057D02*
X11642857Y-5652438D01*
X11642857Y-5652438D02*
X11738095Y-5604819D01*
X11738095Y-5604819D02*
X11976190Y-5604819D01*
X11976190Y-5604819D02*
X12071428Y-5652438D01*
X12071428Y-5652438D02*
X12119047Y-5700057D01*
X12119047Y-5700057D02*
X12166666Y-5795295D01*
X12166666Y-5795295D02*
X12166666Y-5890533D01*
X12166666Y-5890533D02*
X12119047Y-6033390D01*
X12119047Y-6033390D02*
X11547619Y-6604819D01*
X11547619Y-6604819D02*
X12166666Y-6604819D01*
X2238095Y-3454819D02*
X2238095Y-2454819D01*
X2238095Y-2931009D02*
X2809523Y-2931009D01*
X2809523Y-3454819D02*
X2809523Y-2454819D01*
X3809523Y-3454819D02*
X3238095Y-3454819D01*
X3523809Y-3454819D02*
X3523809Y-2454819D01*
X3523809Y-2454819D02*
X3428571Y-2597676D01*
X3428571Y-2597676D02*
X3333333Y-2692914D01*
X3333333Y-2692914D02*
X3238095Y-2740533D01*
%TO.C,J1*%
D12*
X3230000Y-9365000D02*
X3865000Y-8730000D01*
X3230000Y-13810000D02*
X3230000Y-9365000D01*
X3865000Y-8730000D02*
X5770000Y-8730000D01*
X5770000Y-8730000D02*
X5770000Y-13810000D01*
X5770000Y-13810000D02*
X3230000Y-13810000D01*
%TO.C,C1*%
X13000000Y-9375000D02*
X15000000Y-9375000D01*
X15000000Y-10625000D01*
X13000000Y-10625000D01*
X13000000Y-9375000D01*
%TO.C,L1*%
X20000000Y-9550000D02*
X22000000Y-9550000D01*
X22000000Y-10450000D01*
X20000000Y-10450000D01*
X20000000Y-9550000D01*
%TO.C,J2*%
X29230000Y-9365000D02*
X29865000Y-8730000D01*
X29230000Y-13810000D02*
X29230000Y-9365000D01*
X29865000Y-8730000D02*
X31770000Y-8730000D01*
X31770000Y-8730000D02*
X31770000Y-13810000D01*
X31770000Y-13810000D02*
X29230000Y-13810000D01*
%TD*%
M02*
