%TF.GenerationSoftware,KiCad,Pcbnew,10.0.4-10.0.4~ubuntu25.10.1*%
%TF.CreationDate,2026-09-09T18:20:59+00:00*%
%TF.ProjectId,bpf_100mhz_lc,6270665f-3130-4306-9d68-7a5f6c632e6b,rev?*%
%TF.SameCoordinates,Original*%
%TF.FileFunction,Copper,L1,Top*%
%TF.FilePolarity,Positive*%
%FSLAX46Y46*%
G04 Gerber Fmt 4.6, Leading zero omitted, Abs format (unit mm)*
G04 Created by KiCad (PCBNEW 10.0.4-10.0.4~ubuntu25.10.1) date 2026-09-09 18:20:59*
%MOMM*%
%LPD*%
G01*
G04 APERTURE LIST*
G04 Aperture macros list*
%AMRoundRect*
0 Rectangle with rounded corners*
0 $1 Rounding radius*
0 $2 $3 $4 $5 $6 $7 $8 $9 X,Y pos of 4 corners*
0 Add a 4 corners polygon primitive as box body*
4,1,4,$2,$3,$4,$5,$6,$7,$8,$9,$2,$3,0*
0 Add four circle primitives for the rounded corners*
1,1,$1+$1,$2,$3*
1,1,$1+$1,$4,$5*
1,1,$1+$1,$6,$7*
1,1,$1+$1,$8,$9*
0 Add four rect primitives between the rounded corners*
20,1,$1+$1,$2,$3,$4,$5,0*
20,1,$1+$1,$4,$5,$6,$7,0*
20,1,$1+$1,$6,$7,$8,$9,0*
20,1,$1+$1,$8,$9,$2,$3,0*%
G04 Aperture macros list end*
%TA.AperFunction,SMDPad,CuDef*%
%ADD10RoundRect,0.250000X-0.475000X0.250000X-0.475000X-0.250000X0.475000X-0.250000X0.475000X0.250000X0*%
%TD*%
%TA.AperFunction,SMDPad,CuDef*%
%ADD11RoundRect,0.250000X-1.350000X0.385000X-1.350000X-0.385000X1.350000X-0.385000X1.350000X0.385000X0*%
%TD*%
%TA.AperFunction,SMDPad,CuDef*%
%ADD12RoundRect,0.250000X-1.600000X0.425000X-1.600000X-0.425000X1.600000X-0.425000X1.600000X0.425000X0*%
%TD*%
%TA.AperFunction,SMDPad,CuDef*%
%ADD13RoundRect,0.250000X1.350000X-0.385000X1.350000X0.385000X-1.350000X0.385000X-1.350000X-0.385000X0*%
%TD*%
%TA.AperFunction,SMDPad,CuDef*%
%ADD14RoundRect,0.250000X1.600000X-0.425000X1.600000X0.425000X-1.600000X0.425000X-1.600000X-0.425000X0*%
%TD*%
%TA.AperFunction,SMDPad,CuDef*%
%ADD15RoundRect,0.218750X-0.256250X0.218750X-0.256250X-0.218750X0.256250X-0.218750X0.256250X0.218750X0*%
%TD*%
%TA.AperFunction,ViaPad*%
%ADD16C,0.800000*%
%TD*%
%TA.AperFunction,Conductor*%
%ADD17C,1.870000*%
%TD*%
%TA.AperFunction,Conductor*%
%ADD18C,0.800000*%
%TD*%
G04 APERTURE END LIST*
D10*
%TO.P,C1,1*%
%TO.N,RF_IN*%
X14000000Y-10000000D03*
%TO.P,C1,2*%
%TO.N,GND*%
X14000000Y-11900000D03*
%TD*%
D11*
%TO.P,J1,1*%
%TO.N,RF_IN*%
X2100000Y-10000000D03*
D12*
%TO.P,J1,2*%
%TO.N,GND*%
X2350000Y-12825000D03*
X2350000Y-7175000D03*
%TD*%
D13*
%TO.P,J2,1*%
%TO.N,RF_IN*%
X32900000Y-10000000D03*
D14*
%TO.P,J2,2*%
%TO.N,GND*%
X32650000Y-7175000D03*
X32650000Y-12825000D03*
%TD*%
D15*
%TO.P,L1,1*%
%TO.N,RF_IN*%
X21000000Y-10000000D03*
%TO.P,L1,2*%
%TO.N,GND*%
X21000000Y-11575000D03*
%TD*%
D16*
%TO.N,GND*%
X22000000Y-18000000D03*
X28500000Y-15000000D03*
X10000000Y-2000000D03*
X28500000Y-7200000D03*
X4300000Y-7175000D03*
X6000000Y-18000000D03*
X17000000Y-15000000D03*
X14000000Y-18000000D03*
X14000000Y-13100000D03*
X15000000Y-7200000D03*
X4300000Y-12825000D03*
X26000000Y-18000000D03*
X15000000Y-15000000D03*
X9500000Y-7200000D03*
X14000000Y-2000000D03*
X9500000Y-15000000D03*
X18000000Y-18000000D03*
X26500000Y-7200000D03*
X22000000Y-2000000D03*
X10000000Y-18000000D03*
X20500000Y-7200000D03*
X18000000Y-2000000D03*
X30000000Y-2000000D03*
X17500000Y-7200000D03*
X21000000Y-12774999D03*
X6500000Y-7200000D03*
X13000000Y-15000000D03*
X24500000Y-15000000D03*
X6000000Y-2000000D03*
X6500000Y-15000000D03*
X26000000Y-2000000D03*
X30700000Y-12825000D03*
X30700000Y-7175000D03*
X21000000Y-15000000D03*
X23500000Y-7200000D03*
X30000000Y-18000000D03*
X12500000Y-7200000D03*
%TD*%
%TO.N,RF_IN*%
D17*
X2100000Y-10000000D02*
X32900000Y-10000000D01*
%TO.N,GND*%
D18*
X21000000Y-11575000D02*
X21000000Y-12774999D01*
X14000000Y-11900000D02*
X14000000Y-13100000D01*
%TD*%
%TA.AperFunction,Conductor*%
%TO.N,GND*%
G36*
X646785Y-11032480D02*
G01*
X647431Y-11032598D01*
X684306Y-11035500D01*
X1212864Y-11035500D01*
X1279903Y-11055185D01*
X1285749Y-11059182D01*
X1381026Y-11128404D01*
X1400045Y-11142222D01*
X1587346Y-11237657D01*
X1587348Y-11237658D01*
X1687308Y-11270136D01*
X1787270Y-11302616D01*
X1883430Y-11317846D01*
X1994889Y-11335500D01*
X12667390Y-11335500D01*
X12734429Y-11355185D01*
X12780184Y-11407989D01*
X12790128Y-11477147D01*
X12786637Y-11491962D01*
X12785494Y-11497301D01*
X12775000Y-11600013D01*
X12775000Y-11650000D01*
X15224999Y-11650000D01*
X15224999Y-11600028D01*
X15224998Y-11600013D01*
X15214505Y-11497298D01*
X15213089Y-11490681D01*
X15214623Y-11490352D01*
X15212503Y-11428674D01*
X15248235Y-11368633D01*
X15310756Y-11337441D01*
X15332610Y-11335500D01*
X33005111Y-11335500D01*
X33105762Y-11319557D01*
X33212730Y-11302616D01*
X33412654Y-11237657D01*
X33599955Y-11142222D01*
X33680756Y-11083517D01*
X33714251Y-11059182D01*
X33780057Y-11035702D01*
X33787136Y-11035500D01*
X34315686Y-11035500D01*
X34315694Y-11035500D01*
X34352569Y-11032598D01*
X34352570Y-11032597D01*
X34353215Y-11032480D01*
X34353580Y-11032518D01*
X34358886Y-11032101D01*
X34358963Y-11033085D01*
X34422701Y-11039796D01*
X34477201Y-11083517D01*
X34499411Y-11149763D01*
X34499500Y-11154461D01*
X34499500Y-11533069D01*
X34479815Y-11600108D01*
X34427011Y-11645863D01*
X34362899Y-11656427D01*
X34299991Y-11650000D01*
X32900000Y-11650000D01*
X32900000Y-13999999D01*
X34299972Y-13999999D01*
X34299984Y-13999998D01*
X34362897Y-13993571D01*
X34431590Y-14006340D01*
X34482475Y-14054221D01*
X34499500Y-14116929D01*
X34499500Y-17995572D01*
X34499184Y-18004418D01*
X34499184Y-18004419D01*
X34484869Y-18204557D01*
X34482351Y-18222068D01*
X34440645Y-18413790D01*
X34435661Y-18430765D01*
X34367093Y-18614605D01*
X34359743Y-18630699D01*
X34265709Y-18802908D01*
X34256144Y-18817791D01*
X34138561Y-18974864D01*
X34126975Y-18988235D01*
X33988235Y-19126975D01*
X33974864Y-19138561D01*
X33817791Y-19256144D01*
X33802908Y-19265709D01*
X33630699Y-19359743D01*
X33614605Y-19367093D01*
X33430765Y-19435661D01*
X33413790Y-19440645D01*
X33222068Y-19482351D01*
X33204557Y-19484869D01*
X33023779Y-19497799D01*
X33004417Y-19499184D01*
X32995572Y-19499500D01*
X2004428Y-19499500D01*
X1995582Y-19499184D01*
X1973622Y-19497613D01*
X1795442Y-19484869D01*
X1777931Y-19482351D01*
X1586209Y-19440645D01*
X1569234Y-19435661D01*
X1385394Y-19367093D01*
X1369300Y-19359743D01*
X1197091Y-19265709D01*
X1182208Y-19256144D01*
X1025135Y-19138561D01*
X1011764Y-19126975D01*
X873024Y-18988235D01*
X861438Y-18974864D01*
X743855Y-18817791D01*
X734290Y-18802908D01*
X640256Y-18630699D01*
X632909Y-18614611D01*
X564336Y-18430760D01*
X559354Y-18413790D01*
X545586Y-18350500D01*
X517647Y-18222063D01*
X515130Y-18204556D01*
X511589Y-18155051D01*
X500816Y-18004418D01*
X500500Y-17995572D01*
X500500Y-16893713D01*
X30649500Y-16893713D01*
X30649500Y-17106286D01*
X30682753Y-17316239D01*
X30748444Y-17518414D01*
X30844951Y-17707820D01*
X30969890Y-17879786D01*
X31120213Y-18030109D01*
X31292179Y-18155048D01*
X31292181Y-18155049D01*
X31292184Y-18155051D01*
X31481588Y-18251557D01*
X31683757Y-18317246D01*
X31893713Y-18350500D01*
X31893714Y-18350500D01*
X32106286Y-18350500D01*
X32106287Y-18350500D01*
X32316243Y-18317246D01*
X32518412Y-18251557D01*
X32707816Y-18155051D01*
X32729789Y-18139086D01*
X32879786Y-18030109D01*
X32879788Y-18030106D01*
X32879792Y-18030104D01*
X33030104Y-17879792D01*
X33030106Y-17879788D01*
X33030109Y-17879786D01*
X33155048Y-17707820D01*
X33155047Y-17707820D01*
X33155051Y-17707816D01*
X33251557Y-17518412D01*
X33317246Y-17316243D01*
X33350500Y-17106287D01*
X33350500Y-16893713D01*
X33317246Y-16683757D01*
X33251557Y-16481588D01*
X33155051Y-16292184D01*
X33155049Y-16292181D01*
X33155048Y-16292179D01*
X33030109Y-16120213D01*
X32879786Y-15969890D01*
X32707820Y-15844951D01*
X32518414Y-15748444D01*
X32518413Y-15748443D01*
X32518412Y-15748443D01*
X32316243Y-15682754D01*
X32316241Y-15682753D01*
X32316240Y-15682753D01*
X32154957Y-15657208D01*
X32106287Y-15649500D01*
X31893713Y-15649500D01*
X31845042Y-15657208D01*
X31683760Y-15682753D01*
X31481585Y-15748444D01*
X31292179Y-15844951D01*
X31120213Y-15969890D01*
X30969890Y-16120213D01*
X30844951Y-16292179D01*
X30748444Y-16481585D01*
X30682753Y-16683760D01*
X30649500Y-16893713D01*
X500500Y-16893713D01*
X500500Y-14116930D01*
X520185Y-14049891D01*
X572989Y-14004136D01*
X637103Y-13993572D01*
X700020Y-13999999D01*
X2099999Y-13999999D01*
X2600000Y-13999999D01*
X3999972Y-13999999D01*
X3999986Y-13999998D01*
X4102697Y-13989505D01*
X4269119Y-13934358D01*
X4269124Y-13934356D01*
X4418345Y-13842315D01*
X4542315Y-13718345D01*
X4634356Y-13569124D01*
X4634358Y-13569119D01*
X4689505Y-13402697D01*
X4689506Y-13402690D01*
X4699999Y-13299986D01*
X30300001Y-13299986D01*
X30310494Y-13402697D01*
X30365641Y-13569119D01*
X30365643Y-13569124D01*
X30457684Y-13718345D01*
X30581654Y-13842315D01*
X30730875Y-13934356D01*
X30730880Y-13934358D01*
X30897302Y-13989505D01*
X30897309Y-13989506D01*
X31000019Y-13999999D01*
X32399999Y-13999999D01*
X32400000Y-13999998D01*
X32400000Y-13075000D01*
X30300001Y-13075000D01*
X30300001Y-13299986D01*
X4699999Y-13299986D01*
X4700000Y-13299973D01*
X4700000Y-13075000D01*
X2600000Y-13075000D01*
X2600000Y-13999999D01*
X2099999Y-13999999D01*
X2100000Y-13999998D01*
X2100000Y-12575000D01*
X2600000Y-12575000D01*
X4699999Y-12575000D01*
X4699999Y-12350028D01*
X4699998Y-12350013D01*
X4689506Y-12247304D01*
X4673826Y-12199986D01*
X12775001Y-12199986D01*
X12785494Y-12302697D01*
X12840641Y-12469119D01*
X12840643Y-12469124D01*
X12932684Y-12618345D01*
X13056654Y-12742315D01*
X13205875Y-12834356D01*
X13205880Y-12834358D01*
X13372302Y-12889505D01*
X13372309Y-12889506D01*
X13475019Y-12899999D01*
X13749999Y-12899999D01*
X14250000Y-12899999D01*
X14524972Y-12899999D01*
X14524987Y-12899998D01*
X14627697Y-12889505D01*
X14794119Y-12834358D01*
X14794124Y-12834356D01*
X14943345Y-12742315D01*
X15067315Y-12618345D01*
X15159356Y-12469124D01*
X15159358Y-12469119D01*
X15214505Y-12302697D01*
X15214506Y-12302690D01*
X15224999Y-12199986D01*
X15225000Y-12199973D01*
X15225000Y-12150000D01*
X14250000Y-12150000D01*
X14250000Y-12899999D01*
X13749999Y-12899999D01*
X13750000Y-12899998D01*
X13750000Y-12150000D01*
X12775001Y-12150000D01*
X12775001Y-12199986D01*
X4673826Y-12199986D01*
X4653167Y-12137643D01*
X4653166Y-12137640D01*
X4634359Y-12080882D01*
X4634356Y-12080875D01*
X4542315Y-11931654D01*
X4452313Y-11841652D01*
X20025001Y-11841652D01*
X20035056Y-11940083D01*
X20087906Y-12099572D01*
X20087908Y-12099577D01*
X20176114Y-12242580D01*
X20294919Y-12361385D01*
X20437922Y-12449591D01*
X20437927Y-12449593D01*
X20597416Y-12502442D01*
X20695855Y-12512499D01*
X21250000Y-12512499D01*
X21304136Y-12512499D01*
X21304152Y-12512498D01*
X21402583Y-12502443D01*
X21562072Y-12449593D01*
X21562077Y-12449591D01*
X21705080Y-12361385D01*
X21716452Y-12350013D01*
X30300000Y-12350013D01*
X30300000Y-12575000D01*
X32400000Y-12575000D01*
X32400000Y-11650000D01*
X31000028Y-11650000D01*
X31000012Y-11650001D01*
X30897302Y-11660494D01*
X30730880Y-11715641D01*
X30730875Y-11715643D01*
X30581654Y-11807684D01*
X30457684Y-11931654D01*
X30365643Y-12080875D01*
X30365641Y-12080880D01*
X30310494Y-12247302D01*
X30310493Y-12247309D01*
X30300000Y-12350013D01*
X21716452Y-12350013D01*
X21807283Y-12259183D01*
X21823885Y-12242580D01*
X21912091Y-12099577D01*
X21912093Y-12099572D01*
X21964942Y-11940083D01*
X21974999Y-11841650D01*
X21975000Y-11841637D01*
X21975000Y-11825000D01*
X21250000Y-11825000D01*
X21250000Y-12512499D01*
X20695855Y-12512499D01*
X20749999Y-12512498D01*
X20750000Y-12512498D01*
X20750000Y-11825000D01*
X20025001Y-11825000D01*
X20025001Y-11841652D01*
X4452313Y-11841652D01*
X4418345Y-11807684D01*
X4269124Y-11715643D01*
X4269119Y-11715641D01*
X4102697Y-11660494D01*
X4102690Y-11660493D01*
X3999986Y-11650000D01*
X2600000Y-11650000D01*
X2600000Y-12575000D01*
X2100000Y-12575000D01*
X2100000Y-11650000D01*
X700028Y-11650000D01*
X700010Y-11650001D01*
X637101Y-11656428D01*
X568408Y-11643658D01*
X517524Y-11595777D01*
X500500Y-11533070D01*
X500500Y-11154461D01*
X520185Y-11087422D01*
X572989Y-11041667D01*
X642147Y-11031723D01*
X646785Y-11032480D01*
G37*
%TD.AperFunction*%
%TA.AperFunction,Conductor*%
G36*
X33004418Y-500816D02*
G01*
X33204561Y-515130D01*
X33222063Y-517647D01*
X33413795Y-559355D01*
X33430760Y-564336D01*
X33614611Y-632909D01*
X33630694Y-640253D01*
X33747495Y-704032D01*
X33802908Y-734290D01*
X33817791Y-743855D01*
X33974864Y-861438D01*
X33988235Y-873024D01*
X34126975Y-1011764D01*
X34138561Y-1025135D01*
X34256144Y-1182208D01*
X34265709Y-1197091D01*
X34359743Y-1369300D01*
X34367093Y-1385394D01*
X34435661Y-1569234D01*
X34440645Y-1586209D01*
X34482351Y-1777931D01*
X34484869Y-1795442D01*
X34488410Y-1844949D01*
X34497346Y-1969890D01*
X34499184Y-1995580D01*
X34499500Y-2004427D01*
X34499500Y-5883069D01*
X34479815Y-5950108D01*
X34427011Y-5995863D01*
X34362899Y-6006427D01*
X34299991Y-6000000D01*
X32900000Y-6000000D01*
X32900000Y-8349999D01*
X34299972Y-8349999D01*
X34299984Y-8349998D01*
X34362897Y-8343571D01*
X34431590Y-8356340D01*
X34482475Y-8404221D01*
X34499500Y-8466929D01*
X34499500Y-8845538D01*
X34479815Y-8912577D01*
X34427011Y-8958332D01*
X34357853Y-8968276D01*
X34353232Y-8967522D01*
X34352577Y-8967402D01*
X34315701Y-8964500D01*
X34315694Y-8964500D01*
X33787136Y-8964500D01*
X33720097Y-8944815D01*
X33714251Y-8940818D01*
X33599958Y-8857780D01*
X33599957Y-8857779D01*
X33599955Y-8857778D01*
X33506304Y-8810060D01*
X33412651Y-8762341D01*
X33212731Y-8697384D01*
X33005111Y-8664500D01*
X33005106Y-8664500D01*
X1994894Y-8664500D01*
X1994889Y-8664500D01*
X1787268Y-8697384D01*
X1587348Y-8762341D01*
X1400041Y-8857780D01*
X1285749Y-8940818D01*
X1219943Y-8964298D01*
X1212864Y-8964500D01*
X684298Y-8964500D01*
X647422Y-8967402D01*
X646768Y-8967522D01*
X646399Y-8967483D01*
X641114Y-8967899D01*
X641036Y-8966917D01*
X577283Y-8960196D01*
X522789Y-8916467D01*
X500588Y-8850219D01*
X500500Y-8845538D01*
X500500Y-8466930D01*
X520185Y-8399891D01*
X572989Y-8354136D01*
X637103Y-8343572D01*
X700020Y-8349999D01*
X2099999Y-8349999D01*
X2600000Y-8349999D01*
X3999972Y-8349999D01*
X3999986Y-8349998D01*
X4102697Y-8339505D01*
X4269119Y-8284358D01*
X4269124Y-8284356D01*
X4418345Y-8192315D01*
X4542315Y-8068345D01*
X4634356Y-7919124D01*
X4634358Y-7919119D01*
X4689505Y-7752697D01*
X4689506Y-7752690D01*
X4699999Y-7649986D01*
X30300001Y-7649986D01*
X30310494Y-7752697D01*
X30365641Y-7919119D01*
X30365643Y-7919124D01*
X30457684Y-8068345D01*
X30581654Y-8192315D01*
X30730875Y-8284356D01*
X30730880Y-8284358D01*
X30897302Y-8339505D01*
X30897309Y-8339506D01*
X31000019Y-8349999D01*
X32399999Y-8349999D01*
X32400000Y-8349998D01*
X32400000Y-7425000D01*
X30300001Y-7425000D01*
X30300001Y-7649986D01*
X4699999Y-7649986D01*
X4700000Y-7649973D01*
X4700000Y-7425000D01*
X2600000Y-7425000D01*
X2600000Y-8349999D01*
X2099999Y-8349999D01*
X2100000Y-8349998D01*
X2100000Y-6925000D01*
X2600000Y-6925000D01*
X4699999Y-6925000D01*
X4699999Y-6700029D01*
X4699998Y-6700013D01*
X30300000Y-6700013D01*
X30300000Y-6925000D01*
X32400000Y-6925000D01*
X32400000Y-6000000D01*
X31000028Y-6000000D01*
X31000012Y-6000001D01*
X30897302Y-6010494D01*
X30730880Y-6065641D01*
X30730875Y-6065643D01*
X30581654Y-6157684D01*
X30457684Y-6281654D01*
X30365643Y-6430875D01*
X30365641Y-6430880D01*
X30310494Y-6597302D01*
X30310493Y-6597309D01*
X30300000Y-6700013D01*
X4699998Y-6700013D01*
X4699998Y-6700012D01*
X4689505Y-6597302D01*
X4634358Y-6430880D01*
X4634356Y-6430875D01*
X4542315Y-6281654D01*
X4418345Y-6157684D01*
X4269124Y-6065643D01*
X4269119Y-6065641D01*
X4102697Y-6010494D01*
X4102690Y-6010493D01*
X3999986Y-6000000D01*
X2600000Y-6000000D01*
X2600000Y-6925000D01*
X2100000Y-6925000D01*
X2100000Y-6000000D01*
X700028Y-6000000D01*
X700010Y-6000001D01*
X637101Y-6006428D01*
X568408Y-5993658D01*
X517524Y-5945777D01*
X500500Y-5883070D01*
X500500Y-2893713D01*
X1649500Y-2893713D01*
X1649500Y-3106286D01*
X1682753Y-3316239D01*
X1748444Y-3518414D01*
X1844951Y-3707820D01*
X1969890Y-3879786D01*
X2120213Y-4030109D01*
X2292179Y-4155048D01*
X2292181Y-4155049D01*
X2292184Y-4155051D01*
X2481588Y-4251557D01*
X2683757Y-4317246D01*
X2893713Y-4350500D01*
X2893714Y-4350500D01*
X3106286Y-4350500D01*
X3106287Y-4350500D01*
X3316243Y-4317246D01*
X3518412Y-4251557D01*
X3707816Y-4155051D01*
X3729789Y-4139086D01*
X3879786Y-4030109D01*
X3879788Y-4030106D01*
X3879792Y-4030104D01*
X4030104Y-3879792D01*
X4030106Y-3879788D01*
X4030109Y-3879786D01*
X4155048Y-3707820D01*
X4155047Y-3707820D01*
X4155051Y-3707816D01*
X4251557Y-3518412D01*
X4317246Y-3316243D01*
X4350500Y-3106287D01*
X4350500Y-2893713D01*
X4317246Y-2683757D01*
X4251557Y-2481588D01*
X4155051Y-2292184D01*
X4155049Y-2292181D01*
X4155048Y-2292179D01*
X4030109Y-2120213D01*
X3879786Y-1969890D01*
X3707820Y-1844951D01*
X3518414Y-1748444D01*
X3518413Y-1748443D01*
X3518412Y-1748443D01*
X3316243Y-1682754D01*
X3316241Y-1682753D01*
X3316240Y-1682753D01*
X3154957Y-1657208D01*
X3106287Y-1649500D01*
X2893713Y-1649500D01*
X2845042Y-1657208D01*
X2683760Y-1682753D01*
X2481585Y-1748444D01*
X2292179Y-1844951D01*
X2120213Y-1969890D01*
X1969890Y-2120213D01*
X1844951Y-2292179D01*
X1748444Y-2481585D01*
X1682753Y-2683760D01*
X1649500Y-2893713D01*
X500500Y-2893713D01*
X500500Y-2004427D01*
X500816Y-1995581D01*
X502653Y-1969896D01*
X515131Y-1795434D01*
X517646Y-1777938D01*
X559356Y-1586200D01*
X564335Y-1569242D01*
X632911Y-1385382D01*
X640251Y-1369310D01*
X734294Y-1197083D01*
X743850Y-1182214D01*
X861443Y-1025128D01*
X873017Y-1011771D01*
X1011771Y-873017D01*
X1025128Y-861443D01*
X1182214Y-743850D01*
X1197083Y-734294D01*
X1369310Y-640251D01*
X1385382Y-632911D01*
X1569242Y-564335D01*
X1586200Y-559356D01*
X1777938Y-517646D01*
X1795436Y-515130D01*
X1995582Y-500816D01*
X2004428Y-500500D01*
X2065892Y-500500D01*
X32934108Y-500500D01*
X32995572Y-500500D01*
X33004418Y-500816D01*
G37*
%TD.AperFunction*%
%TD*%
M02*
