%TF.GenerationSoftware,KiCad,Pcbnew,10.0.4-10.0.4~ubuntu25.10.1*%
%TF.CreationDate,2026-09-09T18:21:00+00:00*%
%TF.ProjectId,bpf_100mhz_lc,6270665f-3130-4306-9d68-7a5f6c632e6b,rev?*%
%TF.SameCoordinates,Original*%
%TF.FileFunction,Other,Comment*%
%FSLAX46Y46*%
G04 Gerber Fmt 4.6, Leading zero omitted, Abs format (unit mm)*
G04 Created by KiCad (PCBNEW 10.0.4-10.0.4~ubuntu25.10.1) date 2026-09-09 18:21:00*
%MOMM*%
%LPD*%
G01*
G04 APERTURE LIST*
%ADD10C,0.150000*%
G04 APERTURE END LIST*
D10*
X-7090476Y-4851009D02*
X-6947619Y-4898628D01*
X-6947619Y-4898628D02*
X-6900000Y-4946247D01*
X-6900000Y-4946247D02*
X-6852381Y-5041485D01*
X-6852381Y-5041485D02*
X-6852381Y-5184342D01*
X-6852381Y-5184342D02*
X-6900000Y-5279580D01*
X-6900000Y-5279580D02*
X-6947619Y-5327200D01*
X-6947619Y-5327200D02*
X-7042857Y-5374819D01*
X-7042857Y-5374819D02*
X-7423809Y-5374819D01*
X-7423809Y-5374819D02*
X-7423809Y-4374819D01*
X-7423809Y-4374819D02*
X-7090476Y-4374819D01*
X-7090476Y-4374819D02*
X-6995238Y-4422438D01*
X-6995238Y-4422438D02*
X-6947619Y-4470057D01*
X-6947619Y-4470057D02*
X-6900000Y-4565295D01*
X-6900000Y-4565295D02*
X-6900000Y-4660533D01*
X-6900000Y-4660533D02*
X-6947619Y-4755771D01*
X-6947619Y-4755771D02*
X-6995238Y-4803390D01*
X-6995238Y-4803390D02*
X-7090476Y-4851009D01*
X-7090476Y-4851009D02*
X-7423809Y-4851009D01*
X-6280952Y-5374819D02*
X-6376190Y-5327200D01*
X-6376190Y-5327200D02*
X-6423809Y-5279580D01*
X-6423809Y-5279580D02*
X-6471428Y-5184342D01*
X-6471428Y-5184342D02*
X-6471428Y-4898628D01*
X-6471428Y-4898628D02*
X-6423809Y-4803390D01*
X-6423809Y-4803390D02*
X-6376190Y-4755771D01*
X-6376190Y-4755771D02*
X-6280952Y-4708152D01*
X-6280952Y-4708152D02*
X-6138095Y-4708152D01*
X-6138095Y-4708152D02*
X-6042857Y-4755771D01*
X-6042857Y-4755771D02*
X-5995238Y-4803390D01*
X-5995238Y-4803390D02*
X-5947619Y-4898628D01*
X-5947619Y-4898628D02*
X-5947619Y-5184342D01*
X-5947619Y-5184342D02*
X-5995238Y-5279580D01*
X-5995238Y-5279580D02*
X-6042857Y-5327200D01*
X-6042857Y-5327200D02*
X-6138095Y-5374819D01*
X-6138095Y-5374819D02*
X-6280952Y-5374819D01*
X-5090476Y-5374819D02*
X-5090476Y-4851009D01*
X-5090476Y-4851009D02*
X-5138095Y-4755771D01*
X-5138095Y-4755771D02*
X-5233333Y-4708152D01*
X-5233333Y-4708152D02*
X-5423809Y-4708152D01*
X-5423809Y-4708152D02*
X-5519047Y-4755771D01*
X-5090476Y-5327200D02*
X-5185714Y-5374819D01*
X-5185714Y-5374819D02*
X-5423809Y-5374819D01*
X-5423809Y-5374819D02*
X-5519047Y-5327200D01*
X-5519047Y-5327200D02*
X-5566666Y-5231961D01*
X-5566666Y-5231961D02*
X-5566666Y-5136723D01*
X-5566666Y-5136723D02*
X-5519047Y-5041485D01*
X-5519047Y-5041485D02*
X-5423809Y-4993866D01*
X-5423809Y-4993866D02*
X-5185714Y-4993866D01*
X-5185714Y-4993866D02*
X-5090476Y-4946247D01*
X-4614285Y-5374819D02*
X-4614285Y-4708152D01*
X-4614285Y-4898628D02*
X-4566666Y-4803390D01*
X-4566666Y-4803390D02*
X-4519047Y-4755771D01*
X-4519047Y-4755771D02*
X-4423809Y-4708152D01*
X-4423809Y-4708152D02*
X-4328571Y-4708152D01*
X-3566666Y-5374819D02*
X-3566666Y-4374819D01*
X-3566666Y-5327200D02*
X-3661904Y-5374819D01*
X-3661904Y-5374819D02*
X-3852380Y-5374819D01*
X-3852380Y-5374819D02*
X-3947618Y-5327200D01*
X-3947618Y-5327200D02*
X-3995237Y-5279580D01*
X-3995237Y-5279580D02*
X-4042856Y-5184342D01*
X-4042856Y-5184342D02*
X-4042856Y-4898628D01*
X-4042856Y-4898628D02*
X-3995237Y-4803390D01*
X-3995237Y-4803390D02*
X-3947618Y-4755771D01*
X-3947618Y-4755771D02*
X-3852380Y-4708152D01*
X-3852380Y-4708152D02*
X-3661904Y-4708152D01*
X-3661904Y-4708152D02*
X-3566666Y-4755771D01*
X-2471427Y-4374819D02*
X-1899999Y-4374819D01*
X-2185713Y-5374819D02*
X-2185713Y-4374819D01*
X-1566665Y-5374819D02*
X-1566665Y-4374819D01*
X-1138094Y-5374819D02*
X-1138094Y-4851009D01*
X-1138094Y-4851009D02*
X-1185713Y-4755771D01*
X-1185713Y-4755771D02*
X-1280951Y-4708152D01*
X-1280951Y-4708152D02*
X-1423808Y-4708152D01*
X-1423808Y-4708152D02*
X-1519046Y-4755771D01*
X-1519046Y-4755771D02*
X-1566665Y-4803390D01*
X-661903Y-5374819D02*
X-661903Y-4708152D01*
X-661903Y-4374819D02*
X-709522Y-4422438D01*
X-709522Y-4422438D02*
X-661903Y-4470057D01*
X-661903Y-4470057D02*
X-614284Y-4422438D01*
X-614284Y-4422438D02*
X-661903Y-4374819D01*
X-661903Y-4374819D02*
X-661903Y-4470057D01*
X242857Y-5327200D02*
X147619Y-5374819D01*
X147619Y-5374819D02*
X-42856Y-5374819D01*
X-42856Y-5374819D02*
X-138094Y-5327200D01*
X-138094Y-5327200D02*
X-185713Y-5279580D01*
X-185713Y-5279580D02*
X-233332Y-5184342D01*
X-233332Y-5184342D02*
X-233332Y-4898628D01*
X-233332Y-4898628D02*
X-185713Y-4803390D01*
X-185713Y-4803390D02*
X-138094Y-4755771D01*
X-138094Y-4755771D02*
X-42856Y-4708152D01*
X-42856Y-4708152D02*
X147619Y-4708152D01*
X147619Y-4708152D02*
X242857Y-4755771D01*
X671429Y-5374819D02*
X671429Y-4374819D01*
X766667Y-4993866D02*
X1052381Y-5374819D01*
X1052381Y-4708152D02*
X671429Y-5089104D01*
X1480953Y-4708152D02*
X1480953Y-5374819D01*
X1480953Y-4803390D02*
X1528572Y-4755771D01*
X1528572Y-4755771D02*
X1623810Y-4708152D01*
X1623810Y-4708152D02*
X1766667Y-4708152D01*
X1766667Y-4708152D02*
X1861905Y-4755771D01*
X1861905Y-4755771D02*
X1909524Y-4851009D01*
X1909524Y-4851009D02*
X1909524Y-5374819D01*
X2766667Y-5327200D02*
X2671429Y-5374819D01*
X2671429Y-5374819D02*
X2480953Y-5374819D01*
X2480953Y-5374819D02*
X2385715Y-5327200D01*
X2385715Y-5327200D02*
X2338096Y-5231961D01*
X2338096Y-5231961D02*
X2338096Y-4851009D01*
X2338096Y-4851009D02*
X2385715Y-4755771D01*
X2385715Y-4755771D02*
X2480953Y-4708152D01*
X2480953Y-4708152D02*
X2671429Y-4708152D01*
X2671429Y-4708152D02*
X2766667Y-4755771D01*
X2766667Y-4755771D02*
X2814286Y-4851009D01*
X2814286Y-4851009D02*
X2814286Y-4946247D01*
X2814286Y-4946247D02*
X2338096Y-5041485D01*
X3195239Y-5327200D02*
X3290477Y-5374819D01*
X3290477Y-5374819D02*
X3480953Y-5374819D01*
X3480953Y-5374819D02*
X3576191Y-5327200D01*
X3576191Y-5327200D02*
X3623810Y-5231961D01*
X3623810Y-5231961D02*
X3623810Y-5184342D01*
X3623810Y-5184342D02*
X3576191Y-5089104D01*
X3576191Y-5089104D02*
X3480953Y-5041485D01*
X3480953Y-5041485D02*
X3338096Y-5041485D01*
X3338096Y-5041485D02*
X3242858Y-4993866D01*
X3242858Y-4993866D02*
X3195239Y-4898628D01*
X3195239Y-4898628D02*
X3195239Y-4851009D01*
X3195239Y-4851009D02*
X3242858Y-4755771D01*
X3242858Y-4755771D02*
X3338096Y-4708152D01*
X3338096Y-4708152D02*
X3480953Y-4708152D01*
X3480953Y-4708152D02*
X3576191Y-4755771D01*
X4004763Y-5327200D02*
X4100001Y-5374819D01*
X4100001Y-5374819D02*
X4290477Y-5374819D01*
X4290477Y-5374819D02*
X4385715Y-5327200D01*
X4385715Y-5327200D02*
X4433334Y-5231961D01*
X4433334Y-5231961D02*
X4433334Y-5184342D01*
X4433334Y-5184342D02*
X4385715Y-5089104D01*
X4385715Y-5089104D02*
X4290477Y-5041485D01*
X4290477Y-5041485D02*
X4147620Y-5041485D01*
X4147620Y-5041485D02*
X4052382Y-4993866D01*
X4052382Y-4993866D02*
X4004763Y-4898628D01*
X4004763Y-4898628D02*
X4004763Y-4851009D01*
X4004763Y-4851009D02*
X4052382Y-4755771D01*
X4052382Y-4755771D02*
X4147620Y-4708152D01*
X4147620Y-4708152D02*
X4290477Y-4708152D01*
X4290477Y-4708152D02*
X4385715Y-4755771D01*
X4861906Y-5279580D02*
X4909525Y-5327200D01*
X4909525Y-5327200D02*
X4861906Y-5374819D01*
X4861906Y-5374819D02*
X4814287Y-5327200D01*
X4814287Y-5327200D02*
X4861906Y-5279580D01*
X4861906Y-5279580D02*
X4861906Y-5374819D01*
X4861906Y-4755771D02*
X4909525Y-4803390D01*
X4909525Y-4803390D02*
X4861906Y-4851009D01*
X4861906Y-4851009D02*
X4814287Y-4803390D01*
X4814287Y-4803390D02*
X4861906Y-4755771D01*
X4861906Y-4755771D02*
X4861906Y-4851009D01*
X6623810Y-5374819D02*
X6052382Y-5374819D01*
X6338096Y-5374819D02*
X6338096Y-4374819D01*
X6338096Y-4374819D02*
X6242858Y-4517676D01*
X6242858Y-4517676D02*
X6147620Y-4612914D01*
X6147620Y-4612914D02*
X6052382Y-4660533D01*
X7052382Y-5279580D02*
X7100001Y-5327200D01*
X7100001Y-5327200D02*
X7052382Y-5374819D01*
X7052382Y-5374819D02*
X7004763Y-5327200D01*
X7004763Y-5327200D02*
X7052382Y-5279580D01*
X7052382Y-5279580D02*
X7052382Y-5374819D01*
X8004762Y-4374819D02*
X7528572Y-4374819D01*
X7528572Y-4374819D02*
X7480953Y-4851009D01*
X7480953Y-4851009D02*
X7528572Y-4803390D01*
X7528572Y-4803390D02*
X7623810Y-4755771D01*
X7623810Y-4755771D02*
X7861905Y-4755771D01*
X7861905Y-4755771D02*
X7957143Y-4803390D01*
X7957143Y-4803390D02*
X8004762Y-4851009D01*
X8004762Y-4851009D02*
X8052381Y-4946247D01*
X8052381Y-4946247D02*
X8052381Y-5184342D01*
X8052381Y-5184342D02*
X8004762Y-5279580D01*
X8004762Y-5279580D02*
X7957143Y-5327200D01*
X7957143Y-5327200D02*
X7861905Y-5374819D01*
X7861905Y-5374819D02*
X7623810Y-5374819D01*
X7623810Y-5374819D02*
X7528572Y-5327200D01*
X7528572Y-5327200D02*
X7480953Y-5279580D01*
X8385715Y-4374819D02*
X9052381Y-4374819D01*
X9052381Y-4374819D02*
X8623810Y-5374819D01*
X9433334Y-5374819D02*
X9433334Y-4708152D01*
X9433334Y-4803390D02*
X9480953Y-4755771D01*
X9480953Y-4755771D02*
X9576191Y-4708152D01*
X9576191Y-4708152D02*
X9719048Y-4708152D01*
X9719048Y-4708152D02*
X9814286Y-4755771D01*
X9814286Y-4755771D02*
X9861905Y-4851009D01*
X9861905Y-4851009D02*
X9861905Y-5374819D01*
X9861905Y-4851009D02*
X9909524Y-4755771D01*
X9909524Y-4755771D02*
X10004762Y-4708152D01*
X10004762Y-4708152D02*
X10147619Y-4708152D01*
X10147619Y-4708152D02*
X10242858Y-4755771D01*
X10242858Y-4755771D02*
X10290477Y-4851009D01*
X10290477Y-4851009D02*
X10290477Y-5374819D01*
X10766667Y-5374819D02*
X10766667Y-4708152D01*
X10766667Y-4803390D02*
X10814286Y-4755771D01*
X10814286Y-4755771D02*
X10909524Y-4708152D01*
X10909524Y-4708152D02*
X11052381Y-4708152D01*
X11052381Y-4708152D02*
X11147619Y-4755771D01*
X11147619Y-4755771D02*
X11195238Y-4851009D01*
X11195238Y-4851009D02*
X11195238Y-5374819D01*
X11195238Y-4851009D02*
X11242857Y-4755771D01*
X11242857Y-4755771D02*
X11338095Y-4708152D01*
X11338095Y-4708152D02*
X11480952Y-4708152D01*
X11480952Y-4708152D02*
X11576191Y-4755771D01*
X11576191Y-4755771D02*
X11623810Y-4851009D01*
X11623810Y-4851009D02*
X11623810Y-5374819D01*
X23709523Y-15011009D02*
X23852380Y-15058628D01*
X23852380Y-15058628D02*
X23899999Y-15106247D01*
X23899999Y-15106247D02*
X23947618Y-15201485D01*
X23947618Y-15201485D02*
X23947618Y-15344342D01*
X23947618Y-15344342D02*
X23899999Y-15439580D01*
X23899999Y-15439580D02*
X23852380Y-15487200D01*
X23852380Y-15487200D02*
X23757142Y-15534819D01*
X23757142Y-15534819D02*
X23376190Y-15534819D01*
X23376190Y-15534819D02*
X23376190Y-14534819D01*
X23376190Y-14534819D02*
X23709523Y-14534819D01*
X23709523Y-14534819D02*
X23804761Y-14582438D01*
X23804761Y-14582438D02*
X23852380Y-14630057D01*
X23852380Y-14630057D02*
X23899999Y-14725295D01*
X23899999Y-14725295D02*
X23899999Y-14820533D01*
X23899999Y-14820533D02*
X23852380Y-14915771D01*
X23852380Y-14915771D02*
X23804761Y-14963390D01*
X23804761Y-14963390D02*
X23709523Y-15011009D01*
X23709523Y-15011009D02*
X23376190Y-15011009D01*
X24519047Y-15534819D02*
X24423809Y-15487200D01*
X24423809Y-15487200D02*
X24376190Y-15439580D01*
X24376190Y-15439580D02*
X24328571Y-15344342D01*
X24328571Y-15344342D02*
X24328571Y-15058628D01*
X24328571Y-15058628D02*
X24376190Y-14963390D01*
X24376190Y-14963390D02*
X24423809Y-14915771D01*
X24423809Y-14915771D02*
X24519047Y-14868152D01*
X24519047Y-14868152D02*
X24661904Y-14868152D01*
X24661904Y-14868152D02*
X24757142Y-14915771D01*
X24757142Y-14915771D02*
X24804761Y-14963390D01*
X24804761Y-14963390D02*
X24852380Y-15058628D01*
X24852380Y-15058628D02*
X24852380Y-15344342D01*
X24852380Y-15344342D02*
X24804761Y-15439580D01*
X24804761Y-15439580D02*
X24757142Y-15487200D01*
X24757142Y-15487200D02*
X24661904Y-15534819D01*
X24661904Y-15534819D02*
X24519047Y-15534819D01*
X25709523Y-15534819D02*
X25709523Y-15011009D01*
X25709523Y-15011009D02*
X25661904Y-14915771D01*
X25661904Y-14915771D02*
X25566666Y-14868152D01*
X25566666Y-14868152D02*
X25376190Y-14868152D01*
X25376190Y-14868152D02*
X25280952Y-14915771D01*
X25709523Y-15487200D02*
X25614285Y-15534819D01*
X25614285Y-15534819D02*
X25376190Y-15534819D01*
X25376190Y-15534819D02*
X25280952Y-15487200D01*
X25280952Y-15487200D02*
X25233333Y-15391961D01*
X25233333Y-15391961D02*
X25233333Y-15296723D01*
X25233333Y-15296723D02*
X25280952Y-15201485D01*
X25280952Y-15201485D02*
X25376190Y-15153866D01*
X25376190Y-15153866D02*
X25614285Y-15153866D01*
X25614285Y-15153866D02*
X25709523Y-15106247D01*
X26185714Y-15534819D02*
X26185714Y-14868152D01*
X26185714Y-15058628D02*
X26233333Y-14963390D01*
X26233333Y-14963390D02*
X26280952Y-14915771D01*
X26280952Y-14915771D02*
X26376190Y-14868152D01*
X26376190Y-14868152D02*
X26471428Y-14868152D01*
X27233333Y-15534819D02*
X27233333Y-14534819D01*
X27233333Y-15487200D02*
X27138095Y-15534819D01*
X27138095Y-15534819D02*
X26947619Y-15534819D01*
X26947619Y-15534819D02*
X26852381Y-15487200D01*
X26852381Y-15487200D02*
X26804762Y-15439580D01*
X26804762Y-15439580D02*
X26757143Y-15344342D01*
X26757143Y-15344342D02*
X26757143Y-15058628D01*
X26757143Y-15058628D02*
X26804762Y-14963390D01*
X26804762Y-14963390D02*
X26852381Y-14915771D01*
X26852381Y-14915771D02*
X26947619Y-14868152D01*
X26947619Y-14868152D02*
X27138095Y-14868152D01*
X27138095Y-14868152D02*
X27233333Y-14915771D01*
X28328572Y-14534819D02*
X28900000Y-14534819D01*
X28614286Y-15534819D02*
X28614286Y-14534819D01*
X29233334Y-15534819D02*
X29233334Y-14534819D01*
X29661905Y-15534819D02*
X29661905Y-15011009D01*
X29661905Y-15011009D02*
X29614286Y-14915771D01*
X29614286Y-14915771D02*
X29519048Y-14868152D01*
X29519048Y-14868152D02*
X29376191Y-14868152D01*
X29376191Y-14868152D02*
X29280953Y-14915771D01*
X29280953Y-14915771D02*
X29233334Y-14963390D01*
X30138096Y-15534819D02*
X30138096Y-14868152D01*
X30138096Y-14534819D02*
X30090477Y-14582438D01*
X30090477Y-14582438D02*
X30138096Y-14630057D01*
X30138096Y-14630057D02*
X30185715Y-14582438D01*
X30185715Y-14582438D02*
X30138096Y-14534819D01*
X30138096Y-14534819D02*
X30138096Y-14630057D01*
X31042857Y-15487200D02*
X30947619Y-15534819D01*
X30947619Y-15534819D02*
X30757143Y-15534819D01*
X30757143Y-15534819D02*
X30661905Y-15487200D01*
X30661905Y-15487200D02*
X30614286Y-15439580D01*
X30614286Y-15439580D02*
X30566667Y-15344342D01*
X30566667Y-15344342D02*
X30566667Y-15058628D01*
X30566667Y-15058628D02*
X30614286Y-14963390D01*
X30614286Y-14963390D02*
X30661905Y-14915771D01*
X30661905Y-14915771D02*
X30757143Y-14868152D01*
X30757143Y-14868152D02*
X30947619Y-14868152D01*
X30947619Y-14868152D02*
X31042857Y-14915771D01*
X31471429Y-15534819D02*
X31471429Y-14534819D01*
X31566667Y-15153866D02*
X31852381Y-15534819D01*
X31852381Y-14868152D02*
X31471429Y-15249104D01*
X32280953Y-14868152D02*
X32280953Y-15534819D01*
X32280953Y-14963390D02*
X32328572Y-14915771D01*
X32328572Y-14915771D02*
X32423810Y-14868152D01*
X32423810Y-14868152D02*
X32566667Y-14868152D01*
X32566667Y-14868152D02*
X32661905Y-14915771D01*
X32661905Y-14915771D02*
X32709524Y-15011009D01*
X32709524Y-15011009D02*
X32709524Y-15534819D01*
X33566667Y-15487200D02*
X33471429Y-15534819D01*
X33471429Y-15534819D02*
X33280953Y-15534819D01*
X33280953Y-15534819D02*
X33185715Y-15487200D01*
X33185715Y-15487200D02*
X33138096Y-15391961D01*
X33138096Y-15391961D02*
X33138096Y-15011009D01*
X33138096Y-15011009D02*
X33185715Y-14915771D01*
X33185715Y-14915771D02*
X33280953Y-14868152D01*
X33280953Y-14868152D02*
X33471429Y-14868152D01*
X33471429Y-14868152D02*
X33566667Y-14915771D01*
X33566667Y-14915771D02*
X33614286Y-15011009D01*
X33614286Y-15011009D02*
X33614286Y-15106247D01*
X33614286Y-15106247D02*
X33138096Y-15201485D01*
X33995239Y-15487200D02*
X34090477Y-15534819D01*
X34090477Y-15534819D02*
X34280953Y-15534819D01*
X34280953Y-15534819D02*
X34376191Y-15487200D01*
X34376191Y-15487200D02*
X34423810Y-15391961D01*
X34423810Y-15391961D02*
X34423810Y-15344342D01*
X34423810Y-15344342D02*
X34376191Y-15249104D01*
X34376191Y-15249104D02*
X34280953Y-15201485D01*
X34280953Y-15201485D02*
X34138096Y-15201485D01*
X34138096Y-15201485D02*
X34042858Y-15153866D01*
X34042858Y-15153866D02*
X33995239Y-15058628D01*
X33995239Y-15058628D02*
X33995239Y-15011009D01*
X33995239Y-15011009D02*
X34042858Y-14915771D01*
X34042858Y-14915771D02*
X34138096Y-14868152D01*
X34138096Y-14868152D02*
X34280953Y-14868152D01*
X34280953Y-14868152D02*
X34376191Y-14915771D01*
X34804763Y-15487200D02*
X34900001Y-15534819D01*
X34900001Y-15534819D02*
X35090477Y-15534819D01*
X35090477Y-15534819D02*
X35185715Y-15487200D01*
X35185715Y-15487200D02*
X35233334Y-15391961D01*
X35233334Y-15391961D02*
X35233334Y-15344342D01*
X35233334Y-15344342D02*
X35185715Y-15249104D01*
X35185715Y-15249104D02*
X35090477Y-15201485D01*
X35090477Y-15201485D02*
X34947620Y-15201485D01*
X34947620Y-15201485D02*
X34852382Y-15153866D01*
X34852382Y-15153866D02*
X34804763Y-15058628D01*
X34804763Y-15058628D02*
X34804763Y-15011009D01*
X34804763Y-15011009D02*
X34852382Y-14915771D01*
X34852382Y-14915771D02*
X34947620Y-14868152D01*
X34947620Y-14868152D02*
X35090477Y-14868152D01*
X35090477Y-14868152D02*
X35185715Y-14915771D01*
X35661906Y-15439580D02*
X35709525Y-15487200D01*
X35709525Y-15487200D02*
X35661906Y-15534819D01*
X35661906Y-15534819D02*
X35614287Y-15487200D01*
X35614287Y-15487200D02*
X35661906Y-15439580D01*
X35661906Y-15439580D02*
X35661906Y-15534819D01*
X35661906Y-14915771D02*
X35709525Y-14963390D01*
X35709525Y-14963390D02*
X35661906Y-15011009D01*
X35661906Y-15011009D02*
X35614287Y-14963390D01*
X35614287Y-14963390D02*
X35661906Y-14915771D01*
X35661906Y-14915771D02*
X35661906Y-15011009D01*
X37423810Y-15534819D02*
X36852382Y-15534819D01*
X37138096Y-15534819D02*
X37138096Y-14534819D01*
X37138096Y-14534819D02*
X37042858Y-14677676D01*
X37042858Y-14677676D02*
X36947620Y-14772914D01*
X36947620Y-14772914D02*
X36852382Y-14820533D01*
X37852382Y-15439580D02*
X37900001Y-15487200D01*
X37900001Y-15487200D02*
X37852382Y-15534819D01*
X37852382Y-15534819D02*
X37804763Y-15487200D01*
X37804763Y-15487200D02*
X37852382Y-15439580D01*
X37852382Y-15439580D02*
X37852382Y-15534819D01*
X38804762Y-14534819D02*
X38328572Y-14534819D01*
X38328572Y-14534819D02*
X38280953Y-15011009D01*
X38280953Y-15011009D02*
X38328572Y-14963390D01*
X38328572Y-14963390D02*
X38423810Y-14915771D01*
X38423810Y-14915771D02*
X38661905Y-14915771D01*
X38661905Y-14915771D02*
X38757143Y-14963390D01*
X38757143Y-14963390D02*
X38804762Y-15011009D01*
X38804762Y-15011009D02*
X38852381Y-15106247D01*
X38852381Y-15106247D02*
X38852381Y-15344342D01*
X38852381Y-15344342D02*
X38804762Y-15439580D01*
X38804762Y-15439580D02*
X38757143Y-15487200D01*
X38757143Y-15487200D02*
X38661905Y-15534819D01*
X38661905Y-15534819D02*
X38423810Y-15534819D01*
X38423810Y-15534819D02*
X38328572Y-15487200D01*
X38328572Y-15487200D02*
X38280953Y-15439580D01*
X39185715Y-14534819D02*
X39852381Y-14534819D01*
X39852381Y-14534819D02*
X39423810Y-15534819D01*
X40233334Y-15534819D02*
X40233334Y-14868152D01*
X40233334Y-14963390D02*
X40280953Y-14915771D01*
X40280953Y-14915771D02*
X40376191Y-14868152D01*
X40376191Y-14868152D02*
X40519048Y-14868152D01*
X40519048Y-14868152D02*
X40614286Y-14915771D01*
X40614286Y-14915771D02*
X40661905Y-15011009D01*
X40661905Y-15011009D02*
X40661905Y-15534819D01*
X40661905Y-15011009D02*
X40709524Y-14915771D01*
X40709524Y-14915771D02*
X40804762Y-14868152D01*
X40804762Y-14868152D02*
X40947619Y-14868152D01*
X40947619Y-14868152D02*
X41042858Y-14915771D01*
X41042858Y-14915771D02*
X41090477Y-15011009D01*
X41090477Y-15011009D02*
X41090477Y-15534819D01*
X41566667Y-15534819D02*
X41566667Y-14868152D01*
X41566667Y-14963390D02*
X41614286Y-14915771D01*
X41614286Y-14915771D02*
X41709524Y-14868152D01*
X41709524Y-14868152D02*
X41852381Y-14868152D01*
X41852381Y-14868152D02*
X41947619Y-14915771D01*
X41947619Y-14915771D02*
X41995238Y-15011009D01*
X41995238Y-15011009D02*
X41995238Y-15534819D01*
X41995238Y-15011009D02*
X42042857Y-14915771D01*
X42042857Y-14915771D02*
X42138095Y-14868152D01*
X42138095Y-14868152D02*
X42280952Y-14868152D01*
X42280952Y-14868152D02*
X42376191Y-14915771D01*
X42376191Y-14915771D02*
X42423810Y-15011009D01*
X42423810Y-15011009D02*
X42423810Y-15534819D01*
%TO.C,H1*%
X5200000Y-3000000D02*
G75*
G02*
X800000Y-3000000I-2200000J0D01*
G01*
X800000Y-3000000D02*
G75*
G02*
X5200000Y-3000000I2200000J0D01*
G01*
%TO.C,H2*%
X34200000Y-17000000D02*
G75*
G02*
X29800000Y-17000000I-2200000J0D01*
G01*
X29800000Y-17000000D02*
G75*
G02*
X34200000Y-17000000I2200000J0D01*
G01*
%TD*%
M02*
