%TF.GenerationSoftware,KiCad,Pcbnew,10.0.4-10.0.4~ubuntu25.10.1*%
%TF.CreationDate,2026-09-09T18:20:59+00:00*%
%TF.ProjectId,bpf_100mhz_lc,6270665f-3130-4306-9d68-7a5f6c632e6b,rev?*%
%TF.SameCoordinates,Original*%
%TF.FileFunction,Legend,Top*%
%TF.FilePolarity,Positive*%
%FSLAX46Y46*%
G04 Gerber Fmt 4.6, Leading zero omitted, Abs format (unit mm)*
G04 Created by KiCad (PCBNEW 10.0.4-10.0.4~ubuntu25.10.1) date 2026-09-09 18:20:59*
%MOMM*%
%LPD*%
G01*
G04 APERTURE LIST*
%ADD10C,0.100000*%
%ADD11C,0.150000*%
%ADD12C,0.120000*%
G04 APERTURE END LIST*
D10*
X2980952Y-4864895D02*
X2980952Y-4064895D01*
X2980952Y-4064895D02*
X3285714Y-4064895D01*
X3285714Y-4064895D02*
X3361904Y-4102990D01*
X3361904Y-4102990D02*
X3399999Y-4141085D01*
X3399999Y-4141085D02*
X3438095Y-4217276D01*
X3438095Y-4217276D02*
X3438095Y-4331561D01*
X3438095Y-4331561D02*
X3399999Y-4407752D01*
X3399999Y-4407752D02*
X3361904Y-4445847D01*
X3361904Y-4445847D02*
X3285714Y-4483942D01*
X3285714Y-4483942D02*
X2980952Y-4483942D01*
X3933333Y-4064895D02*
X4085714Y-4064895D01*
X4085714Y-4064895D02*
X4161904Y-4102990D01*
X4161904Y-4102990D02*
X4238095Y-4179180D01*
X4238095Y-4179180D02*
X4276190Y-4331561D01*
X4276190Y-4331561D02*
X4276190Y-4598228D01*
X4276190Y-4598228D02*
X4238095Y-4750609D01*
X4238095Y-4750609D02*
X4161904Y-4826800D01*
X4161904Y-4826800D02*
X4085714Y-4864895D01*
X4085714Y-4864895D02*
X3933333Y-4864895D01*
X3933333Y-4864895D02*
X3857142Y-4826800D01*
X3857142Y-4826800D02*
X3780952Y-4750609D01*
X3780952Y-4750609D02*
X3742856Y-4598228D01*
X3742856Y-4598228D02*
X3742856Y-4331561D01*
X3742856Y-4331561D02*
X3780952Y-4179180D01*
X3780952Y-4179180D02*
X3857142Y-4102990D01*
X3857142Y-4102990D02*
X3933333Y-4064895D01*
X5076190Y-4864895D02*
X4809523Y-4483942D01*
X4619047Y-4864895D02*
X4619047Y-4064895D01*
X4619047Y-4064895D02*
X4923809Y-4064895D01*
X4923809Y-4064895D02*
X4999999Y-4102990D01*
X4999999Y-4102990D02*
X5038094Y-4141085D01*
X5038094Y-4141085D02*
X5076190Y-4217276D01*
X5076190Y-4217276D02*
X5076190Y-4331561D01*
X5076190Y-4331561D02*
X5038094Y-4407752D01*
X5038094Y-4407752D02*
X4999999Y-4445847D01*
X4999999Y-4445847D02*
X4923809Y-4483942D01*
X4923809Y-4483942D02*
X4619047Y-4483942D01*
X5304761Y-4064895D02*
X5761904Y-4064895D01*
X5533332Y-4864895D02*
X5533332Y-4064895D01*
X7057142Y-4864895D02*
X6599999Y-4864895D01*
X6828571Y-4864895D02*
X6828571Y-4064895D01*
X6828571Y-4064895D02*
X6752380Y-4179180D01*
X6752380Y-4179180D02*
X6676190Y-4255371D01*
X6676190Y-4255371D02*
X6599999Y-4293466D01*
X8880951Y-16364895D02*
X8499999Y-16364895D01*
X8499999Y-16364895D02*
X8461903Y-16745847D01*
X8461903Y-16745847D02*
X8499999Y-16707752D01*
X8499999Y-16707752D02*
X8576189Y-16669657D01*
X8576189Y-16669657D02*
X8766665Y-16669657D01*
X8766665Y-16669657D02*
X8842856Y-16707752D01*
X8842856Y-16707752D02*
X8880951Y-16745847D01*
X8880951Y-16745847D02*
X8919046Y-16822038D01*
X8919046Y-16822038D02*
X8919046Y-17012514D01*
X8919046Y-17012514D02*
X8880951Y-17088704D01*
X8880951Y-17088704D02*
X8842856Y-17126800D01*
X8842856Y-17126800D02*
X8766665Y-17164895D01*
X8766665Y-17164895D02*
X8576189Y-17164895D01*
X8576189Y-17164895D02*
X8499999Y-17126800D01*
X8499999Y-17126800D02*
X8461903Y-17088704D01*
X9414285Y-16364895D02*
X9490475Y-16364895D01*
X9490475Y-16364895D02*
X9566666Y-16402990D01*
X9566666Y-16402990D02*
X9604761Y-16441085D01*
X9604761Y-16441085D02*
X9642856Y-16517276D01*
X9642856Y-16517276D02*
X9680951Y-16669657D01*
X9680951Y-16669657D02*
X9680951Y-16860133D01*
X9680951Y-16860133D02*
X9642856Y-17012514D01*
X9642856Y-17012514D02*
X9604761Y-17088704D01*
X9604761Y-17088704D02*
X9566666Y-17126800D01*
X9566666Y-17126800D02*
X9490475Y-17164895D01*
X9490475Y-17164895D02*
X9414285Y-17164895D01*
X9414285Y-17164895D02*
X9338094Y-17126800D01*
X9338094Y-17126800D02*
X9299999Y-17088704D01*
X9299999Y-17088704D02*
X9261904Y-17012514D01*
X9261904Y-17012514D02*
X9223808Y-16860133D01*
X9223808Y-16860133D02*
X9223808Y-16669657D01*
X9223808Y-16669657D02*
X9261904Y-16517276D01*
X9261904Y-16517276D02*
X9299999Y-16441085D01*
X9299999Y-16441085D02*
X9338094Y-16402990D01*
X9338094Y-16402990D02*
X9414285Y-16364895D01*
X9985713Y-17164895D02*
X10176190Y-17164895D01*
X10176190Y-17164895D02*
X10176190Y-17012514D01*
X10176190Y-17012514D02*
X10099999Y-16974419D01*
X10099999Y-16974419D02*
X10023809Y-16898228D01*
X10023809Y-16898228D02*
X9985713Y-16783942D01*
X9985713Y-16783942D02*
X9985713Y-16593466D01*
X9985713Y-16593466D02*
X10023809Y-16479180D01*
X10023809Y-16479180D02*
X10099999Y-16402990D01*
X10099999Y-16402990D02*
X10214285Y-16364895D01*
X10214285Y-16364895D02*
X10366666Y-16364895D01*
X10366666Y-16364895D02*
X10480952Y-16402990D01*
X10480952Y-16402990D02*
X10557142Y-16479180D01*
X10557142Y-16479180D02*
X10595237Y-16593466D01*
X10595237Y-16593466D02*
X10595237Y-16783942D01*
X10595237Y-16783942D02*
X10557142Y-16898228D01*
X10557142Y-16898228D02*
X10480952Y-16974419D01*
X10480952Y-16974419D02*
X10404761Y-17012514D01*
X10404761Y-17012514D02*
X10404761Y-17164895D01*
X10404761Y-17164895D02*
X10595237Y-17164895D01*
X12004762Y-17088704D02*
X11966666Y-17126800D01*
X11966666Y-17126800D02*
X11852381Y-17164895D01*
X11852381Y-17164895D02*
X11776190Y-17164895D01*
X11776190Y-17164895D02*
X11661904Y-17126800D01*
X11661904Y-17126800D02*
X11585714Y-17050609D01*
X11585714Y-17050609D02*
X11547619Y-16974419D01*
X11547619Y-16974419D02*
X11509523Y-16822038D01*
X11509523Y-16822038D02*
X11509523Y-16707752D01*
X11509523Y-16707752D02*
X11547619Y-16555371D01*
X11547619Y-16555371D02*
X11585714Y-16479180D01*
X11585714Y-16479180D02*
X11661904Y-16402990D01*
X11661904Y-16402990D02*
X11776190Y-16364895D01*
X11776190Y-16364895D02*
X11852381Y-16364895D01*
X11852381Y-16364895D02*
X11966666Y-16402990D01*
X11966666Y-16402990D02*
X12004762Y-16441085D01*
X12347619Y-17164895D02*
X12347619Y-16364895D01*
X12347619Y-16364895D02*
X12652381Y-16364895D01*
X12652381Y-16364895D02*
X12728571Y-16402990D01*
X12728571Y-16402990D02*
X12766666Y-16441085D01*
X12766666Y-16441085D02*
X12804762Y-16517276D01*
X12804762Y-16517276D02*
X12804762Y-16631561D01*
X12804762Y-16631561D02*
X12766666Y-16707752D01*
X12766666Y-16707752D02*
X12728571Y-16745847D01*
X12728571Y-16745847D02*
X12652381Y-16783942D01*
X12652381Y-16783942D02*
X12347619Y-16783942D01*
X13071428Y-16364895D02*
X13261904Y-17164895D01*
X13261904Y-17164895D02*
X13414285Y-16593466D01*
X13414285Y-16593466D02*
X13566666Y-17164895D01*
X13566666Y-17164895D02*
X13757143Y-16364895D01*
X14480952Y-16402990D02*
X14404762Y-16364895D01*
X14404762Y-16364895D02*
X14290476Y-16364895D01*
X14290476Y-16364895D02*
X14176190Y-16402990D01*
X14176190Y-16402990D02*
X14100000Y-16479180D01*
X14100000Y-16479180D02*
X14061905Y-16555371D01*
X14061905Y-16555371D02*
X14023809Y-16707752D01*
X14023809Y-16707752D02*
X14023809Y-16822038D01*
X14023809Y-16822038D02*
X14061905Y-16974419D01*
X14061905Y-16974419D02*
X14100000Y-17050609D01*
X14100000Y-17050609D02*
X14176190Y-17126800D01*
X14176190Y-17126800D02*
X14290476Y-17164895D01*
X14290476Y-17164895D02*
X14366667Y-17164895D01*
X14366667Y-17164895D02*
X14480952Y-17126800D01*
X14480952Y-17126800D02*
X14519048Y-17088704D01*
X14519048Y-17088704D02*
X14519048Y-16822038D01*
X14519048Y-16822038D02*
X14366667Y-16822038D01*
X15395238Y-16631561D02*
X15547619Y-17164895D01*
X15547619Y-17164895D02*
X15700000Y-16783942D01*
X15700000Y-16783942D02*
X15852381Y-17164895D01*
X15852381Y-17164895D02*
X16004762Y-16631561D01*
X16309524Y-16745847D02*
X16919048Y-16745847D01*
X16919048Y-16974419D02*
X16309524Y-16974419D01*
X17719047Y-17164895D02*
X17261904Y-17164895D01*
X17490476Y-17164895D02*
X17490476Y-16364895D01*
X17490476Y-16364895D02*
X17414285Y-16479180D01*
X17414285Y-16479180D02*
X17338095Y-16555371D01*
X17338095Y-16555371D02*
X17261904Y-16593466D01*
X18061905Y-17088704D02*
X18100000Y-17126800D01*
X18100000Y-17126800D02*
X18061905Y-17164895D01*
X18061905Y-17164895D02*
X18023809Y-17126800D01*
X18023809Y-17126800D02*
X18061905Y-17088704D01*
X18061905Y-17088704D02*
X18061905Y-17164895D01*
X18557142Y-16707752D02*
X18480952Y-16669657D01*
X18480952Y-16669657D02*
X18442857Y-16631561D01*
X18442857Y-16631561D02*
X18404761Y-16555371D01*
X18404761Y-16555371D02*
X18404761Y-16517276D01*
X18404761Y-16517276D02*
X18442857Y-16441085D01*
X18442857Y-16441085D02*
X18480952Y-16402990D01*
X18480952Y-16402990D02*
X18557142Y-16364895D01*
X18557142Y-16364895D02*
X18709523Y-16364895D01*
X18709523Y-16364895D02*
X18785714Y-16402990D01*
X18785714Y-16402990D02*
X18823809Y-16441085D01*
X18823809Y-16441085D02*
X18861904Y-16517276D01*
X18861904Y-16517276D02*
X18861904Y-16555371D01*
X18861904Y-16555371D02*
X18823809Y-16631561D01*
X18823809Y-16631561D02*
X18785714Y-16669657D01*
X18785714Y-16669657D02*
X18709523Y-16707752D01*
X18709523Y-16707752D02*
X18557142Y-16707752D01*
X18557142Y-16707752D02*
X18480952Y-16745847D01*
X18480952Y-16745847D02*
X18442857Y-16783942D01*
X18442857Y-16783942D02*
X18404761Y-16860133D01*
X18404761Y-16860133D02*
X18404761Y-17012514D01*
X18404761Y-17012514D02*
X18442857Y-17088704D01*
X18442857Y-17088704D02*
X18480952Y-17126800D01*
X18480952Y-17126800D02*
X18557142Y-17164895D01*
X18557142Y-17164895D02*
X18709523Y-17164895D01*
X18709523Y-17164895D02*
X18785714Y-17126800D01*
X18785714Y-17126800D02*
X18823809Y-17088704D01*
X18823809Y-17088704D02*
X18861904Y-17012514D01*
X18861904Y-17012514D02*
X18861904Y-16860133D01*
X18861904Y-16860133D02*
X18823809Y-16783942D01*
X18823809Y-16783942D02*
X18785714Y-16745847D01*
X18785714Y-16745847D02*
X18709523Y-16707752D01*
X19128571Y-16364895D02*
X19661905Y-16364895D01*
X19661905Y-16364895D02*
X19319047Y-17164895D01*
X20538095Y-17126800D02*
X20614286Y-17164895D01*
X20614286Y-17164895D02*
X20766667Y-17164895D01*
X20766667Y-17164895D02*
X20842857Y-17126800D01*
X20842857Y-17126800D02*
X20880953Y-17050609D01*
X20880953Y-17050609D02*
X20880953Y-17012514D01*
X20880953Y-17012514D02*
X20842857Y-16936323D01*
X20842857Y-16936323D02*
X20766667Y-16898228D01*
X20766667Y-16898228D02*
X20652381Y-16898228D01*
X20652381Y-16898228D02*
X20576191Y-16860133D01*
X20576191Y-16860133D02*
X20538095Y-16783942D01*
X20538095Y-16783942D02*
X20538095Y-16745847D01*
X20538095Y-16745847D02*
X20576191Y-16669657D01*
X20576191Y-16669657D02*
X20652381Y-16631561D01*
X20652381Y-16631561D02*
X20766667Y-16631561D01*
X20766667Y-16631561D02*
X20842857Y-16669657D01*
X21223810Y-16745847D02*
X21833334Y-16745847D01*
X21833334Y-16974419D02*
X21223810Y-16974419D01*
X22366667Y-16364895D02*
X22442857Y-16364895D01*
X22442857Y-16364895D02*
X22519048Y-16402990D01*
X22519048Y-16402990D02*
X22557143Y-16441085D01*
X22557143Y-16441085D02*
X22595238Y-16517276D01*
X22595238Y-16517276D02*
X22633333Y-16669657D01*
X22633333Y-16669657D02*
X22633333Y-16860133D01*
X22633333Y-16860133D02*
X22595238Y-17012514D01*
X22595238Y-17012514D02*
X22557143Y-17088704D01*
X22557143Y-17088704D02*
X22519048Y-17126800D01*
X22519048Y-17126800D02*
X22442857Y-17164895D01*
X22442857Y-17164895D02*
X22366667Y-17164895D01*
X22366667Y-17164895D02*
X22290476Y-17126800D01*
X22290476Y-17126800D02*
X22252381Y-17088704D01*
X22252381Y-17088704D02*
X22214286Y-17012514D01*
X22214286Y-17012514D02*
X22176190Y-16860133D01*
X22176190Y-16860133D02*
X22176190Y-16669657D01*
X22176190Y-16669657D02*
X22214286Y-16517276D01*
X22214286Y-16517276D02*
X22252381Y-16441085D01*
X22252381Y-16441085D02*
X22290476Y-16402990D01*
X22290476Y-16402990D02*
X22366667Y-16364895D01*
X22976191Y-17088704D02*
X23014286Y-17126800D01*
X23014286Y-17126800D02*
X22976191Y-17164895D01*
X22976191Y-17164895D02*
X22938095Y-17126800D01*
X22938095Y-17126800D02*
X22976191Y-17088704D01*
X22976191Y-17088704D02*
X22976191Y-17164895D01*
X23700000Y-16631561D02*
X23700000Y-17164895D01*
X23509524Y-16326800D02*
X23319047Y-16898228D01*
X23319047Y-16898228D02*
X23814286Y-16898228D01*
X24271429Y-16364895D02*
X24347619Y-16364895D01*
X24347619Y-16364895D02*
X24423810Y-16402990D01*
X24423810Y-16402990D02*
X24461905Y-16441085D01*
X24461905Y-16441085D02*
X24500000Y-16517276D01*
X24500000Y-16517276D02*
X24538095Y-16669657D01*
X24538095Y-16669657D02*
X24538095Y-16860133D01*
X24538095Y-16860133D02*
X24500000Y-17012514D01*
X24500000Y-17012514D02*
X24461905Y-17088704D01*
X24461905Y-17088704D02*
X24423810Y-17126800D01*
X24423810Y-17126800D02*
X24347619Y-17164895D01*
X24347619Y-17164895D02*
X24271429Y-17164895D01*
X24271429Y-17164895D02*
X24195238Y-17126800D01*
X24195238Y-17126800D02*
X24157143Y-17088704D01*
X24157143Y-17088704D02*
X24119048Y-17012514D01*
X24119048Y-17012514D02*
X24080952Y-16860133D01*
X24080952Y-16860133D02*
X24080952Y-16669657D01*
X24080952Y-16669657D02*
X24119048Y-16517276D01*
X24119048Y-16517276D02*
X24157143Y-16441085D01*
X24157143Y-16441085D02*
X24195238Y-16402990D01*
X24195238Y-16402990D02*
X24271429Y-16364895D01*
X11576188Y-3564895D02*
X11119045Y-3564895D01*
X11347617Y-3564895D02*
X11347617Y-2764895D01*
X11347617Y-2764895D02*
X11271426Y-2879180D01*
X11271426Y-2879180D02*
X11195236Y-2955371D01*
X11195236Y-2955371D02*
X11119045Y-2993466D01*
X12071427Y-2764895D02*
X12147617Y-2764895D01*
X12147617Y-2764895D02*
X12223808Y-2802990D01*
X12223808Y-2802990D02*
X12261903Y-2841085D01*
X12261903Y-2841085D02*
X12299998Y-2917276D01*
X12299998Y-2917276D02*
X12338093Y-3069657D01*
X12338093Y-3069657D02*
X12338093Y-3260133D01*
X12338093Y-3260133D02*
X12299998Y-3412514D01*
X12299998Y-3412514D02*
X12261903Y-3488704D01*
X12261903Y-3488704D02*
X12223808Y-3526800D01*
X12223808Y-3526800D02*
X12147617Y-3564895D01*
X12147617Y-3564895D02*
X12071427Y-3564895D01*
X12071427Y-3564895D02*
X11995236Y-3526800D01*
X11995236Y-3526800D02*
X11957141Y-3488704D01*
X11957141Y-3488704D02*
X11919046Y-3412514D01*
X11919046Y-3412514D02*
X11880950Y-3260133D01*
X11880950Y-3260133D02*
X11880950Y-3069657D01*
X11880950Y-3069657D02*
X11919046Y-2917276D01*
X11919046Y-2917276D02*
X11957141Y-2841085D01*
X11957141Y-2841085D02*
X11995236Y-2802990D01*
X11995236Y-2802990D02*
X12071427Y-2764895D01*
X12833332Y-2764895D02*
X12909522Y-2764895D01*
X12909522Y-2764895D02*
X12985713Y-2802990D01*
X12985713Y-2802990D02*
X13023808Y-2841085D01*
X13023808Y-2841085D02*
X13061903Y-2917276D01*
X13061903Y-2917276D02*
X13099998Y-3069657D01*
X13099998Y-3069657D02*
X13099998Y-3260133D01*
X13099998Y-3260133D02*
X13061903Y-3412514D01*
X13061903Y-3412514D02*
X13023808Y-3488704D01*
X13023808Y-3488704D02*
X12985713Y-3526800D01*
X12985713Y-3526800D02*
X12909522Y-3564895D01*
X12909522Y-3564895D02*
X12833332Y-3564895D01*
X12833332Y-3564895D02*
X12757141Y-3526800D01*
X12757141Y-3526800D02*
X12719046Y-3488704D01*
X12719046Y-3488704D02*
X12680951Y-3412514D01*
X12680951Y-3412514D02*
X12642855Y-3260133D01*
X12642855Y-3260133D02*
X12642855Y-3069657D01*
X12642855Y-3069657D02*
X12680951Y-2917276D01*
X12680951Y-2917276D02*
X12719046Y-2841085D01*
X12719046Y-2841085D02*
X12757141Y-2802990D01*
X12757141Y-2802990D02*
X12833332Y-2764895D01*
X13442856Y-3564895D02*
X13442856Y-2764895D01*
X13442856Y-2764895D02*
X13709522Y-3336323D01*
X13709522Y-3336323D02*
X13976189Y-2764895D01*
X13976189Y-2764895D02*
X13976189Y-3564895D01*
X14357142Y-3564895D02*
X14357142Y-2764895D01*
X14357142Y-3145847D02*
X14814285Y-3145847D01*
X14814285Y-3564895D02*
X14814285Y-2764895D01*
X15119046Y-3031561D02*
X15538094Y-3031561D01*
X15538094Y-3031561D02*
X15119046Y-3564895D01*
X15119046Y-3564895D02*
X15538094Y-3564895D01*
X16833332Y-3564895D02*
X16452380Y-3564895D01*
X16452380Y-3564895D02*
X16452380Y-2764895D01*
X17557142Y-3488704D02*
X17519046Y-3526800D01*
X17519046Y-3526800D02*
X17404761Y-3564895D01*
X17404761Y-3564895D02*
X17328570Y-3564895D01*
X17328570Y-3564895D02*
X17214284Y-3526800D01*
X17214284Y-3526800D02*
X17138094Y-3450609D01*
X17138094Y-3450609D02*
X17099999Y-3374419D01*
X17099999Y-3374419D02*
X17061903Y-3222038D01*
X17061903Y-3222038D02*
X17061903Y-3107752D01*
X17061903Y-3107752D02*
X17099999Y-2955371D01*
X17099999Y-2955371D02*
X17138094Y-2879180D01*
X17138094Y-2879180D02*
X17214284Y-2802990D01*
X17214284Y-2802990D02*
X17328570Y-2764895D01*
X17328570Y-2764895D02*
X17404761Y-2764895D01*
X17404761Y-2764895D02*
X17519046Y-2802990D01*
X17519046Y-2802990D02*
X17557142Y-2841085D01*
X18776189Y-3145847D02*
X18890475Y-3183942D01*
X18890475Y-3183942D02*
X18928570Y-3222038D01*
X18928570Y-3222038D02*
X18966666Y-3298228D01*
X18966666Y-3298228D02*
X18966666Y-3412514D01*
X18966666Y-3412514D02*
X18928570Y-3488704D01*
X18928570Y-3488704D02*
X18890475Y-3526800D01*
X18890475Y-3526800D02*
X18814285Y-3564895D01*
X18814285Y-3564895D02*
X18509523Y-3564895D01*
X18509523Y-3564895D02*
X18509523Y-2764895D01*
X18509523Y-2764895D02*
X18776189Y-2764895D01*
X18776189Y-2764895D02*
X18852380Y-2802990D01*
X18852380Y-2802990D02*
X18890475Y-2841085D01*
X18890475Y-2841085D02*
X18928570Y-2917276D01*
X18928570Y-2917276D02*
X18928570Y-2993466D01*
X18928570Y-2993466D02*
X18890475Y-3069657D01*
X18890475Y-3069657D02*
X18852380Y-3107752D01*
X18852380Y-3107752D02*
X18776189Y-3145847D01*
X18776189Y-3145847D02*
X18509523Y-3145847D01*
X19652380Y-3564895D02*
X19652380Y-3145847D01*
X19652380Y-3145847D02*
X19614285Y-3069657D01*
X19614285Y-3069657D02*
X19538094Y-3031561D01*
X19538094Y-3031561D02*
X19385713Y-3031561D01*
X19385713Y-3031561D02*
X19309523Y-3069657D01*
X19652380Y-3526800D02*
X19576189Y-3564895D01*
X19576189Y-3564895D02*
X19385713Y-3564895D01*
X19385713Y-3564895D02*
X19309523Y-3526800D01*
X19309523Y-3526800D02*
X19271427Y-3450609D01*
X19271427Y-3450609D02*
X19271427Y-3374419D01*
X19271427Y-3374419D02*
X19309523Y-3298228D01*
X19309523Y-3298228D02*
X19385713Y-3260133D01*
X19385713Y-3260133D02*
X19576189Y-3260133D01*
X19576189Y-3260133D02*
X19652380Y-3222038D01*
X20033333Y-3031561D02*
X20033333Y-3564895D01*
X20033333Y-3107752D02*
X20071428Y-3069657D01*
X20071428Y-3069657D02*
X20147618Y-3031561D01*
X20147618Y-3031561D02*
X20261904Y-3031561D01*
X20261904Y-3031561D02*
X20338095Y-3069657D01*
X20338095Y-3069657D02*
X20376190Y-3145847D01*
X20376190Y-3145847D02*
X20376190Y-3564895D01*
X21100000Y-3564895D02*
X21100000Y-2764895D01*
X21100000Y-3526800D02*
X21023809Y-3564895D01*
X21023809Y-3564895D02*
X20871428Y-3564895D01*
X20871428Y-3564895D02*
X20795238Y-3526800D01*
X20795238Y-3526800D02*
X20757143Y-3488704D01*
X20757143Y-3488704D02*
X20719047Y-3412514D01*
X20719047Y-3412514D02*
X20719047Y-3183942D01*
X20719047Y-3183942D02*
X20757143Y-3107752D01*
X20757143Y-3107752D02*
X20795238Y-3069657D01*
X20795238Y-3069657D02*
X20871428Y-3031561D01*
X20871428Y-3031561D02*
X21023809Y-3031561D01*
X21023809Y-3031561D02*
X21100000Y-3069657D01*
X21480953Y-3031561D02*
X21480953Y-3831561D01*
X21480953Y-3069657D02*
X21557143Y-3031561D01*
X21557143Y-3031561D02*
X21709524Y-3031561D01*
X21709524Y-3031561D02*
X21785715Y-3069657D01*
X21785715Y-3069657D02*
X21823810Y-3107752D01*
X21823810Y-3107752D02*
X21861905Y-3183942D01*
X21861905Y-3183942D02*
X21861905Y-3412514D01*
X21861905Y-3412514D02*
X21823810Y-3488704D01*
X21823810Y-3488704D02*
X21785715Y-3526800D01*
X21785715Y-3526800D02*
X21709524Y-3564895D01*
X21709524Y-3564895D02*
X21557143Y-3564895D01*
X21557143Y-3564895D02*
X21480953Y-3526800D01*
X22547620Y-3564895D02*
X22547620Y-3145847D01*
X22547620Y-3145847D02*
X22509525Y-3069657D01*
X22509525Y-3069657D02*
X22433334Y-3031561D01*
X22433334Y-3031561D02*
X22280953Y-3031561D01*
X22280953Y-3031561D02*
X22204763Y-3069657D01*
X22547620Y-3526800D02*
X22471429Y-3564895D01*
X22471429Y-3564895D02*
X22280953Y-3564895D01*
X22280953Y-3564895D02*
X22204763Y-3526800D01*
X22204763Y-3526800D02*
X22166667Y-3450609D01*
X22166667Y-3450609D02*
X22166667Y-3374419D01*
X22166667Y-3374419D02*
X22204763Y-3298228D01*
X22204763Y-3298228D02*
X22280953Y-3260133D01*
X22280953Y-3260133D02*
X22471429Y-3260133D01*
X22471429Y-3260133D02*
X22547620Y-3222038D01*
X22890477Y-3526800D02*
X22966668Y-3564895D01*
X22966668Y-3564895D02*
X23119049Y-3564895D01*
X23119049Y-3564895D02*
X23195239Y-3526800D01*
X23195239Y-3526800D02*
X23233335Y-3450609D01*
X23233335Y-3450609D02*
X23233335Y-3412514D01*
X23233335Y-3412514D02*
X23195239Y-3336323D01*
X23195239Y-3336323D02*
X23119049Y-3298228D01*
X23119049Y-3298228D02*
X23004763Y-3298228D01*
X23004763Y-3298228D02*
X22928573Y-3260133D01*
X22928573Y-3260133D02*
X22890477Y-3183942D01*
X22890477Y-3183942D02*
X22890477Y-3145847D01*
X22890477Y-3145847D02*
X22928573Y-3069657D01*
X22928573Y-3069657D02*
X23004763Y-3031561D01*
X23004763Y-3031561D02*
X23119049Y-3031561D01*
X23119049Y-3031561D02*
X23195239Y-3069657D01*
X23538096Y-3526800D02*
X23614287Y-3564895D01*
X23614287Y-3564895D02*
X23766668Y-3564895D01*
X23766668Y-3564895D02*
X23842858Y-3526800D01*
X23842858Y-3526800D02*
X23880954Y-3450609D01*
X23880954Y-3450609D02*
X23880954Y-3412514D01*
X23880954Y-3412514D02*
X23842858Y-3336323D01*
X23842858Y-3336323D02*
X23766668Y-3298228D01*
X23766668Y-3298228D02*
X23652382Y-3298228D01*
X23652382Y-3298228D02*
X23576192Y-3260133D01*
X23576192Y-3260133D02*
X23538096Y-3183942D01*
X23538096Y-3183942D02*
X23538096Y-3145847D01*
X23538096Y-3145847D02*
X23576192Y-3069657D01*
X23576192Y-3069657D02*
X23652382Y-3031561D01*
X23652382Y-3031561D02*
X23766668Y-3031561D01*
X23766668Y-3031561D02*
X23842858Y-3069657D01*
X27980952Y-4864895D02*
X27980952Y-4064895D01*
X27980952Y-4064895D02*
X28285714Y-4064895D01*
X28285714Y-4064895D02*
X28361904Y-4102990D01*
X28361904Y-4102990D02*
X28399999Y-4141085D01*
X28399999Y-4141085D02*
X28438095Y-4217276D01*
X28438095Y-4217276D02*
X28438095Y-4331561D01*
X28438095Y-4331561D02*
X28399999Y-4407752D01*
X28399999Y-4407752D02*
X28361904Y-4445847D01*
X28361904Y-4445847D02*
X28285714Y-4483942D01*
X28285714Y-4483942D02*
X27980952Y-4483942D01*
X28933333Y-4064895D02*
X29085714Y-4064895D01*
X29085714Y-4064895D02*
X29161904Y-4102990D01*
X29161904Y-4102990D02*
X29238095Y-4179180D01*
X29238095Y-4179180D02*
X29276190Y-4331561D01*
X29276190Y-4331561D02*
X29276190Y-4598228D01*
X29276190Y-4598228D02*
X29238095Y-4750609D01*
X29238095Y-4750609D02*
X29161904Y-4826800D01*
X29161904Y-4826800D02*
X29085714Y-4864895D01*
X29085714Y-4864895D02*
X28933333Y-4864895D01*
X28933333Y-4864895D02*
X28857142Y-4826800D01*
X28857142Y-4826800D02*
X28780952Y-4750609D01*
X28780952Y-4750609D02*
X28742856Y-4598228D01*
X28742856Y-4598228D02*
X28742856Y-4331561D01*
X28742856Y-4331561D02*
X28780952Y-4179180D01*
X28780952Y-4179180D02*
X28857142Y-4102990D01*
X28857142Y-4102990D02*
X28933333Y-4064895D01*
X30076190Y-4864895D02*
X29809523Y-4483942D01*
X29619047Y-4864895D02*
X29619047Y-4064895D01*
X29619047Y-4064895D02*
X29923809Y-4064895D01*
X29923809Y-4064895D02*
X29999999Y-4102990D01*
X29999999Y-4102990D02*
X30038094Y-4141085D01*
X30038094Y-4141085D02*
X30076190Y-4217276D01*
X30076190Y-4217276D02*
X30076190Y-4331561D01*
X30076190Y-4331561D02*
X30038094Y-4407752D01*
X30038094Y-4407752D02*
X29999999Y-4445847D01*
X29999999Y-4445847D02*
X29923809Y-4483942D01*
X29923809Y-4483942D02*
X29619047Y-4483942D01*
X30304761Y-4064895D02*
X30761904Y-4064895D01*
X30533332Y-4864895D02*
X30533332Y-4064895D01*
X31599999Y-4141085D02*
X31638095Y-4102990D01*
X31638095Y-4102990D02*
X31714285Y-4064895D01*
X31714285Y-4064895D02*
X31904761Y-4064895D01*
X31904761Y-4064895D02*
X31980952Y-4102990D01*
X31980952Y-4102990D02*
X32019047Y-4141085D01*
X32019047Y-4141085D02*
X32057142Y-4217276D01*
X32057142Y-4217276D02*
X32057142Y-4293466D01*
X32057142Y-4293466D02*
X32019047Y-4407752D01*
X32019047Y-4407752D02*
X31561904Y-4864895D01*
X31561904Y-4864895D02*
X32057142Y-4864895D01*
D11*
X16039580Y-11116666D02*
X16087200Y-11164285D01*
X16087200Y-11164285D02*
X16134819Y-11307142D01*
X16134819Y-11307142D02*
X16134819Y-11402380D01*
X16134819Y-11402380D02*
X16087200Y-11545237D01*
X16087200Y-11545237D02*
X15991961Y-11640475D01*
X15991961Y-11640475D02*
X15896723Y-11688094D01*
X15896723Y-11688094D02*
X15706247Y-11735713D01*
X15706247Y-11735713D02*
X15563390Y-11735713D01*
X15563390Y-11735713D02*
X15372914Y-11688094D01*
X15372914Y-11688094D02*
X15277676Y-11640475D01*
X15277676Y-11640475D02*
X15182438Y-11545237D01*
X15182438Y-11545237D02*
X15134819Y-11402380D01*
X15134819Y-11402380D02*
X15134819Y-11307142D01*
X15134819Y-11307142D02*
X15182438Y-11164285D01*
X15182438Y-11164285D02*
X15230057Y-11116666D01*
X16134819Y-10164285D02*
X16134819Y-10735713D01*
X16134819Y-10449999D02*
X15134819Y-10449999D01*
X15134819Y-10449999D02*
X15277676Y-10545237D01*
X15277676Y-10545237D02*
X15372914Y-10640475D01*
X15372914Y-10640475D02*
X15420533Y-10735713D01*
X1766666Y-14534819D02*
X1766666Y-15249104D01*
X1766666Y-15249104D02*
X1719047Y-15391961D01*
X1719047Y-15391961D02*
X1623809Y-15487200D01*
X1623809Y-15487200D02*
X1480952Y-15534819D01*
X1480952Y-15534819D02*
X1385714Y-15534819D01*
X2766666Y-15534819D02*
X2195238Y-15534819D01*
X2480952Y-15534819D02*
X2480952Y-14534819D01*
X2480952Y-14534819D02*
X2385714Y-14677676D01*
X2385714Y-14677676D02*
X2290476Y-14772914D01*
X2290476Y-14772914D02*
X2195238Y-14820533D01*
X32566666Y-4374819D02*
X32566666Y-5089104D01*
X32566666Y-5089104D02*
X32519047Y-5231961D01*
X32519047Y-5231961D02*
X32423809Y-5327200D01*
X32423809Y-5327200D02*
X32280952Y-5374819D01*
X32280952Y-5374819D02*
X32185714Y-5374819D01*
X32995238Y-4470057D02*
X33042857Y-4422438D01*
X33042857Y-4422438D02*
X33138095Y-4374819D01*
X33138095Y-4374819D02*
X33376190Y-4374819D01*
X33376190Y-4374819D02*
X33471428Y-4422438D01*
X33471428Y-4422438D02*
X33519047Y-4470057D01*
X33519047Y-4470057D02*
X33566666Y-4565295D01*
X33566666Y-4565295D02*
X33566666Y-4660533D01*
X33566666Y-4660533D02*
X33519047Y-4803390D01*
X33519047Y-4803390D02*
X32947619Y-5374819D01*
X32947619Y-5374819D02*
X33566666Y-5374819D01*
X22884819Y-10954166D02*
X22884819Y-11430356D01*
X22884819Y-11430356D02*
X21884819Y-11430356D01*
X22884819Y-10097023D02*
X22884819Y-10668451D01*
X22884819Y-10382737D02*
X21884819Y-10382737D01*
X21884819Y-10382737D02*
X22027676Y-10477975D01*
X22027676Y-10477975D02*
X22122914Y-10573213D01*
X22122914Y-10573213D02*
X22170533Y-10668451D01*
%TO.C,C1*%
D12*
X13265000Y-10688748D02*
X13265000Y-11211252D01*
X14735000Y-10688748D02*
X14735000Y-11211252D01*
%TO.C,J1*%
X560000Y-8050000D02*
X560000Y-9160000D01*
X560000Y-10840000D02*
X560000Y-11950000D01*
X3810000Y-8050000D02*
X3810000Y-9160000D01*
X3810000Y-10840000D02*
X3810000Y-11950000D01*
X4360000Y-10000000D02*
X4860000Y-10250000D01*
X4860000Y-9750000D02*
X4360000Y-10000000D01*
X4860000Y-10250000D02*
X4860000Y-9750000D01*
%TO.C,J2*%
X30140000Y-9750000D02*
X30140000Y-10250000D01*
X30140000Y-10250000D02*
X30640000Y-10000000D01*
X30640000Y-10000000D02*
X30140000Y-9750000D01*
X31190000Y-9160000D02*
X31190000Y-8050000D01*
X31190000Y-11950000D02*
X31190000Y-10840000D01*
X34440000Y-9160000D02*
X34440000Y-8050000D01*
X34440000Y-11950000D02*
X34440000Y-10840000D01*
%TO.C,L1*%
X20490000Y-10624721D02*
X20490000Y-10950279D01*
X21510000Y-10624721D02*
X21510000Y-10950279D01*
%TD*%
M02*
