%TF.GenerationSoftware,KiCad,Pcbnew,10.0.4-10.0.4~ubuntu25.10.1*%
%TF.CreationDate,2026-09-09T16:20:24+00:00*%
%TF.ProjectId,led_board,6c65645f-626f-4617-9264-2e6b69636164,rev?*%
%TF.SameCoordinates,Original*%
%TF.FileFunction,Legend,Top*%
%TF.FilePolarity,Positive*%
%FSLAX46Y46*%
G04 Gerber Fmt 4.6, Leading zero omitted, Abs format (unit mm)*
G04 Created by KiCad (PCBNEW 10.0.4-10.0.4~ubuntu25.10.1) date 2026-09-09 16:20:24*
%MOMM*%
%LPD*%
G01*
G04 APERTURE LIST*
%ADD10C,0.100000*%
%ADD11C,0.150000*%
%ADD12C,0.120000*%
G04 APERTURE END LIST*
D10*
X3971429Y-6060133D02*
X4580953Y-6060133D01*
X4276191Y-6364895D02*
X4276191Y-5755371D01*
X5342857Y-5564895D02*
X4961905Y-5564895D01*
X4961905Y-5564895D02*
X4923809Y-5945847D01*
X4923809Y-5945847D02*
X4961905Y-5907752D01*
X4961905Y-5907752D02*
X5038095Y-5869657D01*
X5038095Y-5869657D02*
X5228571Y-5869657D01*
X5228571Y-5869657D02*
X5304762Y-5907752D01*
X5304762Y-5907752D02*
X5342857Y-5945847D01*
X5342857Y-5945847D02*
X5380952Y-6022038D01*
X5380952Y-6022038D02*
X5380952Y-6212514D01*
X5380952Y-6212514D02*
X5342857Y-6288704D01*
X5342857Y-6288704D02*
X5304762Y-6326800D01*
X5304762Y-6326800D02*
X5228571Y-6364895D01*
X5228571Y-6364895D02*
X5038095Y-6364895D01*
X5038095Y-6364895D02*
X4961905Y-6326800D01*
X4961905Y-6326800D02*
X4923809Y-6288704D01*
X5609524Y-5564895D02*
X5876191Y-6364895D01*
X5876191Y-6364895D02*
X6142857Y-5564895D01*
X7890476Y-12142990D02*
X7814286Y-12104895D01*
X7814286Y-12104895D02*
X7700000Y-12104895D01*
X7700000Y-12104895D02*
X7585714Y-12142990D01*
X7585714Y-12142990D02*
X7509524Y-12219180D01*
X7509524Y-12219180D02*
X7471429Y-12295371D01*
X7471429Y-12295371D02*
X7433333Y-12447752D01*
X7433333Y-12447752D02*
X7433333Y-12562038D01*
X7433333Y-12562038D02*
X7471429Y-12714419D01*
X7471429Y-12714419D02*
X7509524Y-12790609D01*
X7509524Y-12790609D02*
X7585714Y-12866800D01*
X7585714Y-12866800D02*
X7700000Y-12904895D01*
X7700000Y-12904895D02*
X7776191Y-12904895D01*
X7776191Y-12904895D02*
X7890476Y-12866800D01*
X7890476Y-12866800D02*
X7928572Y-12828704D01*
X7928572Y-12828704D02*
X7928572Y-12562038D01*
X7928572Y-12562038D02*
X7776191Y-12562038D01*
X8271429Y-12904895D02*
X8271429Y-12104895D01*
X8271429Y-12104895D02*
X8728572Y-12904895D01*
X8728572Y-12904895D02*
X8728572Y-12104895D01*
X9109524Y-12904895D02*
X9109524Y-12104895D01*
X9109524Y-12104895D02*
X9300000Y-12104895D01*
X9300000Y-12104895D02*
X9414286Y-12142990D01*
X9414286Y-12142990D02*
X9490476Y-12219180D01*
X9490476Y-12219180D02*
X9528571Y-12295371D01*
X9528571Y-12295371D02*
X9566667Y-12447752D01*
X9566667Y-12447752D02*
X9566667Y-12562038D01*
X9566667Y-12562038D02*
X9528571Y-12714419D01*
X9528571Y-12714419D02*
X9490476Y-12790609D01*
X9490476Y-12790609D02*
X9414286Y-12866800D01*
X9414286Y-12866800D02*
X9300000Y-12904895D01*
X9300000Y-12904895D02*
X9109524Y-12904895D01*
X10785714Y-17864895D02*
X10519047Y-17483942D01*
X10328571Y-17864895D02*
X10328571Y-17064895D01*
X10328571Y-17064895D02*
X10633333Y-17064895D01*
X10633333Y-17064895D02*
X10709523Y-17102990D01*
X10709523Y-17102990D02*
X10747618Y-17141085D01*
X10747618Y-17141085D02*
X10785714Y-17217276D01*
X10785714Y-17217276D02*
X10785714Y-17331561D01*
X10785714Y-17331561D02*
X10747618Y-17407752D01*
X10747618Y-17407752D02*
X10709523Y-17445847D01*
X10709523Y-17445847D02*
X10633333Y-17483942D01*
X10633333Y-17483942D02*
X10328571Y-17483942D01*
X11128571Y-17445847D02*
X11395237Y-17445847D01*
X11509523Y-17864895D02*
X11128571Y-17864895D01*
X11128571Y-17864895D02*
X11128571Y-17064895D01*
X11128571Y-17064895D02*
X11509523Y-17064895D01*
X11738095Y-17064895D02*
X12004762Y-17864895D01*
X12004762Y-17864895D02*
X12271428Y-17064895D01*
X13566666Y-17864895D02*
X13109523Y-17864895D01*
X13338095Y-17864895D02*
X13338095Y-17064895D01*
X13338095Y-17064895D02*
X13261904Y-17179180D01*
X13261904Y-17179180D02*
X13185714Y-17255371D01*
X13185714Y-17255371D02*
X13109523Y-17293466D01*
X13909524Y-17788704D02*
X13947619Y-17826800D01*
X13947619Y-17826800D02*
X13909524Y-17864895D01*
X13909524Y-17864895D02*
X13871428Y-17826800D01*
X13871428Y-17826800D02*
X13909524Y-17788704D01*
X13909524Y-17788704D02*
X13909524Y-17864895D01*
X14442857Y-17064895D02*
X14519047Y-17064895D01*
X14519047Y-17064895D02*
X14595238Y-17102990D01*
X14595238Y-17102990D02*
X14633333Y-17141085D01*
X14633333Y-17141085D02*
X14671428Y-17217276D01*
X14671428Y-17217276D02*
X14709523Y-17369657D01*
X14709523Y-17369657D02*
X14709523Y-17560133D01*
X14709523Y-17560133D02*
X14671428Y-17712514D01*
X14671428Y-17712514D02*
X14633333Y-17788704D01*
X14633333Y-17788704D02*
X14595238Y-17826800D01*
X14595238Y-17826800D02*
X14519047Y-17864895D01*
X14519047Y-17864895D02*
X14442857Y-17864895D01*
X14442857Y-17864895D02*
X14366666Y-17826800D01*
X14366666Y-17826800D02*
X14328571Y-17788704D01*
X14328571Y-17788704D02*
X14290476Y-17712514D01*
X14290476Y-17712514D02*
X14252380Y-17560133D01*
X14252380Y-17560133D02*
X14252380Y-17369657D01*
X14252380Y-17369657D02*
X14290476Y-17217276D01*
X14290476Y-17217276D02*
X14328571Y-17141085D01*
X14328571Y-17141085D02*
X14366666Y-17102990D01*
X14366666Y-17102990D02*
X14442857Y-17064895D01*
D11*
X6671427Y-3047342D02*
X6099999Y-3047342D01*
X6099999Y-3047342D02*
X6099999Y-1847342D01*
X7071428Y-2418771D02*
X7471428Y-2418771D01*
X7642856Y-3047342D02*
X7071428Y-3047342D01*
X7071428Y-3047342D02*
X7071428Y-1847342D01*
X7071428Y-1847342D02*
X7642856Y-1847342D01*
X8157142Y-3047342D02*
X8157142Y-1847342D01*
X8157142Y-1847342D02*
X8442856Y-1847342D01*
X8442856Y-1847342D02*
X8614285Y-1904485D01*
X8614285Y-1904485D02*
X8728570Y-2018771D01*
X8728570Y-2018771D02*
X8785713Y-2133057D01*
X8785713Y-2133057D02*
X8842856Y-2361628D01*
X8842856Y-2361628D02*
X8842856Y-2533057D01*
X8842856Y-2533057D02*
X8785713Y-2761628D01*
X8785713Y-2761628D02*
X8728570Y-2875914D01*
X8728570Y-2875914D02*
X8614285Y-2990200D01*
X8614285Y-2990200D02*
X8442856Y-3047342D01*
X8442856Y-3047342D02*
X8157142Y-3047342D01*
X10271428Y-3047342D02*
X10271428Y-1847342D01*
X10842857Y-3047342D02*
X10842857Y-1847342D01*
X10842857Y-1847342D02*
X11528571Y-3047342D01*
X11528571Y-3047342D02*
X11528571Y-1847342D01*
X12100000Y-3047342D02*
X12100000Y-1847342D01*
X12100000Y-1847342D02*
X12385714Y-1847342D01*
X12385714Y-1847342D02*
X12557143Y-1904485D01*
X12557143Y-1904485D02*
X12671428Y-2018771D01*
X12671428Y-2018771D02*
X12728571Y-2133057D01*
X12728571Y-2133057D02*
X12785714Y-2361628D01*
X12785714Y-2361628D02*
X12785714Y-2533057D01*
X12785714Y-2533057D02*
X12728571Y-2761628D01*
X12728571Y-2761628D02*
X12671428Y-2875914D01*
X12671428Y-2875914D02*
X12557143Y-2990200D01*
X12557143Y-2990200D02*
X12385714Y-3047342D01*
X12385714Y-3047342D02*
X12100000Y-3047342D01*
X13300000Y-3047342D02*
X13300000Y-1847342D01*
X14557143Y-2933057D02*
X14500000Y-2990200D01*
X14500000Y-2990200D02*
X14328572Y-3047342D01*
X14328572Y-3047342D02*
X14214286Y-3047342D01*
X14214286Y-3047342D02*
X14042857Y-2990200D01*
X14042857Y-2990200D02*
X13928572Y-2875914D01*
X13928572Y-2875914D02*
X13871429Y-2761628D01*
X13871429Y-2761628D02*
X13814286Y-2533057D01*
X13814286Y-2533057D02*
X13814286Y-2361628D01*
X13814286Y-2361628D02*
X13871429Y-2133057D01*
X13871429Y-2133057D02*
X13928572Y-2018771D01*
X13928572Y-2018771D02*
X14042857Y-1904485D01*
X14042857Y-1904485D02*
X14214286Y-1847342D01*
X14214286Y-1847342D02*
X14328572Y-1847342D01*
X14328572Y-1847342D02*
X14500000Y-1904485D01*
X14500000Y-1904485D02*
X14557143Y-1961628D01*
X15014286Y-2704485D02*
X15585715Y-2704485D01*
X14900000Y-3047342D02*
X15300000Y-1847342D01*
X15300000Y-1847342D02*
X15700000Y-3047342D01*
X15928571Y-1847342D02*
X16614286Y-1847342D01*
X16271428Y-3047342D02*
X16271428Y-1847342D01*
X17242857Y-1847342D02*
X17471429Y-1847342D01*
X17471429Y-1847342D02*
X17585714Y-1904485D01*
X17585714Y-1904485D02*
X17700000Y-2018771D01*
X17700000Y-2018771D02*
X17757143Y-2247342D01*
X17757143Y-2247342D02*
X17757143Y-2647342D01*
X17757143Y-2647342D02*
X17700000Y-2875914D01*
X17700000Y-2875914D02*
X17585714Y-2990200D01*
X17585714Y-2990200D02*
X17471429Y-3047342D01*
X17471429Y-3047342D02*
X17242857Y-3047342D01*
X17242857Y-3047342D02*
X17128572Y-2990200D01*
X17128572Y-2990200D02*
X17014286Y-2875914D01*
X17014286Y-2875914D02*
X16957143Y-2647342D01*
X16957143Y-2647342D02*
X16957143Y-2247342D01*
X16957143Y-2247342D02*
X17014286Y-2018771D01*
X17014286Y-2018771D02*
X17128572Y-1904485D01*
X17128572Y-1904485D02*
X17242857Y-1847342D01*
X18957143Y-3047342D02*
X18557143Y-2475914D01*
X18271429Y-3047342D02*
X18271429Y-1847342D01*
X18271429Y-1847342D02*
X18728572Y-1847342D01*
X18728572Y-1847342D02*
X18842857Y-1904485D01*
X18842857Y-1904485D02*
X18900000Y-1961628D01*
X18900000Y-1961628D02*
X18957143Y-2075914D01*
X18957143Y-2075914D02*
X18957143Y-2247342D01*
X18957143Y-2247342D02*
X18900000Y-2361628D01*
X18900000Y-2361628D02*
X18842857Y-2418771D01*
X18842857Y-2418771D02*
X18728572Y-2475914D01*
X18728572Y-2475914D02*
X18271429Y-2475914D01*
X4666666Y-7074819D02*
X4666666Y-7789104D01*
X4666666Y-7789104D02*
X4619047Y-7931961D01*
X4619047Y-7931961D02*
X4523809Y-8027200D01*
X4523809Y-8027200D02*
X4380952Y-8074819D01*
X4380952Y-8074819D02*
X4285714Y-8074819D01*
X5666666Y-8074819D02*
X5095238Y-8074819D01*
X5380952Y-8074819D02*
X5380952Y-7074819D01*
X5380952Y-7074819D02*
X5285714Y-7217676D01*
X5285714Y-7217676D02*
X5190476Y-7312914D01*
X5190476Y-7312914D02*
X5095238Y-7360533D01*
X12833333Y-6304819D02*
X12500000Y-5828628D01*
X12261905Y-6304819D02*
X12261905Y-5304819D01*
X12261905Y-5304819D02*
X12642857Y-5304819D01*
X12642857Y-5304819D02*
X12738095Y-5352438D01*
X12738095Y-5352438D02*
X12785714Y-5400057D01*
X12785714Y-5400057D02*
X12833333Y-5495295D01*
X12833333Y-5495295D02*
X12833333Y-5638152D01*
X12833333Y-5638152D02*
X12785714Y-5733390D01*
X12785714Y-5733390D02*
X12738095Y-5781009D01*
X12738095Y-5781009D02*
X12642857Y-5828628D01*
X12642857Y-5828628D02*
X12261905Y-5828628D01*
X13785714Y-6304819D02*
X13214286Y-6304819D01*
X13500000Y-6304819D02*
X13500000Y-5304819D01*
X13500000Y-5304819D02*
X13404762Y-5447676D01*
X13404762Y-5447676D02*
X13309524Y-5542914D01*
X13309524Y-5542914D02*
X13214286Y-5590533D01*
X17804819Y-10738094D02*
X16804819Y-10738094D01*
X16804819Y-10738094D02*
X16804819Y-10499999D01*
X16804819Y-10499999D02*
X16852438Y-10357142D01*
X16852438Y-10357142D02*
X16947676Y-10261904D01*
X16947676Y-10261904D02*
X17042914Y-10214285D01*
X17042914Y-10214285D02*
X17233390Y-10166666D01*
X17233390Y-10166666D02*
X17376247Y-10166666D01*
X17376247Y-10166666D02*
X17566723Y-10214285D01*
X17566723Y-10214285D02*
X17661961Y-10261904D01*
X17661961Y-10261904D02*
X17757200Y-10357142D01*
X17757200Y-10357142D02*
X17804819Y-10499999D01*
X17804819Y-10499999D02*
X17804819Y-10738094D01*
X17804819Y-9214285D02*
X17804819Y-9785713D01*
X17804819Y-9499999D02*
X16804819Y-9499999D01*
X16804819Y-9499999D02*
X16947676Y-9595237D01*
X16947676Y-9595237D02*
X17042914Y-9690475D01*
X17042914Y-9690475D02*
X17090533Y-9785713D01*
%TO.C,J1*%
D12*
X3620000Y-8620000D02*
X5000000Y-8620000D01*
X3620000Y-10000000D02*
X3620000Y-8620000D01*
X3620000Y-11270000D02*
X3620000Y-13920000D01*
X3620000Y-11270000D02*
X6380000Y-11270000D01*
X3620000Y-13920000D02*
X6380000Y-13920000D01*
X6380000Y-11270000D02*
X6380000Y-13920000D01*
%TO.C,R1*%
X12772936Y-6765000D02*
X13227064Y-6765000D01*
X12772936Y-8235000D02*
X13227064Y-8235000D01*
%TO.C,D1*%
X18040000Y-9000000D02*
X18040000Y-11685000D01*
X18040000Y-11685000D02*
X19960000Y-11685000D01*
X19960000Y-11685000D02*
X19960000Y-9000000D01*
%TD*%
M02*
